<svg width="75" height="75" viewBox="0 0 75 75" fill="none" xmlns="http://www.w3.org/2000/svg">
<path fill-rule="evenodd" clip-rule="evenodd" d="M9.375 37.5C9.375 33.8066 10.1025 30.1493 11.5159 26.737C12.9293 23.3247 15.001 20.2243 17.6126 17.6126C20.2243 15.001 23.3247 12.9293 26.737 11.5159C30.1493 10.1025 33.8066 9.375 37.5 9.375C41.1934 9.375 44.8507 10.1025 48.263 11.5159C51.6753 12.9293 54.7757 15.001 57.3874 17.6126C59.999 20.2243 62.0707 23.3247 63.4841 26.737C64.8975 30.1493 65.625 33.8066 65.625 37.5C65.625 44.9592 62.6618 52.1129 57.3874 57.3874C52.1129 62.6618 44.9592 65.625 37.5 65.625C30.0408 65.625 22.8871 62.6618 17.6126 57.3874C12.3382 52.1129 9.375 44.9592 9.375 37.5ZM37.5 3.125C18.5156 3.125 3.125 18.5156 3.125 37.5C3.125 56.4844 18.5156 71.875 37.5 71.875C56.4844 71.875 71.875 56.4844 71.875 37.5C71.875 18.5156 56.4844 3.125 37.5 3.125ZM52.5 26.875C52.7462 26.5467 52.9254 26.1731 53.0272 25.7756C53.1291 25.378 53.1516 24.9643 53.0936 24.5581C53.0356 24.1518 52.8981 23.761 52.689 23.4078C52.4799 23.0547 52.2033 22.7462 51.875 22.5C51.5467 22.2538 51.1731 22.0746 50.7756 21.9728C50.378 21.8709 49.9643 21.8484 49.5581 21.9064C49.1518 21.9644 48.761 22.1019 48.4078 22.311C48.0547 22.5201 47.7462 22.7967 47.5 23.125L30.9125 45.2437L24.0844 38.4156C23.495 37.8464 22.7056 37.5314 21.8862 37.5385C21.0669 37.5456 20.2831 37.8743 19.7037 38.4537C19.1243 39.0331 18.7956 39.8169 18.7885 40.6362C18.7814 41.4556 19.0964 42.245 19.6656 42.8344L29.0406 52.2094C29.3572 52.5259 29.7381 52.7708 30.1575 52.9273C30.5769 53.0839 31.0251 53.1485 31.4716 53.1168C31.9182 53.0851 32.3527 52.9578 32.7458 52.7435C33.1389 52.5293 33.4813 52.2331 33.75 51.875L52.5 26.875Z" fill="#6C63FF"/>
</svg>
