<svg width="194" height="120" viewBox="0 0 194 120" fill="none" xmlns="http://www.w3.org/2000/svg">
<path d="M194 86.4561H142.231V86.8889H194V86.4561Z" fill="#3F3D56"/>
<path d="M153.776 82.5674L155.28 90.5747L158.502 91.4403L157.642 81.9182L153.776 82.5674Z" fill="#A0616A"/>
<path d="M171.82 82.5674L173.323 90.5747L176.546 91.4403L175.686 81.9182L171.82 82.5674Z" fill="#A0616A"/>
<path d="M157.213 89.0599C157.213 89.0599 153.776 88.8435 153.776 89.9255C153.776 91.0076 152.058 94.6866 152.058 94.6866C152.058 94.6866 150.769 99.0148 154.206 98.582C157.643 98.1492 159.791 94.2538 159.791 94.2538L158.931 90.142L157.213 89.0599Z" fill="#2F2E41"/>
<path d="M174.427 89.4587C174.427 89.4587 172.135 87.9739 172.298 88.9638C172.462 89.9536 172.626 92.5933 173.772 92.7583C174.919 92.9233 178.357 93.9131 178.521 94.2431C178.685 94.573 182.615 95.8929 182.615 93.7481C182.615 91.6034 180.159 89.9537 180.159 89.9537L177.375 87.8089C177.375 87.8089 175.574 87.644 175.246 88.7988C174.919 89.9536 174.427 89.4587 174.427 89.4587Z" fill="#2F2E41"/>
<path d="M152.649 37.0061C152.649 37.0061 148.998 31.5958 147.709 33.3271C146.42 35.0584 150.931 38.3045 150.931 38.3045L152.649 37.0061Z" fill="#A0616A"/>
<path d="M153.938 42.2C153.723 41.9836 149.857 38.3046 149.857 38.3046L152.649 36.3569L155.872 39.6031L153.938 42.2Z" fill="#5651B1"/>
<path d="M154.475 25.4282C154.475 25.4282 151.683 25.6446 151.898 28.0252C152.113 30.4057 153.938 38.3047 153.938 38.3047L155.012 40.4688C155.012 40.4688 158.986 28.0252 154.475 25.4282Z" fill="#5651B1"/>
<path d="M154.69 17.8538L155.463 20.4508H165.151L165.431 17.6374L166.268 20.4508H167.514L167.793 17.6374L168.631 20.4508H169.941L168.709 17.4606C168.137 16.0312 167.702 14.5498 167.411 13.0367C167.026 11.1578 166.01 9.46999 164.534 8.25803C163.058 7.04607 161.213 6.38418 159.309 6.38403V6.38403C159.194 6.38403 159.081 6.38635 158.968 6.39098C153.538 6.61278 150.06 12.3415 152.144 17.3982L153.401 20.4508H154.432L154.69 17.8538Z" fill="#2F2E41"/>
<path d="M154.583 40.4688C154.583 40.4688 147.924 46.0954 149.857 53.6698C151.79 61.2442 152.435 85.0494 152.435 85.0494L159.094 84.4002V54.5355L168.33 72.2812L169.834 85.0494L177.352 83.751L173.915 68.1694L167.306 48.3076L166.612 42.5775L154.583 40.4688Z" fill="#2F2E41"/>
<path d="M159.201 18.0702C161.692 18.0702 163.712 16.0355 163.712 13.5256C163.712 11.0157 161.692 8.98096 159.201 8.98096C156.71 8.98096 154.69 11.0157 154.69 13.5256C154.69 16.0355 156.71 18.0702 159.201 18.0702Z" fill="#A0616A"/>
<path d="M156.516 16.6634C156.516 16.6634 158.449 23.805 157.375 24.6706C156.301 25.5363 164.894 21.8573 164.894 21.8573C164.894 21.8573 161.242 17.7455 161.671 16.0142L156.516 16.6634Z" fill="#A0616A"/>
<path d="M164.464 20.3425C164.464 20.3425 161.025 23.3229 157.696 23.564C157.696 23.564 153.294 25.9692 153.509 26.1856C153.724 26.402 154.368 29.4318 154.368 29.4318C154.368 29.4318 155.442 31.1027 155.442 34.6256C155.442 35.0585 153.938 41.118 153.938 41.118L166.612 42.8493C166.612 42.8493 170.049 31.5959 170.264 27.7005C170.479 23.8051 171.767 19.6933 169.834 19.4769C167.901 19.2604 164.464 20.3425 164.464 20.3425Z" fill="#5651B1"/>
<path d="M169.405 20.3425C169.405 20.3425 170.908 19.044 171.767 22.0738C172.627 25.1036 176.064 34.6257 175.204 36.5734C174.345 38.5211 169.19 47.1775 169.19 47.1775L166.612 45.4462L171.767 35.7077L168.76 28.7826L169.405 20.3425Z" fill="#5651B1"/>
<path d="M167.686 45.23C167.686 45.23 161.027 49.3418 163.175 50.2074C165.323 51.0731 168.975 46.5284 168.975 46.5284L167.686 45.23Z" fill="#A0616A"/>
<path opacity="0.2" d="M154.261 29.7563C154.261 29.7563 153.831 34.0846 154.475 34.9502C155.12 35.8159 154.261 29.7563 154.261 29.7563Z" fill="black"/>
<path d="M117.099 105.284H26.0208V105.717H117.099V105.284Z" fill="#3F3D56"/>
<path d="M111.559 72.4132L85.1334 99.0361C81.0935 103.106 75.6145 105.392 69.9015 105.392C64.1884 105.392 58.7094 103.106 54.6695 99.0361C54.3129 98.6769 53.9692 98.3068 53.6427 97.9259C53.1047 97.307 52.6033 96.6566 52.1412 95.9782C50.4463 93.5082 49.287 90.7062 48.7387 87.7546C48.6162 87.1119 48.5239 86.4626 48.4616 85.8069C48.395 85.1079 48.3613 84.4024 48.3606 83.6904C48.3587 81.6993 48.6276 79.7173 49.1597 77.7997C49.3423 77.1397 49.5564 76.4904 49.802 75.852C50.8868 73.0348 52.5449 70.4776 54.6695 68.3447L66.1982 56.7299C66.8024 56.1212 67.6218 55.7793 68.4762 55.7793C69.3306 55.7793 70.1501 56.1212 70.7542 56.7299C71.3584 57.3386 71.6978 58.1641 71.6978 59.025C71.6978 59.8858 71.3584 60.7113 70.7542 61.32L59.2255 72.9348C58.3544 73.8111 57.592 74.7907 56.955 75.852C55.5404 78.2176 54.7967 80.9287 54.8048 83.6904C54.805 84.3984 54.8531 85.1055 54.9487 85.8069C55.0384 86.4644 55.1719 87.1151 55.3483 87.7546C56.0521 90.3183 57.4111 92.6512 59.2896 94.5203C61.1681 96.3895 63.5004 97.7295 66.0536 98.4067C68.6068 99.0839 71.2917 99.0745 73.8403 98.3796C76.3888 97.6846 78.7118 96.3283 80.5774 94.446L87.2192 87.7546L99.0336 75.852L107.003 67.8232C109.509 65.2917 111.051 61.9532 111.36 58.3918C111.669 54.8304 110.725 51.2729 108.693 48.3418C108.215 47.6353 108.033 46.7671 108.186 45.9259C108.339 45.0847 108.816 44.3384 109.512 43.849C110.208 43.3596 111.068 43.1667 111.904 43.3122C112.741 43.4577 113.487 43.9298 113.98 44.626C116.875 48.8084 118.219 53.883 117.776 58.9624C117.334 64.0418 115.133 68.8029 111.559 72.4132V72.4132Z" fill="#3F3D56"/>
<path d="M152.972 21.7015C152.972 21.8617 152.97 22.0218 152.965 22.182C152.91 25.0149 152.302 27.8091 151.176 30.4056C150.887 31.0713 150.565 31.7214 150.209 32.3533C149.244 34.0729 148.051 35.652 146.663 37.0473L135.134 48.662C134.53 49.2693 133.711 49.61 132.857 49.6094C132.003 49.6088 131.185 49.2669 130.581 48.6588C129.978 48.0507 129.638 47.2261 129.638 46.366C129.637 45.506 129.975 44.6809 130.578 44.072L142.107 32.4572C142.141 32.4226 142.176 32.3879 142.208 32.3533C144.868 29.6329 146.408 25.9992 146.519 22.182C146.525 22.0218 146.528 21.8617 146.528 21.7015C146.528 21.2081 146.505 20.719 146.459 20.2343C146.122 16.7231 144.584 13.4392 142.107 10.9459C141.877 10.7143 141.643 10.4914 141.4 10.2794C138.644 7.83844 135.1 6.49216 131.431 6.49216C127.761 6.49216 124.218 7.83844 121.462 10.2794C121.219 10.4914 120.985 10.7143 120.755 10.9459L94.3294 37.5688C91.5026 40.4239 89.9151 44.2918 89.9151 48.3244C89.9151 52.357 91.5026 56.225 94.3294 59.0801C94.9336 59.6888 95.273 60.5143 95.273 61.3751C95.273 62.2359 94.9336 63.0615 94.3294 63.6702C93.7252 64.2788 92.9058 64.6208 92.0514 64.6208C91.1969 64.6208 90.3775 64.2788 89.7733 63.6702C85.7395 59.597 83.4741 54.0782 83.4741 48.3244C83.4741 42.5707 85.7395 37.0519 89.7733 32.9787L116.199 6.35582C118.498 4.04446 121.285 2.28617 124.353 1.21222C127.421 0.13827 130.691 -0.223591 133.917 0.15365C137.143 0.530892 140.243 1.63749 142.985 3.39083C145.728 5.14417 148.041 7.49895 149.754 10.2794C150.144 10.909 150.5 11.5591 150.821 12.2271C152.03 14.7339 152.743 17.4533 152.922 20.2343C152.955 20.7212 152.971 21.2103 152.972 21.7015Z" fill="#3F3D56"/>
<path d="M14.9185 113.976C13.9344 117.641 10.5638 119.911 10.5638 119.911C10.5638 119.911 8.7887 116.238 9.77275 112.574C10.7568 108.909 14.1274 106.639 14.1274 106.639C14.1274 106.639 15.9025 110.311 14.9185 113.976Z" fill="#6C63FF"/>
<path d="M5.96636 113.976C6.95041 117.641 10.321 119.911 10.321 119.911C10.321 119.911 12.0961 116.238 11.1121 112.574C10.128 108.909 6.75744 106.639 6.75744 106.639C6.75744 106.639 4.98231 110.311 5.96636 113.976Z" fill="#6C63FF"/>
<path d="M7.41246 113.189C10.1127 115.837 10.4425 119.908 10.4425 119.908C10.4425 119.908 6.39438 119.685 3.69413 117.037C0.993881 114.389 0.664062 110.318 0.664062 110.318C0.664062 110.318 4.7122 110.541 7.41246 113.189Z" fill="#3F3D56"/>
<path d="M13.4725 113.189C10.7722 115.837 10.4424 119.908 10.4424 119.908C10.4424 119.908 14.4905 119.685 17.1908 117.037C19.891 114.389 20.2209 110.318 20.2209 110.318C20.2209 110.318 16.1727 110.541 13.4725 113.189Z" fill="#3F3D56"/>
<path d="M134.713 21.3164C134.713 21.6071 134.684 21.8971 134.627 22.182C134.429 23.1596 133.902 24.0381 133.134 24.6691C132.367 25.3 131.407 25.6446 130.417 25.6446C129.427 25.6446 128.467 25.3 127.7 24.6691C126.932 24.0381 126.405 23.1596 126.207 22.182C126.077 21.5373 126.094 20.8715 126.256 20.2343C126.517 19.2133 127.138 18.3232 128.004 17.7311C128.87 17.139 129.92 16.8856 130.958 17.0184C131.996 17.1512 132.951 17.6611 133.642 18.4525C134.333 19.2438 134.714 20.2622 134.713 21.3164V21.3164Z" fill="#3F3D56"/>
<path d="M71.345 86.8892C71.3449 87.1799 71.3161 87.4698 71.259 87.7548C71.0608 88.7323 70.5335 89.6109 69.7663 90.2418C68.9991 90.8728 68.0392 91.2174 67.0488 91.2174C66.0585 91.2174 65.0985 90.8728 64.3314 90.2418C63.5642 89.6109 63.0369 88.7323 62.8386 87.7548C62.7093 87.1101 62.7261 86.4443 62.888 85.8071C63.1486 84.7861 63.7701 83.896 64.6358 83.3039C65.5015 82.7118 66.552 82.4583 67.5901 82.5911C68.6281 82.724 69.5824 83.2339 70.2737 84.0252C70.9651 84.8166 71.346 85.8349 71.345 86.8892V86.8892Z" fill="#3F3D56"/>
<path d="M55.7917 36.7324C54.1494 33.9367 50.9003 33.8064 50.9003 33.8064C50.9003 33.8064 47.7342 33.3985 45.7032 37.6564C43.8101 41.6251 41.1974 45.4569 45.2826 46.3859L46.0205 44.0721L46.4774 46.5582C47.0591 46.6003 47.6426 46.6104 48.2253 46.5883C52.6002 46.446 56.7666 46.6299 56.6325 45.0483C56.4541 42.9458 57.3719 39.4224 55.7917 36.7324Z" fill="#2F2E41"/>
<path d="M43.957 98.467L44.1718 104.094H48.0384L47.8236 98.0342L43.957 98.467Z" fill="#FBBEBE"/>
<path d="M54.4827 58.6473L54.0917 59.9566L49.0266 76.908L48.4681 78.7735L48.8977 98.6833L43.5275 99.3326C43.5275 99.3326 43.3707 97.242 43.1408 94.156C42.679 88.0446 41.9229 78.0226 41.4847 72.569C41.3236 70.5521 41.2076 69.1605 41.1646 68.8186C40.9498 67.0873 43.7423 58.4309 43.7423 58.4309L49.3273 57.998L54.4827 58.6473Z" fill="#2F2E41"/>
<path d="M45.2459 103.445C45.2459 103.445 43.7423 101.713 43.5275 103.012C43.3126 104.31 40.735 109.288 40.735 109.288C40.735 109.288 33.2167 114.265 39.6609 114.698C39.6609 114.698 42.883 114.265 43.9571 112.534C43.9571 112.534 45.6755 111.452 46.1051 111.452C46.5348 111.452 49.1124 110.586 48.6828 109.288C48.2532 107.989 48.468 103.228 48.468 103.228L45.2459 103.445Z" fill="#2F2E41"/>
<path d="M45.0312 93.273L46.9645 96.952L49.9718 95.4371L48.0385 91.1089L45.0312 93.273Z" fill="#FBBEBE"/>
<path opacity="0.2" d="M43.5275 82.669C43.5275 82.669 41.925 79.1415 41.4868 73.688C44.5972 70.1864 48.3606 66.33 48.3606 66.33L52.8716 66.1136L54.2678 66.0054C54.5943 69.2948 51.8319 73.5322 49.0265 76.9082C47.3217 78.9486 45.4847 80.8731 43.5275 82.669V82.669Z" fill="black"/>
<path d="M49.1125 66.2219C49.1125 66.2219 35.3649 78.3409 37.2981 83.3183C39.2314 88.2958 44.6016 94.3553 44.6016 94.3553L48.7505 91.8605L44.8164 82.6691C44.8164 82.6691 46.4657 81.1956 48.4733 79.0123C51.7402 75.4593 55.9559 70.0267 55.5568 66.0054L55.342 58.6475L51.6902 59.0803L49.1125 66.2219Z" fill="#2F2E41"/>
<path d="M47.8238 96.0864C47.8238 96.0864 46.3201 96.0864 46.5349 97.3849C46.7497 98.6833 47.1793 100.847 47.1793 100.847C47.1793 100.847 45.4609 111.019 49.5422 108.638C53.6236 106.258 52.5495 99.9818 52.5495 99.9818C52.5495 99.9818 54.0532 96.0864 52.1199 95.6536C50.1866 95.2208 49.5422 94.7879 49.3274 95.0043C49.1126 95.2208 47.8238 96.0864 47.8238 96.0864Z" fill="#2F2E41"/>
<path d="M50.8309 43.0657C52.9663 43.0657 54.6974 41.3217 54.6974 39.1703C54.6974 37.0189 52.9663 35.2749 50.8309 35.2749C48.6955 35.2749 46.9644 37.0189 46.9644 39.1703C46.9644 41.3217 48.6955 43.0657 50.8309 43.0657Z" fill="#FBBEBE"/>
<path d="M49.3272 40.6851C49.3272 40.6851 51.0457 45.2297 50.4013 45.4461C49.7569 45.6625 48.468 46.7446 48.468 46.7446L50.6161 48.6923L56.2011 45.6625C56.2011 45.6625 53.6234 42.1999 53.8382 40.6851H49.3272Z" fill="#FBBEBE"/>
<path d="M56.2012 44.7969C56.2012 44.7969 51.7065 47.0292 50.0873 45.5884C50.0873 45.5884 47.3941 45.4461 46.9645 46.961C46.5349 48.4759 47.3941 49.7743 46.3201 50.2072C45.2461 50.64 44.4942 51.8302 45.1387 53.7779C45.7831 55.7256 45.6757 56.0503 44.8165 56.6995C43.9572 57.3487 43.098 58.6472 43.098 59.08C43.098 59.5128 42.2388 59.5128 42.6684 59.9457C43.098 60.3785 42.2388 59.9457 43.098 60.3785C43.9572 60.8113 46.3201 56.9159 48.0386 58.8636C49.757 60.8113 55.1272 64.0575 55.5568 62.1098C55.9864 60.1621 57.2753 55.401 57.2753 55.401C57.2753 55.401 61.7862 46.961 60.4974 46.0953C59.2085 45.2297 56.2012 44.7969 56.2012 44.7969Z" fill="#6C63FF"/>
<path d="M55.5568 59.9459C55.5568 59.9459 53.194 59.5131 52.5495 61.028C51.9051 62.5428 48.2534 66.0054 50.6163 66.2218C52.9791 66.4382 54.6976 62.5428 54.6976 62.5428L57.0605 62.11L55.5568 59.9459Z" fill="#FBBEBE"/>
<path d="M57.9197 46.0955L60.729 46.2531C60.729 46.2531 62.001 47.6103 62.2158 48.9088C62.4306 50.2073 66.512 59.9458 63.9343 61.0278C61.3566 62.1099 55.7716 62.7591 55.7716 62.7591L55.1272 59.7294L58.7789 58.4309L56.2012 53.0206L57.9197 46.0955Z" fill="#6C63FF"/>
<path opacity="0.2" d="M45.1386 82.7772L48.6719 91.6767L44.4941 82.7772L48.1459 78.8818L45.1386 82.7772Z" fill="black"/>
<path opacity="0.2" d="M43.0212 92.5732L44.4942 94.4633H43.4201L43.0212 92.5732Z" fill="black"/>
<path d="M51.298 36.1873C52.5955 36.1873 53.6473 35.1276 53.6473 33.8205C53.6473 32.5133 52.5955 31.4536 51.298 31.4536C50.0005 31.4536 48.9487 32.5133 48.9487 33.8205C48.9487 35.1276 50.0005 36.1873 51.298 36.1873Z" fill="#2F2E41"/>
<path d="M48.7014 33.1977C48.7015 32.6131 48.9162 32.0492 49.3043 31.6147C49.6924 31.1802 50.2264 30.9057 50.8034 30.8441C50.7213 30.8354 50.6387 30.8309 50.5561 30.8308C50.2474 30.8305 49.9417 30.8915 49.6564 31.0103C49.3711 31.1291 49.1119 31.3034 48.8935 31.5232C48.6751 31.7431 48.5018 32.0041 48.3836 32.2914C48.2654 32.5787 48.2046 32.8867 48.2046 33.1977C48.2046 33.5087 48.2654 33.8166 48.3836 34.1039C48.5018 34.3912 48.6751 34.6523 48.8935 34.8721C49.1119 35.0919 49.3711 35.2662 49.6564 35.385C49.9417 35.5038 50.2474 35.5648 50.5561 35.5645C50.6387 35.5644 50.7213 35.56 50.8034 35.5512C50.2264 35.4896 49.6924 35.2152 49.3043 34.7806C48.9162 34.3461 48.7015 33.7822 48.7014 33.1977V33.1977Z" fill="#2F2E41"/>
<path d="M55.0657 36.4629L51.8556 34.769L47.4228 35.462L46.5056 39.5429L48.7888 39.4543L49.4266 37.9551V39.4297L50.48 39.3888L51.0913 37.002L51.4735 39.5429L55.2184 39.4658L55.0657 36.4629Z" fill="#2F2E41"/>
</svg>
