<svg width="634" height="447" viewBox="0 0 634 447" fill="none" xmlns="http://www.w3.org/2000/svg">
<path opacity="0.1" d="M390.289 54.0977C363.097 73.1709 327.827 71.9398 296.919 62.0144C266.011 52.0891 237.62 34.4178 207.506 21.8594C182.406 11.371 155.962 4.46487 128.946 1.34307C90.5651 -3.05707 47.7046 2.30321 20.9652 33.1514C-8.81377 67.4866 -6.5267 129.43 25.6687 160.974C42.0545 177.007 63.5083 184.877 82.2164 197.394C100.925 209.911 118.257 230.687 116.664 254.837C115.188 277.221 98.0378 294.374 80.288 305.148C66.5714 313.471 49.68 322.56 48.0279 339.801C46.4287 356.483 60.6333 369.554 74.197 376.987C118.445 401.244 172.97 401.008 217.066 376.398C232.787 367.592 247.227 355.905 263.718 349.084C307.02 331.107 354.737 349.208 400.59 355.823C439.551 361.415 479.258 358.52 517.001 347.335C539.707 340.614 562.502 330.341 578.452 311.203C589.958 297.402 597.125 279.942 603.851 262.689C611.024 244.3 617.921 225.778 624.541 207.125C628.509 195.933 632.419 184.518 633.448 172.536C635.306 150.83 627.475 129.371 616.809 111.052C591.487 67.522 548.838 36.9389 502.65 29.1694C456.461 21.4 407.598 36.5737 371.775 69.778" fill="#6C63FF"/>
<path opacity="0.1" d="M317.868 60.9069L315.628 191.085C315.628 191.085 396.716 191.085 465.71 213.528L467.051 82.0182C467.051 82.0182 356.395 55.5171 317.868 60.9069Z" fill="black"/>
<path d="M316.104 58.5514L313.864 188.73C313.864 188.73 394.952 188.73 463.946 211.172L465.287 79.6627C465.287 79.6627 354.632 53.1617 316.104 58.5514Z" fill="#F7F7FD"/>
<path opacity="0.1" d="M277.159 64.6355L279.399 194.814C279.399 194.814 198.311 194.814 129.322 217.256L127.976 85.7468C127.976 85.7468 238.632 59.2752 277.159 64.6355Z" fill="black"/>
<path d="M278.923 61.6902L281.163 191.869C281.163 191.869 200.075 191.869 131.086 214.311L129.74 82.8015C129.74 82.8015 240.395 56.3299 278.923 61.6902Z" fill="#F7F7FD"/>
<path opacity="0.2" d="M242.5 76.8766L243.706 146.684C243.706 146.684 200.198 146.684 163.217 158.718L162.494 88.1921C162.494 88.1921 221.84 74.0021 242.5 76.8766Z" fill="#6C63FF"/>
<path opacity="0.1" d="M514.844 108.79V237.608C514.844 237.608 541.301 234.462 596.832 303.139L601.759 174.321C601.759 174.321 543.965 111.93 514.844 108.79Z" fill="black"/>
<path d="M513.668 107.023V235.841C513.668 235.841 540.126 232.696 595.656 301.372L600.583 172.554C600.583 172.554 542.789 110.163 513.668 107.023Z" fill="#F7F7FD"/>
<path opacity="0.1" d="M87.2086 109.379V238.197C87.2086 238.197 60.7749 235.051 5.25611 303.728L0.299805 174.91C0.299805 174.91 58.0881 112.519 87.2086 109.379Z" fill="black"/>
<path d="M88.9725 107.023V235.841C88.9725 235.841 62.5389 232.696 7.02003 301.372L2.06372 172.554C2.06372 172.554 59.852 110.163 88.9725 107.023Z" fill="#F7F7FD"/>
<path opacity="0.2" d="M337.77 85.6289L392.7 95.4718V103.489L337.77 92.9213V85.6289Z" fill="#6C63FF"/>
<path d="M231.941 163.088L177.016 172.931V180.948L231.941 170.38V163.088Z" fill="white"/>
<path d="M338.499 100.573L438.895 121.349V129.366L338.499 107.866V100.573Z" fill="white"/>
<path d="M338.499 115.518L438.895 136.287V144.31L338.499 122.804V115.518Z" fill="white"/>
<path opacity="0.2" d="M537.08 148.621V155.696L558.616 173.225L559.628 167.158L537.08 148.621Z" fill="#6C63FF"/>
<path d="M537.08 216.95V224.025L558.616 241.555L559.628 235.487L537.08 216.95Z" fill="white"/>
<path d="M537.421 160.756L537.08 167.836L577.795 206.259L577.124 198.172L537.421 160.756Z" fill="white"/>
<path d="M537.08 173.903V180.642L577.795 219.748V210.984L537.08 173.903Z" fill="white"/>
<path opacity="0.2" d="M65.2198 150.153L65.5549 157.234L24.8462 195.657L25.5164 187.569L65.2198 150.153Z" fill="#6C63FF"/>
<path opacity="0.2" d="M65.5549 163.3V170.038L24.8462 209.145V200.38L65.5549 163.3Z" fill="#6C63FF"/>
<path opacity="0.1" d="M120.298 372.358C138.806 372.358 153.81 369.652 153.81 366.314C153.81 362.976 138.806 360.271 120.298 360.271C101.789 360.271 86.7854 362.976 86.7854 366.314C86.7854 369.652 101.789 372.358 120.298 372.358Z" fill="#6C63FF"/>
<path d="M40.8204 333.086C40.8204 333.086 44.0482 337.315 39.327 343.689C34.6059 350.062 30.7138 355.47 32.2718 359.452C32.2718 359.452 39.3917 347.588 45.2064 347.423C51.0211 347.258 47.1995 340.249 40.8204 333.086Z" fill="#6C63FF"/>
<path opacity="0.1" d="M40.8206 333.086C41.1035 333.493 41.3253 333.94 41.4791 334.411C47.135 341.067 50.1512 347.282 44.7127 347.441C39.6506 347.582 33.5419 356.659 32.1191 358.951C32.1662 359.122 32.225 359.298 32.2896 359.469C32.2896 359.469 39.4095 347.606 45.2242 347.441C51.0389 347.276 47.1997 340.249 40.8206 333.086Z" fill="black"/>
<path d="M46.8233 338.482C46.8233 339.972 46.6587 341.18 46.453 341.18C46.2472 341.18 46.0767 339.972 46.0767 338.482C46.0767 336.991 46.2883 337.692 46.4941 337.692C46.6999 337.692 46.8233 336.985 46.8233 338.482Z" fill="#FFD037"/>
<path d="M48.887 340.249C47.5818 340.962 46.4412 341.392 46.3412 341.215C46.2413 341.038 47.2231 340.308 48.5284 339.595C49.8336 338.882 49.3162 339.401 49.4161 339.595C49.5161 339.789 50.1922 339.542 48.887 340.249Z" fill="#FFD037"/>
<path d="M23.7584 333.086C23.7584 333.086 20.5424 337.303 25.2459 343.706C29.9493 350.109 33.8591 355.487 32.3011 359.469C32.3011 359.469 25.1812 347.606 19.3665 347.441C13.5518 347.276 17.3851 340.249 23.7584 333.086Z" fill="#6C63FF"/>
<path opacity="0.1" d="M23.7586 333.086C23.4783 333.495 23.2566 333.941 23.1001 334.411C17.4442 341.067 14.428 347.282 19.8665 347.441C24.9345 347.582 31.0372 356.659 32.4601 358.951C32.4139 359.127 32.3569 359.3 32.2896 359.469C32.2896 359.469 25.1696 347.606 19.355 347.441C13.5403 347.276 17.3854 340.249 23.7586 333.086Z" fill="black"/>
<path d="M17.7559 338.482C17.7559 339.972 17.9205 341.18 18.1263 341.18C18.332 341.18 18.5025 339.972 18.5025 338.482C18.5025 336.991 18.2909 337.692 18.0851 337.692C17.8793 337.692 17.7559 336.985 17.7559 338.482Z" fill="#FFD037"/>
<path d="M15.698 340.249C17.0032 340.962 18.1379 341.392 18.2379 341.215C18.3378 341.038 17.356 340.308 16.0507 339.595C14.7455 338.882 15.2629 339.401 15.163 339.595C15.063 339.789 14.3928 339.542 15.698 340.249Z" fill="#FFD037"/>
<path d="M18.7788 358.916C18.7788 358.916 27.8095 358.639 30.5375 356.695C33.2656 354.751 44.4246 352.436 45.1007 355.552C45.7769 358.668 58.6703 371.038 48.4755 371.121C38.2807 371.203 24.7875 369.53 22.0713 367.869C19.355 366.208 18.7788 358.916 18.7788 358.916Z" fill="#A8A8A8"/>
<path opacity="0.2" d="M48.6577 370.036C38.4629 370.119 24.9698 368.446 22.2535 366.785C20.184 365.524 19.3608 360.994 19.0845 358.903H18.7847C18.7847 358.903 19.3726 366.202 22.0712 367.857C24.7699 369.512 38.2806 371.191 48.4754 371.108C51.4151 371.108 52.4381 370.036 52.3793 368.481C51.9736 369.43 50.8507 370.019 48.6577 370.036Z" fill="black"/>
<path opacity="0.1" d="M353.056 286.752C383.578 286.752 408.322 282.506 408.322 277.269C408.322 272.031 383.578 267.785 353.056 267.785C322.533 267.785 297.79 272.031 297.79 277.269C297.79 282.506 322.533 286.752 353.056 286.752Z" fill="#6C63FF"/>
<path d="M341.909 149.275C341.639 149.851 341.441 150.458 341.321 151.083C341.285 151.24 341.25 151.405 341.215 151.578C340.862 153.38 340.627 155.648 340.503 156.968C340.445 157.627 340.415 158.051 340.415 158.051C340.415 158.051 327.663 157.197 329.873 155.053C330.443 154.461 330.849 153.73 331.049 152.933C331.114 152.703 331.167 152.473 331.214 152.238C331.319 151.703 331.388 151.162 331.42 150.618C331.42 150.482 331.42 150.347 331.42 150.205C331.448 149.322 331.407 148.437 331.296 147.561C331.296 147.561 335.441 147.561 338.569 147.896C340.674 148.138 342.314 148.556 341.909 149.275Z" fill="#D38884"/>
<path d="M319.802 210.07C315.457 209.929 318.662 200.864 319.161 199.644C319.661 198.425 318.42 195.439 318.42 195.439C318.42 195.439 316.951 186.803 316.951 186.238C316.876 185.061 316.71 183.891 316.457 182.739C316.304 181.563 316.509 180.368 317.045 179.311C317.544 178.527 317.468 175.388 317.468 175.388V171.323L318.438 170.039L320.913 172.395L321.601 173.043L322.812 177.591L322.383 184.105L322.154 190.449L323.653 199.226C323.653 199.226 324.176 210.218 319.802 210.07Z" fill="#D38884"/>
<path opacity="0.1" d="M321.178 173.474L317.474 171.931V171.33L318.438 170.046L320.919 172.39L321.178 173.474Z" fill="black"/>
<path d="M319.473 164.19C318.997 165.362 318.652 166.583 318.444 167.831C318.253 169.028 317.927 170.2 317.474 171.324L321.589 173.038L319.473 164.19Z" fill="#4C4981"/>
<path opacity="0.05" d="M319.473 164.19C318.997 165.362 318.652 166.583 318.444 167.831C318.253 169.028 317.927 170.2 317.474 171.324L321.589 173.038L319.473 164.19Z" fill="black"/>
<path d="M352.256 254.307L351.915 255.037C351.915 255.037 351.545 257.458 351.545 257.517C351.545 257.576 350.475 259.19 350.475 259.19L347.788 259.779L346.647 259.638C346.587 258.972 346.485 258.311 346.342 257.658C346.3 257.476 346.259 257.287 346.206 257.099C345.805 255.589 345.172 254.15 344.331 252.834C344.331 252.834 342.338 247.91 341.626 247.268C340.915 246.626 338.205 240.129 338.493 238.562C338.646 237.702 338.522 234.815 338.381 232.412C338.263 230.451 338.134 228.801 338.134 228.801L344.901 224.796L345.689 226.039L346.159 226.775C346.159 226.775 346.159 226.916 346.13 227.152V227.24C346.052 228.242 345.855 229.231 345.542 230.186C345.542 230.186 345.036 233.826 345.542 234.468C346.048 235.11 347.659 243.692 348.017 247.662C348.017 247.786 348.017 247.91 348.017 248.022C348.158 249.848 349.287 251.474 350.422 252.663C350.492 252.746 350.569 252.822 350.645 252.899C351.149 253.405 351.688 253.875 352.256 254.307V254.307Z" fill="#D38884"/>
<path opacity="0.1" d="M346.647 259.627L347.788 259.768L350.475 259.179C350.475 259.179 351.545 257.559 351.545 257.506C351.545 257.453 351.915 255.026 351.915 255.026L352.256 254.296L352.298 254.208C351.641 253.752 351.023 253.241 350.451 252.682V252.682C350.387 252.623 350.322 252.564 350.263 252.499C350.204 252.435 350.645 254.856 348.599 255.91C347.606 256.422 346.789 256.817 346.218 257.088L346.647 259.627Z" fill="black"/>
<path d="M352.727 254.65L352.345 255.468C352.345 255.468 351.974 257.889 351.974 257.948C351.974 258.007 350.904 259.621 350.904 259.621L348.217 260.21L346.671 260.028C346.671 259.715 346.618 259.274 346.541 258.738C346.494 258.414 346.43 258.054 346.342 257.666C346.93 257.4 347.841 256.965 349.011 256.358C351.063 255.303 350.675 252.947 350.675 252.947C351.119 253.39 351.588 253.807 352.08 254.196C352.362 254.396 352.591 254.555 352.727 254.65Z" fill="#CEDDF9"/>
<path opacity="0.1" d="M352.727 254.649L352.345 255.468C352.345 255.468 351.974 257.889 351.974 257.948C351.974 258.006 350.904 259.62 350.904 259.62L348.217 260.209L346.671 260.027C346.671 259.715 346.618 259.273 346.542 258.737C346.87 258.752 347.197 258.797 347.518 258.872C347.518 258.872 351.186 259.656 351.363 256.746C351.469 255.097 351.81 254.449 352.08 254.195C352.362 254.396 352.592 254.555 352.727 254.649Z" fill="black"/>
<path d="M352.456 254.455C352.456 254.455 351.545 254.255 351.362 257.159C351.18 260.063 347.517 259.285 347.517 259.285C347.517 259.285 345.718 258.838 345.701 259.586C345.761 260.277 345.923 260.956 346.183 261.6C346.183 261.6 346.289 263.332 346.63 263.744C346.971 264.157 346.753 265.688 346.753 265.688C346.753 265.688 346.894 266.831 349.728 265.688C349.728 265.688 352.256 265.164 354.355 262.013C354.426 261.906 354.108 261.583 355.942 260.923C357.777 260.263 362.998 256.034 362.621 253.966C362.581 253.624 362.441 253.301 362.22 253.037C361.998 252.774 361.705 252.58 361.375 252.482C361.1 252.408 360.814 252.39 360.532 252.429C360.251 252.467 359.98 252.561 359.735 252.706C359.239 252.974 358.726 253.21 358.2 253.412C357.501 253.696 356.764 253.873 356.013 253.937C355.437 253.986 354.868 254.095 354.314 254.261C353.723 254.492 353.081 254.559 352.456 254.455V254.455Z" fill="#CC8294"/>
<path d="M331.69 234.463C331.286 234.799 330.936 235.197 330.656 235.641C329.621 237.226 328.998 239.441 328.304 240.395C327.398 241.632 327.128 244.035 327.128 244.035C326.887 245.614 323.547 254.049 322.642 255.545C321.737 257.041 320.478 261.112 320.478 261.112C319.708 262.078 319.755 263.515 319.832 264.198C319.832 264.316 319.832 264.41 319.867 264.475C319.902 264.54 319.867 264.587 319.867 264.587V264.628L318.632 266.731L314.705 266.183L312.677 264.805C312.843 264.535 312.99 264.253 313.117 263.963C314.205 261.536 314.975 257.2 314.975 257.2C314.975 257.2 316.069 252.252 315.987 251.098C316.014 249.523 316.122 247.95 316.31 246.386C316.31 246.386 319.402 236.931 320.39 235.4C320.802 234.795 321.057 234.096 321.131 233.368C321.15 233.221 321.15 233.073 321.131 232.926L322.46 231.601C322.46 231.601 333.395 233.103 331.69 234.463Z" fill="#D38884"/>
<path opacity="0.1" d="M319.908 264.174C319.908 264.174 319.908 264.292 319.908 264.486V264.639L318.673 266.742L314.746 266.194L312.718 264.816C312.884 264.546 313.031 264.264 313.158 263.974C314.146 263.691 316.404 264.492 316.404 264.492C316.404 264.492 318.844 264.957 319.873 264.209C319.873 264.203 319.884 264.186 319.908 264.174Z" fill="black"/>
<path d="M318.949 269.787L314.963 270.741L311.306 268.032L311.495 266.506C311.75 266.35 311.976 266.15 312.165 265.917C312.432 265.603 312.614 265.226 312.694 264.822C312.906 263.697 316.38 264.928 316.38 264.928C316.38 264.928 318.92 265.411 319.908 264.604C319.838 265.343 319.902 266.09 320.096 266.807C320.19 267.156 320.397 267.465 320.684 267.684C321.701 268.385 318.949 269.787 318.949 269.787Z" fill="#CEDDF9"/>
<path opacity="0.1" d="M318.949 269.788L314.963 270.742L311.306 268.033L311.495 266.507C311.75 266.35 311.976 266.151 312.165 265.918C312.429 265.918 312.717 265.918 312.964 265.918C313.552 265.977 315.022 268.598 315.022 268.598C318.632 268.84 319.726 267.656 320.096 266.784C320.19 267.133 320.397 267.442 320.684 267.662C321.701 268.386 318.949 269.788 318.949 269.788Z" fill="black"/>
<path d="M315.022 269.04C315.022 269.04 313.576 266.418 312.964 266.365C312.447 266.336 311.929 266.336 311.412 266.365C311.412 266.365 309.813 270.165 309.225 270.489C308.637 270.813 307.779 272.633 307.779 272.633C307.779 272.633 312.012 276.756 316.104 275.949C317.41 275.968 318.693 276.289 319.855 276.886C321.748 277.875 329.656 277.127 330.62 275.39C331.337 274.082 331.625 273.134 330.99 272.444C330.801 272.247 330.567 272.099 330.308 272.011C330.049 271.923 329.773 271.898 329.503 271.938C328.509 272.073 326.275 272.05 324.317 269.641C324.317 269.641 320.707 266.33 320.414 266.324C320.12 266.318 320.655 269.417 315.022 269.04Z" fill="#CC8294"/>
<path opacity="0.1" d="M346.165 227.205L346.136 227.24C345.889 227.511 344.149 229.426 343.62 229.561C342.745 229.892 341.889 230.272 341.056 230.698C341.056 230.698 339.986 232.129 339.134 232.2C338.876 232.237 338.623 232.305 338.381 232.4C338.263 230.439 338.134 228.79 338.134 228.79L344.901 224.796L345.689 226.039C345.865 226.539 346.065 227.005 346.13 227.152L346.165 227.205Z" fill="black"/>
<path d="M321.566 199.645C321.566 199.645 318.932 203.085 321.566 207.65C322.983 210.216 324.812 212.531 326.981 214.5L335.953 233.126C335.953 233.126 338.305 231.842 339.163 231.771C340.021 231.701 341.085 230.275 341.085 230.275C341.918 229.846 342.774 229.465 343.649 229.132C344.237 228.991 346.195 226.776 346.195 226.776C346.195 226.776 345.213 224.638 345.43 224.067C345.648 223.495 344.789 222.064 344.789 222.064C344.522 221.348 344.326 220.609 344.202 219.855C344.202 219.266 343.273 217.929 343.273 217.929C343.273 217.929 342.35 216.497 342.35 215.714C342.35 214.93 340.968 211.838 340.968 211.838L340.609 198.29L321.566 199.645Z" fill="#CEDDF9"/>
<path opacity="0.05" d="M346.165 226.776C346.165 226.776 344.19 228.985 343.62 229.132C342.744 229.465 341.889 229.846 341.056 230.275C341.056 230.275 339.986 231.701 339.134 231.771C338.52 231.899 337.926 232.111 337.37 232.402C336.605 232.749 335.918 233.126 335.918 233.126L326.94 214.5C326.154 213.814 325.425 213.066 324.759 212.262C323.543 210.827 322.46 209.283 321.525 207.65C320.496 205.994 320.131 204.01 320.502 202.095C320.669 201.218 321.017 200.385 321.525 199.651L327.91 199.197L340.627 198.29L340.733 202.301L340.968 211.838C340.968 211.838 341.174 212.315 341.432 212.945C341.837 213.822 342.135 214.743 342.32 215.69C342.32 216.48 343.243 217.905 343.243 217.905C343.243 217.905 344.172 219.26 344.172 219.831C344.297 220.587 344.494 221.328 344.76 222.046C344.76 222.046 345.619 223.472 345.407 224.037C345.195 224.603 346.165 226.776 346.165 226.776Z" fill="black"/>
<path opacity="0.1" d="M331.69 234.463C331.286 234.798 330.936 235.196 330.656 235.641C326.781 235.923 322.277 233.874 321.107 233.332C321.127 233.185 321.127 233.036 321.107 232.89L322.436 231.564C322.436 231.564 333.395 233.102 331.69 234.463Z" fill="black"/>
<path d="M343.12 203.868C343.12 203.868 342.532 205.865 342.338 206.719C342.144 207.574 341.697 211.791 341.697 211.791L341.45 212.969L337.382 232.408L336.494 236.631C334.93 237.491 331.014 235.2 331.014 235.2C326.452 235.706 320.825 232.779 320.825 232.779C320.825 232.779 321.748 229.78 321.537 228.284C321.325 226.788 322.818 225.569 322.818 225.569C322.466 224.214 323.741 218.288 323.741 218.288C323.741 218.288 324.029 216.079 325.1 215.508C326.17 214.937 324.958 214.082 324.67 213.576C324.569 213.14 324.604 212.684 324.77 212.268C324.863 211.939 324.973 211.614 325.1 211.296C322.383 208.575 321.966 204.322 321.96 201.96C321.952 201.384 321.978 200.807 322.036 200.234L327.916 199.203L340.762 196.953L342.073 200.994L342.402 202.007L343.12 203.868Z" fill="#CEDDF9"/>
<path opacity="0.1" d="M341.909 149.275C341.639 149.851 341.441 150.458 341.321 151.083C341.285 151.24 341.25 151.405 341.215 151.578C339.974 152.385 339.21 152.391 337.623 152.391C337.076 152.391 336.77 151.342 336.253 151.213C336.253 151.213 335.477 148.409 335.259 150.771C333.766 150.465 332.478 151.631 331.42 150.612C331.42 150.476 331.42 150.341 331.42 150.2C331.449 149.316 331.407 148.432 331.296 147.555C331.296 147.555 335.441 147.555 338.569 147.89C340.674 148.138 342.314 148.556 341.909 149.275Z" fill="black"/>
<path d="M344.848 144.469C344.847 145.648 344.584 146.812 344.078 147.877C343.573 148.942 342.837 149.882 341.926 150.627C341.014 151.373 339.948 151.906 338.805 152.189C337.662 152.472 336.471 152.497 335.318 152.262C334.017 151.993 332.804 151.402 331.791 150.542C330.777 149.682 329.995 148.581 329.516 147.34C329.038 146.099 328.877 144.757 329.05 143.438C329.223 142.119 329.724 140.864 330.506 139.789C331.289 138.713 332.328 137.852 333.529 137.284C334.73 136.715 336.054 136.458 337.38 136.535C338.706 136.612 339.991 137.021 341.118 137.725C342.245 138.429 343.178 139.405 343.831 140.564C344.506 141.754 344.857 143.1 344.848 144.469Z" fill="#D38884"/>
<path opacity="0.1" d="M340.503 156.969C340.445 157.628 340.415 158.052 340.415 158.052C340.415 158.052 327.663 157.198 329.873 155.054C330.443 154.462 330.849 153.731 331.049 152.934L336.582 153.841C336.582 153.841 338.146 155.054 339.357 156.197C339.702 156.506 340.088 156.765 340.503 156.969Z" fill="black"/>
<path opacity="0.1" d="M342.408 202.413C341.847 202.487 341.277 202.445 340.733 202.289C340.497 202.214 340.27 202.113 340.057 201.989C338.987 201.347 335.43 202.136 335.43 202.136C335.43 202.136 325.74 202.778 325.311 202.136C325.07 201.765 323.359 201.818 321.96 201.93C321.372 201.977 320.872 202.036 320.514 202.071C320.68 201.194 321.029 200.361 321.537 199.627L327.922 199.173L340.768 196.923L342.079 200.964C342.164 201.452 342.274 201.936 342.408 202.413V202.413Z" fill="black"/>
<path d="M336.564 154.271L329.615 153.128C329.492 153.402 329.311 153.647 329.085 153.844C328.859 154.041 328.592 154.187 328.304 154.271C327.381 154.483 323.248 156.627 321.396 159.195L319.544 161.769C319.544 161.769 318.044 163.625 318.544 165.121C319.044 166.617 319.614 171.689 319.614 171.689L320.326 177.326C320.326 177.326 321.678 181.396 321.255 183.181C320.831 184.966 321.466 192.458 321.466 192.458L320.043 201.736C320.043 201.736 324.882 201.094 325.335 201.736C325.787 202.378 335.453 201.736 335.453 201.736C335.453 201.736 338.981 200.946 340.08 201.588C340.799 201.977 341.622 202.127 342.432 202.018C342.432 202.018 341.579 199.073 342.073 197.453C342.567 195.834 342.432 192.812 342.432 192.812C342.432 192.812 343.143 188.459 342.785 187.675C342.426 186.892 343.573 184.035 343.573 184.035L347.347 164.125C347.347 164.125 346.889 160.556 344.872 159.342C342.855 158.129 340.58 157.77 339.369 156.633C338.158 155.496 336.564 154.271 336.564 154.271Z" fill="#4C4981"/>
<path d="M339.792 173.898V176.254L341.985 182.18L342.779 187.676C342.779 187.676 344.207 191.599 344.207 192.977C344.207 194.356 347.694 200.9 347.694 200.9C347.694 200.9 348.646 203.115 348.17 203.539C347.694 203.963 343.567 213.388 348.758 213.105C353.949 212.822 352.321 202.973 352.321 202.973L351.609 198.691C351.609 198.691 350.61 187.982 350.61 187.199C350.61 187.199 349.328 182.634 349.187 181.632C349.046 180.631 348.117 175.565 348.117 175.565L347.335 172.284L339.792 173.898Z" fill="#D38884"/>
<path opacity="0.1" d="M337.293 181.319L329.55 185.761L327.146 189.401L330.35 186.138L337.293 181.319Z" fill="black"/>
<path opacity="0.1" d="M334.947 189.825C334.947 189.825 331.42 192.128 329.762 192.128C328.104 192.128 324.259 196.087 324.259 196.087C324.259 196.087 329.709 192.552 330.138 192.664C330.567 192.776 334.947 189.825 334.947 189.825Z" fill="black"/>
<path opacity="0.1" d="M325.917 191.056C325.917 191.056 322.607 194.054 323.459 194.378C324.312 194.702 328.751 191.056 328.751 191.056H325.917Z" fill="black"/>
<path opacity="0.1" d="M340.556 180.354C340.556 180.354 337.993 183.835 338.687 183.782C339.381 183.729 341.356 181.744 341.356 181.744L340.556 180.354Z" fill="black"/>
<path opacity="0.1" d="M340.927 183.781C340.927 183.781 338.152 186.939 338.258 187.74C338.363 188.541 340.927 183.781 340.927 183.781Z" fill="black"/>
<path opacity="0.1" d="M341.626 185.36C341.626 185.36 339.757 188.706 340.556 189.401C341.356 190.096 341.626 185.36 341.626 185.36Z" fill="black"/>
<path opacity="0.1" d="M339.204 176.766C339.204 176.766 337.811 179.122 338.828 179.281C339.845 179.44 339.945 179.281 339.945 179.281L339.204 176.766Z" fill="black"/>
<path opacity="0.1" d="M339.592 168.148C339.245 169.588 338.769 170.994 338.169 172.348C337.946 171.658 337.762 170.956 337.617 170.245C338.203 169.482 338.865 168.779 339.592 168.148V168.148Z" fill="black"/>
<path opacity="0.1" d="M343.831 140.564C343.693 140.865 343.513 141.145 343.296 141.394C342.932 141.724 342.608 142.095 342.332 142.502C342.115 143.109 341.997 143.748 341.985 144.393C341.879 145.029 341.479 145.736 340.809 145.753C340.479 145.725 340.159 145.629 339.868 145.471C339.723 145.395 339.561 145.358 339.397 145.363C339.234 145.368 339.074 145.416 338.934 145.5C338.748 145.689 338.641 145.942 338.634 146.207C338.552 146.761 338.521 147.32 338.54 147.88C338.54 148.104 338.54 148.322 338.575 148.545C338.739 149.249 338.696 149.986 338.451 150.666C338.145 151.158 337.68 151.532 337.134 151.726C336.542 151.971 335.922 152.145 335.288 152.245V152.245C334.081 152.393 332.863 152.432 331.649 152.362C331.537 152.365 331.425 152.347 331.32 152.309C331.268 152.289 331.22 152.259 331.179 152.221C331.313 151.552 331.386 150.871 331.396 150.189C330.58 149.395 329.944 148.435 329.53 147.373C329.117 146.311 328.936 145.173 329 144.035C329.065 142.897 329.372 141.786 329.902 140.778C330.432 139.77 331.172 138.887 332.072 138.191C332.973 137.494 334.012 136.999 335.119 136.74C336.227 136.48 337.377 136.463 338.493 136.688C339.608 136.913 340.661 137.376 341.583 138.044C342.504 138.713 343.27 139.572 343.831 140.564V140.564Z" fill="black"/>
<path d="M340.515 133.831C339.786 133.755 339.098 134.143 338.381 134.302C336.905 134.626 335.394 133.955 333.877 133.961C332.573 134.035 331.305 134.414 330.173 135.068C329.258 135.501 328.423 136.087 327.704 136.8C326.982 137.525 326.561 138.498 326.528 139.521C326.629 140.108 326.611 140.709 326.475 141.288C326.323 141.581 326.142 141.857 325.934 142.113C325.747 142.415 325.627 142.754 325.583 143.107C325.54 143.46 325.573 143.818 325.682 144.157C325.986 144.828 326.397 145.445 326.899 145.983C327.875 147.238 328.486 148.74 329.362 150.071C329.744 150.649 330.173 151.195 330.644 151.703C330.721 151.793 330.815 151.867 330.92 151.921C331.024 151.957 331.134 151.973 331.244 151.968C333.101 152.021 335.024 152.062 336.735 151.332C337.283 151.141 337.748 150.767 338.052 150.271C338.299 149.592 338.344 148.855 338.181 148.151C338.103 147.366 338.121 146.575 338.234 145.795C338.241 145.531 338.349 145.281 338.534 145.094C338.674 145.006 338.835 144.958 339 144.953C339.165 144.947 339.329 144.986 339.475 145.064C339.765 145.218 340.083 145.314 340.409 145.347C341.05 145.347 341.456 144.617 341.585 143.98C341.515 143.409 341.599 142.829 341.83 142.301C342.061 141.773 342.429 141.318 342.896 140.982C343.337 140.422 343.639 139.766 343.779 139.067C343.919 138.368 343.893 137.646 343.702 136.959C343.279 135.634 341.985 133.978 340.515 133.831Z" fill="#1E1637"/>
<path opacity="0.1" d="M348.141 167.66C347.984 168.635 347.984 169.63 348.141 170.605C348.07 171.394 348.141 175.747 348.141 175.747C345.789 175.029 339.81 176.46 339.81 176.46L339.098 174.322C338.692 173.794 338.389 173.195 338.205 172.555C337.981 171.863 337.797 171.159 337.652 170.446C337.341 168.965 337.108 167.469 336.952 165.963C336.652 163.696 340.021 161.251 342.573 159.896C345.125 158.541 347.359 164.32 347.359 164.32C347.359 164.32 348.423 166.541 348.141 167.66Z" fill="black"/>
<path d="M348.141 167.253C347.985 168.229 347.985 169.223 348.141 170.198C348.07 170.982 348.141 175.335 348.141 175.335C345.789 174.622 339.81 176.047 339.81 176.047L339.098 173.909C338.691 173.382 338.388 172.783 338.205 172.142C337.981 171.452 337.797 170.75 337.652 170.039C337.342 168.558 337.108 167.062 336.952 165.557C336.652 163.283 340.021 160.844 342.573 159.484C345.125 158.123 347.359 163.907 347.359 163.907C347.359 163.907 348.423 166.11 348.141 167.253Z" fill="#4C4981"/>
<path opacity="0.2" d="M343.619 136.958C343.497 136.554 343.321 136.167 343.096 135.81C343.131 135.91 343.167 136.004 343.196 136.104C343.387 136.791 343.413 137.513 343.273 138.212C343.133 138.911 342.831 139.567 342.391 140.127C341.923 140.463 341.555 140.918 341.324 141.446C341.093 141.974 341.009 142.554 341.079 143.125C340.98 143.762 340.574 144.463 339.904 144.486C339.574 144.458 339.254 144.362 338.963 144.203C338.818 144.128 338.655 144.091 338.492 144.096C338.328 144.101 338.168 144.148 338.028 144.233C337.843 144.422 337.735 144.675 337.728 144.94C337.615 145.72 337.597 146.511 337.675 147.296C337.74 148.015 337.881 148.786 337.546 149.422C337.236 149.912 336.773 150.285 336.229 150.483C334.518 151.213 332.596 151.172 330.738 151.119C330.627 151.122 330.518 151.104 330.414 151.066C330.306 151.016 330.212 150.941 330.138 150.848C329.662 150.344 329.233 149.798 328.856 149.216C327.98 147.885 327.369 146.389 326.393 145.128C326.128 144.787 325.805 144.451 325.587 144.091V144.162C325.887 144.835 326.299 145.453 326.804 145.988C327.774 147.243 328.392 148.745 329.262 150.076C329.644 150.656 330.075 151.201 330.55 151.708C330.624 151.798 330.716 151.872 330.82 151.926C330.924 151.962 331.034 151.978 331.143 151.973C333.001 152.026 334.93 152.067 336.635 151.337C337.183 151.146 337.648 150.772 337.952 150.276C338.198 149.597 338.243 148.86 338.081 148.156C338.009 147.371 338.027 146.581 338.134 145.8C338.146 145.538 338.253 145.289 338.434 145.099C338.574 145.012 338.735 144.963 338.9 144.958C339.065 144.953 339.229 144.991 339.374 145.069C339.665 145.223 339.982 145.319 340.309 145.352C340.956 145.352 341.356 144.622 341.485 143.985C341.495 143.34 341.612 142.701 341.832 142.095C342.106 141.687 342.43 141.315 342.796 140.987C343.24 140.428 343.545 139.771 343.688 139.071C343.831 138.371 343.808 137.647 343.619 136.958V136.958Z" fill="black"/>
<path d="M400.937 138.508L395.858 149.323C395.858 149.323 395.111 151.355 394.629 151.732C394.147 152.109 392.013 158.53 392.013 158.53L386.562 166.941L386.192 167.53L384.058 166.941L382.559 161.333L382.647 159.708V159.502C382.647 159.502 386.01 155.967 386.762 155.702C386.762 155.702 387.35 155.773 388.467 153.034C389.584 150.295 390.607 149.706 390.607 149.706L391.195 147.727L397.504 137.66C397.504 137.66 402.795 130.067 404.236 133.436C405.676 136.806 400.937 138.508 400.937 138.508Z" fill="#FFD2C6"/>
<path d="M379.842 215.33C379.825 215.513 379.767 215.691 379.672 215.848C379.084 216.708 375.774 234.209 375.774 234.209C376.038 235.387 375.291 237.743 374.809 238.815C374.327 239.887 373.257 245.448 373.257 245.448C373.257 245.448 372.993 257.441 372.305 259.314C371.617 261.187 372.522 265.204 372.522 265.204C372.458 267.048 373.563 269.003 374.221 269.993L374.351 270.182C374.562 270.488 374.704 270.665 374.704 270.665C374.885 271.022 375.139 271.337 375.45 271.589L375.603 271.707C376.512 272.315 377.527 272.745 378.596 272.974H378.702C379.125 273.068 379.407 273.109 379.407 273.109L379.672 274.558L376.844 275.147L371.446 275.518C371.446 275.518 365.085 276.007 366.531 273.162C366.631 272.972 366.718 272.775 366.79 272.573C366.846 272.434 366.895 272.293 366.937 272.149C367.807 269.422 367.219 266.105 367.219 266.105L365.99 256.422C363.962 247.427 367.584 237.419 367.584 237.419C367.584 237.419 367.272 236.618 367.966 234.586C368.66 232.554 367.966 228.106 367.966 228.106C367.966 228.106 367.595 222.381 367.113 219.547C366.923 218.354 366.858 217.144 366.919 215.937C366.943 215.231 367.007 214.526 367.113 213.828L379.289 212.208C379.289 212.208 379.989 214.193 379.842 215.33Z" fill="#FFD2C6"/>
<path opacity="0.1" d="M379.672 274.57L376.844 275.159L371.446 275.53C371.446 275.53 365.085 276.019 366.531 273.174C366.631 272.984 366.718 272.788 366.79 272.585V272.585C366.846 272.446 366.895 272.305 366.937 272.161C368.039 272.198 369.128 272.416 370.159 272.809C371.97 273.51 373.334 271.684 373.334 271.684L374.216 269.999L374.345 269.758C374.557 270.064 374.698 270.241 374.698 270.241C374.911 270.655 375.219 271.012 375.597 271.283L375.444 271.596L374.592 273.398C374.592 273.398 375.686 273.51 377.179 273.752C377.468 273.826 377.775 273.788 378.037 273.645C378.299 273.502 378.496 273.264 378.59 272.98H378.696C379.119 273.074 379.401 273.115 379.401 273.115L379.672 274.57Z" fill="black"/>
<path d="M382.288 275.901C382.076 276.867 376.121 277.162 376.121 277.162C376.121 277.162 372.805 276.844 371.876 277.615C370.947 278.387 368.213 278.204 368.107 278.204C368.001 278.204 366.561 278.151 365.996 275.56C365.432 272.968 366.731 272.614 366.79 272.573C367.943 272.59 369.083 272.811 370.159 273.227C371.97 273.928 373.334 272.102 373.334 272.102L374.345 270.176C374.557 270.482 374.698 270.659 374.698 270.659C374.911 271.073 375.219 271.43 375.597 271.701L374.592 273.816C374.592 273.816 375.686 273.928 377.179 274.164C377.358 274.205 377.544 274.205 377.723 274.166C377.902 274.126 378.071 274.047 378.216 273.934C378.361 273.822 378.479 273.678 378.562 273.514C378.645 273.35 378.691 273.169 378.696 272.986C378.699 272.933 378.699 272.879 378.696 272.826C378.696 272.826 379.625 273.097 380.777 273.415C381.294 273.565 381.736 273.903 382.016 274.363C382.296 274.824 382.393 275.373 382.288 275.901V275.901Z" fill="#626696"/>
<path d="M393.512 228.089C393.371 228.943 393.224 231.157 393.224 231.157C393.723 233.013 392.442 237.419 392.442 237.419L391.801 239.934C392.083 243.145 390.037 250.996 390.037 250.996C390.037 250.996 388.667 258.277 387.956 261.417C387.53 263.162 387.66 264.997 388.326 266.665L388.379 266.795C388.379 266.854 388.408 266.912 388.42 266.971C388.441 267.058 388.469 267.142 388.503 267.225C388.662 267.657 388.899 268.056 389.202 268.403C389.319 268.544 389.447 268.676 389.584 268.797V268.797C390.255 269.392 391.022 269.867 391.854 270.199L392.212 270.341C392.584 270.479 392.963 270.597 393.347 270.694H393.477L393.188 272.379L389.414 271.407L384.358 269.763L381.906 268.385C381.906 268.385 381.906 268.25 381.982 267.99C381.985 267.975 381.985 267.959 381.982 267.943C381.982 267.831 382.029 267.702 382.059 267.549C382.447 265.34 383.411 259.161 382.929 254.59C382.341 248.952 384.693 241.171 385.239 239.322C385.579 238.261 385.725 237.147 385.669 236.035C384.74 234.68 384.528 229.255 384.528 229.255C384.528 229.255 382.817 225.756 381.406 222.045C380.936 220.834 380.595 219.576 380.389 218.293C380.222 217.39 380.153 216.472 380.183 215.554C380.183 215.554 391.654 205.063 392.912 215.218C392.953 215.566 392.994 215.889 393.036 216.213C394.153 225.55 393.647 227.258 393.512 228.089Z" fill="#FFD2C6"/>
<path opacity="0.1" d="M393.512 270.743L393.224 272.427L389.449 271.455L384.393 269.812L381.906 268.386C381.906 268.386 381.906 268.251 381.982 267.992C381.985 267.976 381.985 267.96 381.982 267.945C381.982 267.833 382.029 267.703 382.059 267.55H382.411C383.13 267.48 383.854 267.579 384.528 267.839C385.351 268.145 386.433 268.498 386.65 268.351C387.032 268.187 387.447 268.115 387.862 268.139L388.385 266.961L388.467 266.784C388.625 267.217 388.862 267.617 389.167 267.962C389.293 268.11 389.428 268.25 389.572 268.38V268.787L389.543 269.376C390.108 269.736 390.719 270.018 391.36 270.212C391.526 270.254 391.699 270.254 391.865 270.212V270.212L392.224 270.354C392.596 270.492 392.974 270.61 393.359 270.707L393.512 270.743Z" fill="black"/>
<path d="M391.619 274.352C390.566 274.051 388.026 273.563 387.615 273.939C387.203 274.316 383.682 273.939 383.682 273.939C383.313 273.934 382.952 273.833 382.633 273.646C382.315 273.459 382.05 273.193 381.865 272.873C381.13 271.731 381.724 268.037 381.724 268.037H381.982L382.417 267.99C383.135 267.921 383.859 268.017 384.534 268.273C385.357 268.585 386.439 268.939 386.657 268.791C387.037 268.624 387.452 268.549 387.868 268.573L388.456 267.248C388.615 267.68 388.852 268.08 389.155 268.426C389.28 268.574 389.416 268.711 389.561 268.838L389.508 269.822C390.073 270.183 390.684 270.466 391.325 270.664C391.48 270.723 391.65 270.728 391.808 270.678C391.966 270.628 392.102 270.525 392.195 270.388C392.222 270.341 392.244 270.292 392.26 270.24V270.24C392.736 270.465 393.237 270.631 393.753 270.735C394.414 270.666 395.077 270.841 395.618 271.227C396.16 271.613 396.542 272.184 396.693 272.832C397.251 274.476 392.671 274.652 391.619 274.352Z" fill="#626696"/>
<path opacity="0.1" d="M379.842 215.33L379.19 215.53C378.677 215.686 378.152 215.797 377.62 215.86C374.245 216.337 368.689 216.049 366.925 215.937C366.949 215.23 367.013 214.526 367.119 213.828L379.295 212.208C379.295 212.208 379.989 214.193 379.842 215.33Z" fill="black"/>
<path d="M390.466 212.368C390.466 212.368 385.998 213.063 382.359 213.858C381.148 214.123 380.007 214.406 379.19 214.671C378.677 214.826 378.152 214.939 377.62 215.007C373.569 215.596 366.373 215.048 366.373 215.048C364.397 208.627 368.771 200.54 368.771 200.54C368.672 199.898 369.683 197.925 369.683 197.925V197.86L370.306 195.568H386.915L387.121 196.552L387.544 198.555L390.155 210.966L390.466 212.368Z" fill="#626696"/>
<path opacity="0.1" d="M393.041 216.261L392.942 216.303L390.995 217.168C388.891 218.14 382.594 218.346 380.413 218.346C380.246 217.444 380.177 216.525 380.207 215.607C380.207 215.607 391.677 205.117 392.936 215.272C392.959 215.613 393 215.961 393.041 216.261Z" fill="black"/>
<path d="M393.347 215.266L392.942 215.449L390.996 216.314C388.855 217.304 382.353 217.493 380.272 217.493H379.725C378.766 217.463 377.802 216.562 377.802 216.314C377.802 216.185 377.702 215.549 377.62 215.007C377.544 214.571 377.485 214.194 377.485 214.194C375.253 213.231 373.091 212.111 371.017 210.842C369.389 209.729 369.8 201.818 370.112 197.842C370.224 196.47 370.324 195.568 370.324 195.568L387.139 196.552L389.49 196.688L390.837 196.988L391.195 197.065C391.195 197.065 392.166 204.133 392.642 204.722C393.118 205.311 392.806 207.29 392.748 208.421C392.747 208.907 392.694 209.391 392.589 209.864C392.589 209.864 393.283 211.844 393.124 212.951C393.051 213.73 393.127 214.515 393.347 215.266V215.266Z" fill="#626696"/>
<path d="M375.344 156.603C379.15 156.603 382.235 153.512 382.235 149.699C382.235 145.887 379.15 142.796 375.344 142.796C371.539 142.796 368.454 145.887 368.454 149.699C368.454 153.512 371.539 156.603 375.344 156.603Z" fill="#FFD2C6"/>
<path d="M371.981 152.574C371.981 152.574 372.458 159.112 371.123 160.614C369.598 162.144 367.993 163.591 366.314 164.95L367.384 169.391L373.422 170.086L380.477 162.54L378.872 160.591C378.872 160.591 377.643 156.414 378.654 154.329C379.666 152.244 371.981 152.574 371.981 152.574Z" fill="#FFD2C6"/>
<path opacity="0.1" d="M386.562 166.941L386.192 167.53L384.058 166.941L382.559 161.333L382.647 159.707L383.088 159.071C383.088 159.071 385.439 159.124 385.34 161.268C385.24 163.142 386.31 166.228 386.562 166.941Z" fill="black"/>
<path opacity="0.1" d="M391.207 197.924C391.207 197.924 389.508 198.301 387.562 198.554C385.616 198.807 383.37 198.943 382.447 198.401C380.9 197.482 372.522 197.747 370.1 197.841H369.688L370.312 195.55H386.921L387.127 196.534L389.478 196.669L390.825 196.969C391.072 197.547 391.207 197.924 391.207 197.924Z" fill="black"/>
<path d="M382.664 159.489C382.664 159.489 385.016 159.542 384.91 161.686C384.804 163.83 386.192 167.518 386.192 167.518L385.657 168.749C385.657 168.749 384.91 171.747 385.498 172.495C386.086 173.243 388.22 173.243 386.992 179.399C386.992 179.399 386.727 184.005 387.368 185.501C388.009 186.998 388.009 190.585 388.967 192.087C389.842 193.686 390.593 195.35 391.213 197.064C391.213 197.064 384.269 198.613 382.453 197.547C380.636 196.481 369.471 197.011 369.471 197.011C369.471 197.011 369.524 195.138 369.471 194.92C369.419 194.687 369.416 194.446 369.462 194.212C369.507 193.978 369.6 193.756 369.736 193.56C370.112 193.047 370.7 192.193 370.377 191.445C370.053 190.697 371.176 189.589 370.588 188.429C370 187.269 369.289 187.039 369.412 186.403C369.444 186.038 369.402 185.671 369.289 185.322C369.176 184.974 368.994 184.653 368.754 184.376C368.331 183.84 365.444 178.185 365.444 178.185L364.962 175.547C364.962 175.547 361.246 172.819 361.316 171.535C361.387 170.251 362.722 168.466 362.722 168.466L366.296 164.932C366.296 164.932 368.278 167.07 370.2 166.322C372.123 165.574 376.256 161.987 376.256 161.987C376.256 161.987 377.732 161.186 377.837 160.597C377.943 160.008 378.855 160.544 378.855 160.544C378.855 160.544 380.189 159.807 380.454 160.067C380.907 160.303 381.395 160.464 381.9 160.544L382.664 159.489Z" fill="#FFCDE5"/>
<path d="M362.469 170.641L361.334 171.536C360.472 173.364 359.986 175.347 359.905 177.368C359.604 180.405 359.123 183.423 358.465 186.403L356.219 190.427C356.219 190.427 352.532 198.184 352.05 200.246C351.568 202.308 349.381 205.789 349.381 205.789C349.381 205.789 341.956 212.474 347.135 213.682C352.315 214.89 352.48 208.381 352.48 208.381C352.48 208.381 353.655 207.043 353.885 206.13C354.114 205.217 360.652 193.578 360.652 193.578C360.652 193.578 362.951 190.444 362.469 188.783C362.469 188.783 365.461 181.715 365.461 179.947C365.405 178.469 365.244 176.997 364.979 175.541L365.461 171.848L362.469 170.641Z" fill="#FFD2C6"/>
<path opacity="0.1" d="M377.855 185.396C377.855 185.396 372.622 188.14 371.605 188.288C370.588 188.435 376.038 187.699 376.038 187.699L377.855 185.396Z" fill="black"/>
<path opacity="0.1" d="M382.123 187.533C382.123 187.533 375.18 189.889 372.128 189.465C372.128 189.454 379.725 190.908 382.123 187.533Z" fill="black"/>
<path opacity="0.1" d="M382.558 188.306C382.558 188.306 376.303 192.246 372.622 191.604C372.622 191.604 381.224 193.318 382.558 192.405L378.713 191.339C378.713 191.339 382.982 189.071 382.558 188.306Z" fill="black"/>
<path opacity="0.1" d="M375.356 137.547C374.454 137.325 373.515 137.299 372.603 137.47C371.69 137.642 370.825 138.008 370.065 138.542C368.995 139.385 368.301 140.675 367.078 141.305C366.443 141.577 365.791 141.807 365.126 141.994C363.955 142.474 362.979 143.334 362.356 144.437C361.732 145.54 361.496 146.82 361.687 148.073C361.875 149.133 362.369 150.111 362.616 151.16C363.051 153.027 362.663 154.983 362.192 156.844C360.876 162.005 358.879 166.967 356.254 171.6C356.047 171.887 355.944 172.236 355.96 172.589C356.026 172.827 356.152 173.044 356.325 173.219C358.794 176.076 362.792 177.06 366.584 177.19C367.976 177.328 369.38 177.094 370.653 176.512C371.439 176.059 372.115 175.438 372.634 174.692C373.946 172.894 374.598 170.696 374.48 168.472C374.38 166.675 373.78 164.861 374.233 163.123C374.278 162.881 374.388 162.655 374.551 162.469C374.956 162.051 375.632 162.163 376.209 162.092C377.778 161.91 378.79 160.255 378.978 158.682C379.166 157.109 378.772 155.531 378.76 153.97C378.754 151.88 379.406 149.841 380.624 148.144C381.147 147.425 381.8 146.718 381.988 145.817C382.211 144.686 381.559 143.856 380.994 142.966C380.118 141.576 379.689 139.956 378.355 138.896C377.474 138.218 376.447 137.756 375.356 137.547V137.547Z" fill="black"/>
<path d="M374.927 137.118C374.031 136.898 373.098 136.874 372.192 137.045C371.285 137.217 370.426 137.581 369.671 138.113C368.601 138.961 367.907 140.251 366.678 140.882C366.042 141.149 365.39 141.377 364.726 141.565C363.558 142.044 362.584 142.903 361.96 144.003C361.336 145.103 361.099 146.381 361.287 147.632C361.475 148.692 361.969 149.67 362.216 150.719C362.651 152.586 362.269 154.541 361.793 156.403C360.477 161.554 358.482 166.506 355.86 171.129C355.649 171.414 355.545 171.764 355.566 172.119C355.627 172.357 355.751 172.575 355.925 172.749C358.394 175.612 362.392 176.589 366.185 176.719C367.576 176.857 368.979 176.625 370.253 176.047C371.038 175.59 371.714 174.967 372.234 174.221C373.544 172.422 374.194 170.225 374.075 168.001C373.969 166.234 373.369 164.39 373.822 162.653C373.872 162.412 373.981 162.187 374.139 161.999C374.551 161.581 375.221 161.692 375.803 161.628C377.367 161.445 378.378 159.784 378.567 158.217C378.755 156.65 378.361 155.066 378.355 153.505C378.346 151.416 378.999 149.379 380.219 147.685C380.736 146.961 381.395 146.254 381.583 145.329C381.8 144.198 381.148 143.373 380.583 142.478C379.707 141.094 379.278 139.468 377.943 138.408C377.052 137.748 376.019 137.307 374.927 137.118V137.118Z" fill="#985C7E"/>
<path opacity="0.1" d="M372.622 204.038C372.622 204.038 373.992 210.465 376.273 212.208L372.622 204.038Z" fill="black"/>
<path opacity="0.1" d="M361.693 149.081C361.622 148.834 361.54 148.58 361.452 148.333C361.546 148.586 361.604 148.81 361.693 149.081Z" fill="black"/>
<path opacity="0.1" d="M381.183 143.509C381.207 143.704 381.207 143.902 381.183 144.098C381.006 144.999 380.342 145.706 379.819 146.425C378.602 148.122 377.95 150.16 377.955 152.25C377.955 153.835 378.355 155.413 378.167 156.963C377.979 158.512 376.991 160.19 375.403 160.367C374.815 160.438 374.151 160.326 373.745 160.744C373.585 160.932 373.474 161.157 373.422 161.398C372.969 163.136 373.575 164.932 373.675 166.747C373.784 168.972 373.124 171.167 371.805 172.961C371.288 173.708 370.611 174.33 369.824 174.781C368.553 175.363 367.151 175.597 365.761 175.458C362.051 175.335 358.118 174.375 355.625 171.624C355.559 171.788 355.539 171.967 355.566 172.142C355.627 172.381 355.751 172.599 355.925 172.772C358.394 175.635 362.392 176.613 366.185 176.743C367.576 176.88 368.979 176.649 370.253 176.071C371.038 175.614 371.714 174.991 372.234 174.245C373.544 172.445 374.194 170.249 374.075 168.025C373.969 166.258 373.369 164.414 373.822 162.676C373.872 162.435 373.981 162.21 374.139 162.022C374.551 161.604 375.221 161.716 375.803 161.651C377.367 161.469 378.378 159.808 378.567 158.241C378.755 156.674 378.361 155.089 378.355 153.528C378.346 151.44 378.999 149.402 380.219 147.709C380.736 146.984 381.394 146.277 381.583 145.352C381.68 144.71 381.538 144.053 381.183 143.509Z" fill="black"/>
<path opacity="0.1" d="M75.9495 295.841C82.8204 295.841 88.3903 295.277 88.3903 294.581C88.3903 293.885 82.8204 293.32 75.9495 293.32C69.0787 293.32 63.5088 293.885 63.5088 294.581C63.5088 295.277 69.0787 295.841 75.9495 295.841Z" fill="#6C63FF"/>
<path d="M80.3004 273.74C80.3004 273.74 64.0734 282.14 72.4574 292.001C72.6934 292.615 73.1173 293.139 73.6685 293.498C74.2197 293.857 74.87 294.031 75.5264 293.997C75.5264 293.997 75.0678 293.167 76.814 292.501C77.4364 292.262 78.0284 291.949 78.5778 291.571C79.3158 291.06 79.867 290.321 80.1476 289.468C80.1476 289.468 83.4694 285.02 80.8942 276.791C80.8942 276.791 81.2294 274.435 80.9354 274.088L78.9658 276.791C78.9658 276.791 81.0059 278.164 81.2411 280.178C81.2411 280.178 79.1187 276.797 78.6542 277.186C78.5601 277.263 77.6782 278.665 77.6782 278.665C77.6782 278.665 81.2058 281.068 81.4704 284.184C81.4704 284.184 79.4832 279.819 77.3549 279.195L76.1437 281.392C76.1437 281.392 80.0006 283.748 80.4356 287.282C80.4356 287.282 78.1956 282.794 75.9085 281.893L75.009 284.213C75.009 284.213 78.7248 286.57 79.0658 289.515C79.0658 289.515 75.9556 284.59 74.8385 284.749C74.8385 284.749 74.1389 286.929 74.2506 287.6C74.2506 287.6 76.8845 289.368 76.9316 291.093C76.9316 291.093 74.5034 288.019 74.1271 288.225C74.1271 288.225 73.9742 291.311 74.715 292.937C73.951 291.488 73.58 289.863 73.6391 288.225C72.887 288.89 72.3472 289.763 72.087 290.734C72.087 290.734 71.3873 289.032 73.6862 287.477C73.6862 287.477 73.9037 285.073 74.1683 284.779C74.1683 284.779 71.6813 285.992 70.6407 287.488C70.6407 287.488 71.0287 285.262 74.4034 284.155L75.2618 281.798C75.2618 281.798 71.8871 283.23 70.8406 284.49C70.8406 284.49 71.5931 282.281 75.544 281.221L76.7199 279.053C76.7199 279.053 73.7214 280.067 72.2575 281.221C72.2575 281.221 73.3922 279.318 77.0785 278.447L78.031 277.086C78.031 277.086 75.8498 277.869 75.2442 278.146C74.6386 278.423 74.5151 278.288 74.5151 278.288C75.6265 277.345 76.9787 276.733 78.419 276.521C78.419 276.521 80.4474 273.887 80.3004 273.74Z" fill="#6C63FF"/>
<path d="M96.2865 288.689C97.9856 289.697 100.643 290.351 103.988 288.189L103.953 292.966C104.194 296.247 108.233 308.181 108.233 308.181L111.085 318.006C113.13 324.944 114.187 332.137 114.224 339.371C114.151 341.648 114.459 343.922 115.136 346.098C116.653 350.221 114.548 355.522 113.619 357.484C111.926 358.073 110.179 358.515 108.915 358.809C108.771 358.842 108.63 358.886 108.492 358.939V358.909C108.492 358.909 104.212 360.611 102.307 360.376C100.89 360.199 100.002 361.972 101.131 363.274C100.208 363.559 99.2444 363.686 98.2796 363.651C96.3747 363.415 95.4281 366.696 98.991 367.633C102.554 368.569 122.779 367.633 122.779 367.633C123.348 367.348 123.807 366.881 124.083 366.306C124.358 365.732 124.435 365.081 124.302 364.458C125.854 364.399 126.824 364.352 126.824 364.352C126.824 364.352 130.393 362.714 126.824 358.267L126.636 358.414L125.871 356.164V353.119C125.871 353.119 130.393 331.324 128.964 328.78C127.535 326.235 126.824 313.099 126.824 313.099L127.3 298.821C128.588 296.153 129.252 291.976 129.587 288.707C130.072 287.147 130.377 285.536 130.499 283.906C130.551 283.141 130.598 282.334 130.628 281.497C130.647 279.665 130.354 277.842 129.764 276.107C131.372 273.705 133.173 271.437 135.149 269.328C135.971 268.562 136.594 267.609 136.967 266.549C137.34 265.489 137.45 264.355 137.289 263.243L136.113 255.285L133.256 241.737C133.615 237.967 132.833 235.799 131.962 234.574C132.168 233.361 132.362 232.141 132.509 230.922C133.141 225.612 132.859 220.232 131.674 215.018C131.263 213.198 130.698 211.33 129.428 209.952C127.982 208.391 125.642 207.437 125.107 205.393C125.025 204.875 124.915 204.362 124.778 203.856C124.255 202.512 122.603 202.029 121.156 201.853C118.581 201.541 114.859 201.299 112.384 202.312C110.662 203.025 108.269 204.969 107.334 207.06C106.77 207.931 106.56 208.984 106.746 210.005C106.836 210.355 106.975 210.69 107.157 211.001C106.775 212.003 106.576 213.067 106.569 214.14C106.579 215.974 107.139 217.763 108.177 219.274C109.215 220.785 110.683 221.947 112.39 222.611C112.443 222.787 112.496 222.964 112.543 223.141C112.65 223.559 112.727 223.984 112.772 224.413C112.731 225.244 112.678 226.074 112.637 226.899C112.615 227.012 112.585 227.125 112.549 227.235C110.501 228.143 108.505 229.164 106.569 230.292C107.998 232.395 106.334 241.289 106.334 241.289C102.766 243.398 99.1968 248.782 103.001 254.395C106.805 260.009 104.665 266.029 104.665 266.029L104.077 275.183L103.959 277.009H104.006L103.959 277.704H104.059V278.452C102.383 279.041 99.9434 280.301 98.4912 282.575C97.801 283.703 96.9625 284.734 95.9984 285.638C95.7626 285.829 95.5777 286.075 95.46 286.355C95.3424 286.635 95.2958 286.939 95.3243 287.241C95.3528 287.544 95.4557 287.834 95.6235 288.087C95.7914 288.339 96.0192 288.546 96.2865 288.689ZM125.007 264.374C124.864 262.792 125.157 261.2 125.854 259.773C126.412 259.773 126.977 259.773 127.535 259.773C127.594 260.168 127.659 260.545 127.741 260.887C128.223 262.972 126.295 263.956 125.007 264.374Z" fill="url(#paint0_linear)"/>
<path d="M125.477 355.094L126.395 357.845L123.431 360.825L113.589 363.116L106.493 362.427L106.952 359.906C107.086 359.364 107.368 358.87 107.765 358.478C108.163 358.086 108.66 357.812 109.203 357.685C112.143 356.996 117.681 355.435 118.851 353.256L125.477 355.094Z" fill="#DB8B8B"/>
<path opacity="0.1" d="M125.477 355.094L126.395 357.845L123.431 360.825L113.589 363.116L106.493 362.427L106.952 359.906C107.086 359.364 107.368 358.87 107.765 358.478C108.163 358.086 108.66 357.812 109.203 357.685C112.143 356.996 117.681 355.435 118.851 353.256L125.477 355.094Z" fill="black"/>
<path d="M108.768 361.744L110.144 359.906L108.768 357.786C108.768 357.786 104.653 359.447 102.818 359.217C100.984 358.987 100.073 362.203 103.506 363.116C106.94 364.029 126.395 363.116 126.395 363.116C126.395 363.116 129.828 361.514 126.395 357.155L123.431 359.447C123.431 359.447 118.393 362.203 115.876 361.744H108.768Z" fill="#2E3037"/>
<path d="M102.589 365.643L109.685 366.326L119.528 364.035L122.503 361.054L122.261 360.324L121.92 359.299L121.591 358.304L114.953 356.466C114.617 357.017 114.156 357.481 113.607 357.821C111.449 359.293 107.575 360.359 105.305 360.895L105.017 360.978C104.576 361.122 104.174 361.366 103.841 361.691C103.443 362.081 103.16 362.574 103.024 363.116L102.589 365.643Z" fill="#DB8B8B"/>
<path opacity="0.1" d="M102.589 365.642L109.685 366.326L119.528 364.034L122.503 361.054L122.261 360.323L119.528 362.426C119.528 362.426 114.495 365.183 111.973 364.723H104.882L106.252 362.886L105.017 360.977C104.576 361.122 104.174 361.365 103.841 361.69C103.443 362.08 103.16 362.573 103.024 363.115L102.589 365.642Z" fill="black"/>
<path d="M104.882 364.954L106.252 363.116L104.882 360.995C104.882 360.995 100.766 362.657 98.9261 362.427C97.0858 362.197 96.1804 365.413 99.614 366.326C103.048 367.239 122.502 366.326 122.502 366.326C122.502 366.326 125.936 364.724 122.502 360.365L119.527 362.633C119.527 362.633 114.495 365.39 111.972 364.93L104.882 364.954Z" fill="#2E3037"/>
<path d="M110.603 231.947C110.603 231.947 121.591 233.09 120.009 228.507C119.564 227.205 119.446 225.813 119.669 224.454C119.956 222.771 120.621 221.176 121.615 219.789L111.314 221.397C111.929 222.431 112.398 223.545 112.707 224.708C113.913 229.573 110.603 231.947 110.603 231.947Z" fill="#DB8B8B"/>
<path d="M129.37 284.231C129.37 284.231 129.14 294.092 126.853 298.91L126.371 312.894C126.371 312.894 127.059 325.735 128.429 328.262C129.799 330.789 125.454 352.113 125.454 352.113V355.776C125.454 355.776 118.134 358.533 116.047 355.323L118.14 328.033L117.24 290.181L129.37 284.231Z" fill="#474463"/>
<path opacity="0.1" d="M129.37 284.231C129.37 284.231 129.14 294.092 126.853 298.91L126.371 312.894C126.371 312.894 127.059 325.735 128.429 328.262C129.799 330.789 125.454 352.113 125.454 352.113V355.776C125.454 355.776 118.134 358.533 116.047 355.323L118.14 328.033L117.24 290.181L129.37 284.231Z" fill="black"/>
<path d="M133.95 252.582L135.319 256.252L136.466 264.051C136.621 265.137 136.516 266.244 136.158 267.281C135.8 268.318 135.2 269.254 134.408 270.012C131.663 272.763 128 278.5 128 278.5L123.649 265.441C123.649 265.441 128 264.752 127.312 261.771C126.624 258.791 126.853 253.283 126.853 253.283L133.95 252.582Z" fill="#FC6681"/>
<path opacity="0.05" d="M133.95 252.582L135.319 256.252L136.466 264.051C136.621 265.137 136.516 266.244 136.158 267.281C135.8 268.318 135.2 269.254 134.408 270.012C131.663 272.763 128 278.5 128 278.5L123.649 265.441C123.649 265.441 128 264.752 127.312 261.771C126.624 258.791 126.853 253.283 126.853 253.283L133.95 252.582Z" fill="black"/>
<path opacity="0.1" d="M113.607 357.821C116.547 362.451 121.109 359.823 121.92 359.299L121.591 358.304L114.953 356.466C114.617 357.017 114.155 357.481 113.607 357.821Z" fill="black"/>
<path d="M104.423 293.172C104.653 296.383 108.539 308.081 108.539 308.081L111.285 317.706C113.255 324.51 114.27 331.556 114.301 338.641C114.242 340.872 114.546 343.098 115.2 345.232C117.035 350.274 113.372 357.154 113.372 357.154C116.576 362.886 122.067 358.992 122.067 358.992V355.322C122.067 355.322 126.418 335.371 125.272 331.472C124.125 327.572 123.672 317.023 123.672 317.023V297.991C127.329 294.322 129.549 289.46 129.928 284.29C129.987 283.541 130.028 282.752 130.057 281.933C130.246 276.756 126.712 270.694 125.354 268.527C125.025 268.008 124.819 267.714 124.819 267.714L104.582 275.748H104.535V276.532V278.27L104.423 293.172Z" fill="#474463"/>
<path opacity="0.1" d="M111.291 221.397C111.905 222.431 112.374 223.545 112.684 224.708C113.802 225.136 114.994 225.334 116.19 225.291C117.386 225.247 118.561 224.963 119.645 224.454C119.932 222.771 120.598 221.176 121.591 219.789L111.291 221.397Z" fill="black"/>
<path d="M115.865 224.837C120.794 224.837 124.789 220.834 124.789 215.896C124.789 210.957 120.794 206.954 115.865 206.954C110.936 206.954 106.94 210.957 106.94 215.896C106.94 220.834 110.936 224.837 115.865 224.837Z" fill="#DB8B8B"/>
<path opacity="0.1" d="M104.423 278.27H104.517C114.118 280.243 126.165 270.223 126.165 270.223C125.843 269.676 125.564 269.105 125.33 268.515C125.001 267.997 124.795 267.702 124.795 267.702L104.582 275.748L104.529 276.55L104.423 278.27Z" fill="black"/>
<path d="M106.969 231.717C106.969 231.717 119.786 223.918 123.908 227.129L129.628 234.468C129.628 234.468 133.291 235.611 132.603 242.95L135.349 256.251L127.118 258.318C127.118 258.318 122.256 262.901 126.165 269.563C126.165 269.563 114.036 279.654 104.412 277.592L105.094 266.812C105.094 266.812 107.157 260.851 103.495 255.35C99.8317 249.848 103.265 244.57 106.699 242.503C106.711 242.467 108.316 233.779 106.969 231.717Z" fill="#FC6681"/>
<path d="M106.252 278.499C106.252 278.499 101.448 279.412 99.1555 283.082C98.4973 284.185 97.6923 285.194 96.7626 286.08C96.5534 286.271 96.3914 286.508 96.2897 286.772C96.188 287.036 96.1494 287.321 96.1768 287.603C96.2042 287.885 96.2969 288.157 96.4476 288.396C96.5983 288.636 96.8028 288.837 97.0448 288.984C98.8615 290.074 101.825 290.751 105.564 287.67C111.972 282.393 106.252 278.499 106.252 278.499Z" fill="#DB8B8B"/>
<path opacity="0.1" d="M113.348 236.071C113.348 236.071 117.928 235.612 119.069 247.54C120.209 259.468 122.044 262.219 122.044 262.219C122.044 262.219 123.19 268.41 120.445 272.079C117.699 275.749 112.431 283.542 112.431 283.542C112.431 283.542 106.71 285.15 105.564 279.419L112.66 266.118C112.66 266.118 113.807 261.535 111.061 258.325C108.316 255.115 106.252 233.78 113.348 236.071Z" fill="black"/>
<path d="M112.89 235.399C112.89 235.399 117.47 234.939 118.61 246.862C119.751 258.784 121.591 261.541 121.591 261.541C121.591 261.541 122.732 267.731 119.986 271.401C117.24 275.071 111.973 282.864 111.973 282.864C111.973 282.864 106.252 284.472 105.105 278.741L112.202 265.44C112.202 265.44 113.348 260.851 110.603 257.641C107.857 254.431 105.793 233.09 112.89 235.399Z" fill="#FC6681"/>
<path opacity="0.1" d="M109.115 243.982C109.115 243.982 108.657 251.092 110.714 254.992C112.772 258.891 112.778 263.933 110.714 266.69" fill="black"/>
<path opacity="0.1" d="M107.969 235.27C107.969 235.27 109.803 233.438 115.065 233.208C120.327 232.978 122.62 231.37 122.62 231.37" fill="black"/>
<path opacity="0.1" d="M120.703 204.333C122.091 204.504 123.684 204.981 124.184 206.295C124.316 206.791 124.422 207.295 124.501 207.802C125.019 209.805 127.271 210.748 128.658 212.273C129.887 213.622 130.422 215.454 130.822 217.233C131.961 222.344 132.234 227.611 131.627 232.813C131.18 236.618 130.269 240.365 130.01 244.182C129.752 247.999 130.222 252.022 132.309 255.232C133.203 256.611 134.385 257.824 135.02 259.355C133.709 260.422 131.898 260.575 130.21 260.634C128.251 260.697 126.291 260.697 124.331 260.634C123.293 260.677 122.261 260.463 121.327 260.009C120.665 259.588 120.123 259.004 119.751 258.313C118.628 256.398 118.34 254.101 118.387 251.875C118.434 249.648 118.787 247.445 118.828 245.224C118.828 244.011 118.757 242.727 118.064 241.737C117.493 241.076 116.848 240.483 116.141 239.97C113.695 237.797 112.854 234.303 112.772 231.028C112.69 227.753 113.225 224.466 112.948 221.197C112.843 219.919 112.361 218.382 111.108 218.134C110.713 218.113 110.32 218.061 109.932 217.981C108.921 217.592 109.021 216.167 108.756 215.124C108.433 213.946 107.44 213.051 107.157 211.867C106.499 209.092 110.021 205.782 112.331 204.798C114.642 203.815 118.222 204.027 120.703 204.333Z" fill="black"/>
<path d="M120.932 203.874C122.32 204.051 123.907 204.528 124.413 205.836C124.546 206.334 124.652 206.84 124.731 207.35C125.248 209.352 127.5 210.295 128.887 211.814C130.116 213.163 130.651 214.995 131.051 216.774C132.19 221.886 132.463 227.153 131.856 232.354C131.409 236.16 130.498 239.906 130.239 243.723C129.981 247.54 130.451 251.563 132.538 254.773C133.432 256.152 134.614 257.365 135.249 258.897C133.938 259.963 132.127 260.116 130.439 260.175C128.48 260.238 126.51 260.238 124.531 260.175C123.493 260.218 122.461 260.004 121.526 259.551C120.867 259.13 120.325 258.548 119.951 257.86C118.822 255.94 118.54 253.642 118.587 251.416C118.634 249.189 118.986 246.986 119.028 244.766C119.028 243.558 118.957 242.268 118.263 241.278C117.691 240.618 117.046 240.026 116.341 239.511C113.895 237.338 113.048 233.851 112.966 230.57C112.884 227.289 113.425 224.008 113.148 220.739C113.042 219.46 112.56 217.923 111.308 217.675C110.913 217.654 110.52 217.603 110.132 217.522C109.121 217.134 109.221 215.708 108.956 214.665C108.633 213.487 107.639 212.592 107.357 211.408C106.699 208.64 110.22 205.323 112.531 204.34C114.841 203.356 118.451 203.591 120.932 203.874Z" fill="#472727"/>
<path opacity="0.1" d="M565.089 409.956C572.882 409.956 579.2 409.086 579.2 408.012C579.2 406.939 572.882 406.068 565.089 406.068C557.296 406.068 550.979 406.939 550.979 408.012C550.979 409.086 557.296 409.956 565.089 409.956Z" fill="#6C63FF"/>
<path opacity="0.1" d="M511.034 415.452C518.827 415.452 525.145 414.582 525.145 413.508C525.145 412.435 518.827 411.564 511.034 411.564C503.241 411.564 496.924 412.435 496.924 413.508C496.924 414.582 503.241 415.452 511.034 415.452Z" fill="#6C63FF"/>
<path opacity="0.1" d="M447.367 408.019C455.16 408.019 461.477 407.148 461.477 406.075C461.477 405.001 455.16 404.131 447.367 404.131C439.574 404.131 433.256 405.001 433.256 406.075C433.256 407.148 439.574 408.019 447.367 408.019Z" fill="#6C63FF"/>
<path opacity="0.1" d="M532.67 430.519C538.21 430.519 542.701 429.902 542.701 429.141C542.701 428.38 538.21 427.763 532.67 427.763C527.131 427.763 522.64 428.38 522.64 429.141C522.64 429.902 527.131 430.519 532.67 430.519Z" fill="#6C63FF"/>
<path opacity="0.1" d="M476.569 429.135C482.109 429.135 486.6 428.518 486.6 427.756C486.6 426.995 482.109 426.378 476.569 426.378C471.03 426.378 466.539 426.995 466.539 427.756C466.539 428.518 471.03 429.135 476.569 429.135Z" fill="#6C63FF"/>
<path d="M510.734 413.066C510.734 413.066 530.524 348.071 507.636 322.036C490.515 302.562 471.084 304.889 462.365 307.31C460.112 307.911 458.017 308.996 456.224 310.489C454.432 311.982 452.984 313.848 451.982 315.957C448.942 322.53 449.489 333.21 470.972 345.668C506.936 366.526 509.188 395.148 509.188 395.148L510.734 413.066Z" fill="#6C63FF"/>
<path d="M465.475 316.516C465.475 316.516 523.816 334.776 510.746 413.066" stroke="#565987" stroke-miterlimit="10"/>
<path d="M499.552 323.072C499.552 323.072 491.515 328.491 494.072 336.62" stroke="#565987" stroke-miterlimit="10"/>
<path d="M471.325 327.878C471.325 327.878 476.24 322.872 482.214 325.634" stroke="#565987" stroke-miterlimit="10"/>
<path d="M494.419 353.066C494.419 353.066 503.039 348.684 505.267 354.173" stroke="#565987" stroke-miterlimit="10"/>
<path d="M515.726 362.209C515.726 362.209 509.259 361.691 509.135 364.795" stroke="#565987" stroke-miterlimit="10"/>
<path d="M511.534 413.585C511.534 413.585 488.357 366.343 481.99 367.38C478.968 367.869 477.575 370.85 476.94 373.86C476.159 377.731 476.6 381.75 478.204 385.358C481.484 392.903 490.303 407.258 511.534 413.585Z" fill="#6C63FF"/>
<path d="M482.161 376.346C482.161 376.346 506.489 411.688 511.193 413.243" stroke="#565987" stroke-miterlimit="10"/>
<path d="M479.921 381.864H485.6" stroke="#565987" stroke-miterlimit="10"/>
<path d="M486.723 394.795L495.625 395.178" stroke="#565987" stroke-miterlimit="10"/>
<path d="M492.138 384.451L491.174 389.099" stroke="#565987" stroke-miterlimit="10"/>
<path d="M501.604 398.588L501.434 402.811" stroke="#565987" stroke-miterlimit="10"/>
<path d="M510.846 413.585C510.846 413.585 534.023 366.343 540.39 367.38C543.418 367.869 544.811 370.85 545.44 373.86C546.221 377.731 545.78 381.75 544.176 385.358C540.866 392.903 532.047 407.258 510.846 413.585Z" fill="#6C63FF"/>
<path d="M540.22 376.346C540.22 376.346 515.891 411.688 511.193 413.243" stroke="#565987" stroke-miterlimit="10"/>
<path d="M542.453 381.864H536.774" stroke="#565987" stroke-miterlimit="10"/>
<path d="M535.651 394.795L526.75 395.178" stroke="#565987" stroke-miterlimit="10"/>
<path d="M530.236 384.451L531.201 389.099" stroke="#565987" stroke-miterlimit="10"/>
<path d="M520.771 398.588L520.941 402.811" stroke="#565987" stroke-miterlimit="10"/>
<path d="M471.049 424.617C470.417 424.101 469.958 423.404 469.732 422.62C469.629 422.226 469.664 421.809 469.832 421.439C470 421.069 470.291 420.768 470.655 420.588C471.501 420.264 472.418 420.853 473.089 421.448C473.759 422.043 474.559 422.72 475.44 422.596C474.979 422.176 474.634 421.643 474.439 421.05C474.243 420.456 474.203 419.822 474.323 419.209C474.364 418.958 474.472 418.722 474.635 418.526C475.105 418.019 475.958 418.237 476.522 418.632C478.286 419.893 478.809 422.331 478.821 424.522C478.909 423.716 478.909 422.902 478.821 422.096C478.787 421.691 478.852 421.284 479.011 420.91C479.17 420.536 479.418 420.207 479.732 419.951C480.158 419.72 480.636 419.607 481.12 419.622C481.519 419.565 481.926 419.592 482.314 419.703C482.702 419.814 483.062 420.005 483.372 420.264C484.054 420.994 483.877 422.225 483.283 423.032C482.615 423.788 481.819 424.42 480.932 424.899C480.266 425.299 479.698 425.843 479.268 426.49C479.22 426.581 479.178 426.675 479.144 426.773H474.106C472.995 426.195 471.966 425.47 471.049 424.617V424.617Z" fill="#6C63FF"/>
<path d="M559.369 405.592C558.737 405.076 558.278 404.38 558.052 403.595C557.95 403.203 557.985 402.788 558.152 402.419C558.319 402.05 558.607 401.75 558.969 401.569C559.816 401.239 560.733 401.828 561.409 402.423C562.085 403.018 562.879 403.695 563.761 403.601C563.3 403.18 562.954 402.648 562.759 402.054C562.563 401.461 562.523 400.827 562.644 400.214C562.685 399.963 562.792 399.727 562.955 399.531C563.425 399.024 564.278 399.242 564.842 399.637C566.606 400.897 567.129 403.336 567.141 405.527C567.23 404.721 567.23 403.907 567.141 403.1C567.107 402.696 567.172 402.289 567.331 401.915C567.49 401.541 567.738 401.212 568.053 400.956C568.478 400.725 568.957 400.612 569.44 400.626C569.838 400.569 570.244 400.596 570.631 400.707C571.019 400.818 571.378 401.009 571.686 401.269C572.374 401.999 572.192 403.23 571.598 404.037C570.929 404.793 570.133 405.425 569.246 405.904C568.581 406.304 568.012 406.848 567.582 407.495C567.534 407.586 567.493 407.68 567.459 407.777H562.42C561.309 407.19 560.283 406.455 559.369 405.592V405.592Z" fill="#6C63FF"/>
<path d="M529.936 424.617C529.303 424.101 528.842 423.405 528.613 422.62C528.51 422.226 528.546 421.809 528.714 421.439C528.882 421.069 529.173 420.768 529.537 420.588C530.383 420.264 531.3 420.853 531.976 421.448C532.653 422.043 533.446 422.72 534.328 422.596C533.865 422.177 533.519 421.644 533.323 421.051C533.127 420.457 533.089 419.822 533.211 419.209C533.25 418.957 533.357 418.72 533.523 418.526C533.993 418.019 534.84 418.237 535.404 418.632C537.168 419.893 537.697 422.331 537.703 424.522C537.803 423.717 537.815 422.903 537.738 422.096C537.703 421.691 537.767 421.284 537.925 420.911C538.083 420.537 538.329 420.208 538.644 419.951C539.069 419.721 539.548 419.607 540.031 419.622C540.43 419.564 540.837 419.592 541.225 419.703C541.613 419.813 541.974 420.004 542.283 420.264C542.965 420.994 542.789 422.225 542.195 423.032C541.525 423.787 540.729 424.419 539.843 424.899C539.175 425.296 538.606 425.84 538.179 426.49C538.129 426.58 538.087 426.674 538.056 426.773H533.011C531.894 426.197 530.859 425.471 529.936 424.617Z" fill="#6C63FF"/>
<path d="M446.455 386.159C446.455 386.159 444.562 388.633 447.326 392.374C450.089 396.114 452.37 399.271 451.441 401.604C451.441 401.604 447.273 394.659 443.88 394.535C440.488 394.412 442.722 390.318 446.455 386.159Z" fill="#6C63FF"/>
<path opacity="0.1" d="M446.455 386.159C446.288 386.398 446.158 386.66 446.067 386.937C442.757 390.83 440.993 394.471 444.174 394.559C447.143 394.647 450.7 399.96 451.547 401.298C451.522 401.402 451.489 401.505 451.447 401.604C451.447 401.604 447.278 394.659 443.886 394.535C440.494 394.412 442.722 390.318 446.455 386.159Z" fill="black"/>
<path d="M442.94 389.317C442.94 390.189 443.04 390.895 443.157 390.895C443.275 390.895 443.375 390.189 443.375 389.317C443.375 388.445 443.257 388.857 443.134 388.857C443.01 388.857 442.94 388.445 442.94 389.317Z" fill="#FFD037"/>
<path d="M441.734 390.359C442.499 390.771 443.163 391.025 443.222 390.919C443.28 390.813 442.71 390.388 441.946 389.97C441.182 389.552 441.481 389.858 441.423 389.97C441.364 390.082 440.97 389.941 441.734 390.359Z" fill="#FFD037"/>
<path d="M456.445 386.159C456.445 386.159 458.332 388.633 455.569 392.374C452.805 396.114 450.53 399.271 451.453 401.604C451.453 401.604 455.621 394.659 459.02 394.535C462.418 394.412 460.178 390.318 456.445 386.159Z" fill="#6C63FF"/>
<path opacity="0.1" d="M456.445 386.159C456.608 386.399 456.737 386.661 456.827 386.937C460.143 390.83 461.906 394.471 458.72 394.559C455.78 394.647 452.2 399.96 451.347 401.298C451.347 401.404 451.412 401.504 451.447 401.604C451.447 401.604 455.616 394.659 459.014 394.535C462.412 394.412 460.178 390.318 456.445 386.159Z" fill="black"/>
<path d="M459.955 389.317C459.955 390.189 459.861 390.895 459.737 390.895C459.614 390.895 459.52 390.189 459.52 389.317C459.52 388.445 459.643 388.857 459.761 388.857C459.878 388.857 459.955 388.445 459.955 389.317Z" fill="#FFD037"/>
<path d="M461.165 390.359C460.401 390.771 459.731 391.025 459.678 390.919C459.625 390.813 460.19 390.388 460.954 389.97C461.718 389.552 461.418 389.858 461.477 389.97C461.536 390.082 461.93 389.941 461.165 390.359Z" fill="#FFD037"/>
<path d="M459.355 401.28C459.355 401.28 454.063 401.115 452.476 399.978C450.888 398.841 444.345 397.486 443.951 399.312C443.557 401.138 436.002 408.378 441.975 408.425C447.949 408.472 455.839 407.494 457.432 406.522C459.025 405.55 459.355 401.28 459.355 401.28Z" fill="#A8A8A8"/>
<path opacity="0.2" d="M441.864 407.788C447.837 407.835 455.733 406.858 457.326 405.886C458.532 405.149 459.02 402.499 459.178 401.273H459.355C459.355 401.273 459.02 405.544 457.432 406.516C455.845 407.488 447.943 408.466 441.975 408.419C440.253 408.419 439.653 407.788 439.688 406.881C439.929 407.435 440.582 407.777 441.864 407.788Z" fill="black"/>
<path opacity="0.1" d="M98.3558 418.939C109.63 418.939 118.769 417.586 118.769 415.917C118.769 414.248 109.63 412.896 98.3558 412.896C87.0819 412.896 77.9426 414.248 77.9426 415.917C77.9426 417.586 87.0819 418.939 98.3558 418.939Z" fill="#6C63FF"/>
<path opacity="0.1" d="M147.784 446.065C159.058 446.065 168.197 444.712 168.197 443.043C168.197 441.374 159.058 440.021 147.784 440.021C136.51 440.021 127.371 441.374 127.371 443.043C127.371 444.712 136.51 446.065 147.784 446.065Z" fill="#6C63FF"/>
<path opacity="0.1" d="M365.849 373.877C373.314 373.877 379.366 373.2 379.366 372.363C379.366 371.527 373.314 370.85 365.849 370.85C358.384 370.85 352.333 371.527 352.333 372.363C352.333 373.2 358.384 373.877 365.849 373.877Z" fill="#6C63FF"/>
<path opacity="0.1" d="M302.664 417.431C310.129 417.431 316.181 416.753 316.181 415.917C316.181 415.081 310.129 414.403 302.664 414.403C295.199 414.403 289.147 415.081 289.147 415.917C289.147 416.753 295.199 417.431 302.664 417.431Z" fill="#6C63FF"/>
<path opacity="0.1" d="M274.178 444.556C281.643 444.556 287.695 443.878 287.695 443.042C287.695 442.206 281.643 441.528 274.178 441.528C266.713 441.528 260.662 442.206 260.662 443.042C260.662 443.878 266.713 444.556 274.178 444.556Z" fill="#6C63FF"/>
<defs>
<linearGradient id="paint0_linear" x1="116.359" y1="368.045" x2="116.359" y2="201.558" gradientUnits="userSpaceOnUse">
<stop stop-color="#808080" stop-opacity="0.25"/>
<stop offset="0.54" stop-color="#808080" stop-opacity="0.12"/>
<stop offset="1" stop-color="#808080" stop-opacity="0.1"/>
</linearGradient>
</defs>
</svg>
