<svg width="166" height="129" viewBox="0 0 166 129" fill="none" xmlns="http://www.w3.org/2000/svg">
<path d="M78.454 120.721C45.1737 120.721 18.1946 93.8333 18.1946 60.6662C18.1946 27.4991 45.1737 0.611816 78.454 0.611816C111.734 0.611816 138.713 27.4991 138.713 60.6662C138.713 93.8333 111.734 120.721 78.454 120.721Z" fill="#F2F2F2"/>
<path d="M18.5179 120.882C18.5179 123.371 51.5003 128.61 92.1862 128.61C132.872 128.61 165.854 123.371 165.854 120.882C165.854 118.392 132.872 119.594 92.1862 119.594C51.5003 119.594 18.5179 118.392 18.5179 120.882Z" fill="#3F3D56"/>
<path opacity="0.1" d="M18.5179 120.882C18.5179 123.371 51.5003 128.61 92.1862 128.61C132.872 128.61 165.854 123.371 165.854 120.882C165.854 118.392 132.872 119.594 92.1862 119.594C51.5003 119.594 18.5179 118.392 18.5179 120.882Z" fill="black"/>
<path d="M92.1862 125.39C51.5003 125.39 18.5179 123.371 18.5179 120.882C18.5179 118.392 51.5003 116.374 92.1862 116.374C132.872 116.374 165.854 118.392 165.854 120.882C165.854 123.371 132.872 125.39 92.1862 125.39Z" fill="#3F3D56"/>
<path opacity="0.1" d="M91.7014 122.009C75.2843 122.009 61.9756 120.783 61.9756 119.272C61.9756 117.76 75.2843 116.535 91.7014 116.535C108.119 116.535 121.427 117.76 121.427 119.272C121.427 120.783 108.119 122.009 91.7014 122.009Z" fill="black"/>
<path d="M46.4666 99.615C46.4666 109.791 40.0608 118.025 32.1446 118.025Z" fill="#3F3D56"/>
<path d="M32.1445 118.025C32.1445 107.735 24.9961 99.4082 16.162 99.4082Z" fill="#6C63FF"/>
<path d="M41.2773 100.538C41.2773 110.204 37.1925 118.026 32.1445 118.026Z" fill="#6C63FF"/>
<path d="M32.1445 118.025C32.1445 104.876 23.8821 94.2366 13.6712 94.2366Z" fill="#3F3D56"/>
<path d="M35.1575 118.155C35.1575 118.155 33.1264 118.093 32.5142 117.659C31.9021 117.224 29.3899 116.705 29.2381 117.402C29.0862 118.099 26.1857 120.867 28.4788 120.886C30.7719 120.904 33.8069 120.53 34.4179 120.159C35.0288 119.788 35.1575 118.155 35.1575 118.155Z" fill="#A8A8A8"/>
<path opacity="0.2" d="M28.4378 120.643C30.731 120.661 33.766 120.287 34.377 119.916C34.8422 119.634 35.0276 118.62 35.0897 118.153C35.1326 118.154 35.1575 118.155 35.1575 118.155C35.1575 118.155 35.0288 119.788 34.4179 120.159C33.8069 120.53 30.7719 120.904 28.4788 120.885C27.8168 120.88 27.5882 120.645 27.6008 120.298C27.6927 120.508 27.9452 120.639 28.4378 120.643Z" fill="black"/>
<path d="M71.9919 99.146H108.503V120.398H71.9919V99.146Z" fill="#3F3D56"/>
<path d="M64.4121 99.3275H91.3301C92.2129 99.3275 93.0594 98.978 93.6836 98.356C94.3078 97.7339 94.6584 96.8902 94.6584 96.0105V83.7199C94.6584 83.5414 94.622 83.3648 94.5512 83.2009C94.4805 83.0369 94.377 82.889 94.247 82.7662L79.9831 69.2912C79.4128 68.7524 78.6569 68.4521 77.8711 68.4521C77.0853 68.4521 76.3294 68.7524 75.7591 69.2912L62.1592 82.1389C61.8195 82.4599 61.5489 82.8464 61.364 83.275C61.1791 83.7036 61.0838 84.1652 61.0838 84.6317V96.0105C61.0838 96.8902 61.4344 97.7339 62.0586 98.356C62.6828 98.978 63.5293 99.3275 64.4121 99.3275V99.3275Z" fill="#2F2E41"/>
<path opacity="0.1" d="M94.6587 83.9219H61.3637V94.7016C61.3637 95.9285 61.8528 97.1052 62.7233 97.9727C63.5938 98.8402 64.7745 99.3276 66.0055 99.3276H90.0169C90.6265 99.3276 91.2301 99.208 91.7932 98.9755C92.3564 98.743 92.8681 98.4023 93.2991 97.9727C93.7302 97.5431 94.0721 97.0332 94.3054 96.4719C94.5386 95.9107 94.6587 95.3091 94.6587 94.7016V83.9219Z" fill="black"/>
<path d="M67.3568 73.3608H88.4556C89.467 73.3608 90.2869 74.178 90.2869 75.1859V96.2129C90.2869 97.2208 89.467 98.038 88.4556 98.038H67.3568C66.3454 98.038 65.5255 97.2208 65.5255 96.2129V75.1859C65.5255 74.178 66.3454 73.3608 67.3568 73.3608Z" fill="#6C63FF"/>
<path opacity="0.1" d="M65.5256 84.4758V98.0378H90.2869V84.4758L77.9062 90.4396L65.5256 84.4758Z" fill="black"/>
<path d="M77.9062 91.2062L93.7699 83.5649C93.868 83.5176 93.9765 83.496 94.0854 83.5019C94.1942 83.5079 94.2997 83.5413 94.392 83.5991C94.4843 83.6568 94.5604 83.7369 94.6132 83.832C94.6659 83.927 94.6936 84.0338 94.6936 84.1424V97.2896C94.6936 97.5526 94.6416 97.8131 94.5406 98.0561C94.4396 98.2991 94.2916 98.5199 94.105 98.7059C93.9183 98.8919 93.6968 99.0394 93.453 99.1401C93.2091 99.2407 92.9478 99.2925 92.6839 99.2925H63.1286C62.5956 99.2925 62.0844 99.0815 61.7075 98.7059C61.3306 98.3303 61.1189 97.8208 61.1189 97.2896V84.3677C61.1189 84.2351 61.1527 84.1048 61.217 83.9888C61.2814 83.8728 61.3743 83.775 61.4869 83.7046C61.5996 83.6342 61.7283 83.5934 61.8611 83.5861C61.9939 83.5788 62.1264 83.6052 62.2461 83.6629L77.9062 91.2062Z" fill="#2F2E41"/>
<path d="M81.2288 75.6265H88.1536V76.6024H81.2288V75.6265Z" fill="#F2F2F2"/>
<path d="M68.1484 79.1814H88.7129V79.7391H68.1484V79.1814Z" fill="#F2F2F2"/>
<path d="M68.1484 81.0635H88.7129V81.6212H68.1484V81.0635Z" fill="#F2F2F2"/>
<path d="M68.1484 82.9458H88.7129V83.5035H68.1484V82.9458Z" fill="#F2F2F2"/>
<path d="M89.2725 76.6128C87.6887 76.6128 86.4047 75.3308 86.4047 73.7495C86.4047 72.1682 87.6887 70.8862 89.2725 70.8862C90.8564 70.8862 92.1404 72.1682 92.1404 73.7495C92.1404 75.3308 90.8564 76.6128 89.2725 76.6128Z" fill="white"/>
<path d="M89.2725 70.3979C89.9504 70.3979 90.6131 70.5983 91.1767 70.9736C91.7403 71.3489 92.1796 71.8824 92.4391 72.5066C92.6985 73.1307 92.7663 73.8175 92.6341 74.4801C92.5018 75.1427 92.1754 75.7513 91.6961 76.229C91.2167 76.7067 90.606 77.032 89.9412 77.1638C89.2763 77.2956 88.5872 77.228 87.9609 76.9694C87.3346 76.7109 86.7994 76.2731 86.4227 75.7114C86.0461 75.1497 85.8451 74.4893 85.8451 73.8137C85.8478 72.9086 86.2097 72.0413 86.8519 71.4013C87.4941 70.7613 88.3644 70.4006 89.2725 70.3979V70.3979ZM89.9761 75.6349L91.7327 73.8843L91.24 73.3933L89.9745 74.6545L87.3034 71.9925L86.8107 72.4835L89.9761 75.6349V75.6349Z" fill="#57B894"/>
<path d="M0.484818 18.4845H74.7993V49.3972H0.484818V18.4845Z" fill="#3F3D56"/>
<path d="M44.7777 42.313H53.1784C53.7517 39.0102 53.7517 35.6337 53.1784 32.3308H44.7777C45.7241 35.5914 45.7241 39.0525 44.7777 42.313V42.313Z" fill="#FF6584"/>
<path d="M21.2992 42.313H29.6999C30.2732 39.0102 30.2732 35.6337 29.6999 32.3308H21.2992C22.2456 35.5914 22.2456 39.0525 21.2992 42.313V42.313Z" fill="#FF6584"/>
<path d="M56.7054 35.5511H65.1062C65.6795 32.2482 65.6795 28.8717 65.1062 25.5688H56.7054C57.6518 28.8294 57.6518 32.2905 56.7054 35.5511V35.5511Z" fill="#FF6584"/>
<path d="M41.6809 35.5511H33.2802C32.7069 32.2482 32.7069 28.8717 33.2802 25.5688H41.6809C40.7345 28.8294 40.7345 32.2905 41.6809 35.5511Z" fill="#FF6584"/>
<path d="M18.5789 35.5511H10.1781C9.60477 32.2482 9.60477 28.8717 10.1781 25.5688H18.5789C17.6324 28.8294 17.6324 32.2905 18.5789 35.5511V35.5511Z" fill="#FF6584"/>
<path d="M124.839 26.6832C125.082 26.6634 125.325 26.7174 125.536 26.8382C125.736 27.0083 125.896 27.2197 126.007 27.4578C126.516 28.3495 127.206 29.126 128.032 29.7382C128.634 30.1777 129.4 30.7256 129.297 31.5358C129.242 31.8034 129.143 32.06 129.003 32.2947C128.448 33.4118 126.933 34.2751 127.082 35.5498C126.53 34.6293 127.268 34.1742 126.716 33.2538C126.453 32.8154 125.997 32.3206 125.6 32.5959C125.468 32.6881 125.38 32.8534 125.242 32.9343C124.912 33.1272 124.561 32.7583 124.269 32.497C123.262 31.5959 121.829 31.832 120.576 32.1127C119.984 32.2453 119.334 32.4192 118.985 32.9828C118.525 33.7238 119.421 34.5242 119.648 35.362C119.667 35.4334 119.667 35.5081 119.651 35.5799C119.634 35.6517 119.6 35.7184 119.551 35.7743C119.503 35.8301 119.442 35.8734 119.373 35.9006C119.304 35.9277 119.23 35.9379 119.156 35.9301C118.78 35.8931 118.335 35.8628 118.313 35.6984C117.839 35.7152 117.26 35.6618 117.057 35.1707C116.995 34.9765 116.962 34.7741 116.96 34.5703C116.885 33.7455 116.534 32.993 116.301 32.208C116.069 31.4229 115.967 30.5029 116.36 29.8069C116.5 29.5753 116.674 29.3654 116.875 29.1837C119.103 27.0345 122.033 26.68 124.839 26.6832Z" fill="#2F2E41"/>
<path d="M126.597 37.1596C126.597 37.1596 126.112 41.1847 127.889 41.5067C129.666 41.8287 126.274 47.3028 126.274 47.3028L118.196 48.2688L120.135 41.8287C120.135 41.8287 121.427 41.3457 120.619 38.1256C119.812 34.9055 126.597 37.1596 126.597 37.1596Z" fill="#A0616A"/>
<path d="M131.524 106.311L130.878 115.166H127.486L128.455 106.311H131.524Z" fill="#A0616A"/>
<path d="M106.645 89.5664L106.161 96.9726L102.445 95.3625L103.899 89.2444L106.645 89.5664Z" fill="#A0616A"/>
<path d="M133.948 72.4999C133.948 72.4999 133.786 81.8381 132.817 84.8971C131.848 87.9562 132.009 88.1172 132.171 88.6002C132.332 89.0832 132.494 88.7612 132.494 89.5663C132.494 90.3713 132.817 103.091 132.494 104.218C132.171 105.345 133.463 107.277 132.494 107.438C131.524 107.599 127.001 107.438 126.839 106.472C126.678 105.506 128.132 105.184 127.486 104.54C126.839 103.896 125.87 90.6933 125.87 90.6933L123.608 81.5161L119.408 76.686H110.523L107.776 87.3122C107.776 87.3122 108.907 90.3713 108.099 90.3713C107.291 90.3713 102.445 91.3373 102.445 87.7952C102.445 84.2531 104.06 73.7879 104.384 73.4659C104.707 73.1439 104.222 72.0169 104.707 71.5339C105.191 71.0508 110.846 67.6698 112.946 67.0258C115.046 66.3817 117.992 65.6152 117.992 65.6152L133.948 72.4999Z" fill="#2F2E41"/>
<path d="M102.445 94.0746C102.445 94.0746 104.868 93.2696 105.999 95.6846C107.13 98.0997 106.645 98.7437 106.645 98.7437C106.645 98.7437 102.929 100.032 102.283 99.3877C102.002 99.1075 101.109 99.0102 100.19 98.9896C98.7906 98.9583 98.4182 96.9849 99.7401 96.5254C99.7795 96.5117 99.8194 96.4998 99.8598 96.4897C101.152 96.1677 102.445 94.0746 102.445 94.0746Z" fill="#2F2E41"/>
<path d="M122.962 39.8165C120.285 39.8165 118.115 37.654 118.115 34.9864C118.115 32.3188 120.285 30.1562 122.962 30.1562C125.639 30.1562 127.809 32.3188 127.809 34.9864C127.809 37.654 125.639 39.8165 122.962 39.8165Z" fill="#A0616A"/>
<path d="M129.263 43.5193C129.263 43.5193 121.347 45.1293 119.408 42.5533C117.469 39.9772 116.662 49.7984 116.662 49.7984L115.692 60.1026L117.146 65.7378C117.146 65.7378 124.739 71.8559 127.162 72.3389C129.586 72.8219 133.302 73.1439 133.302 73.1439C133.302 73.1439 132.171 55.2725 132.171 54.9505C132.171 54.6285 129.263 43.5193 129.263 43.5193Z" fill="#6C63FF"/>
<path d="M126.855 40.4999C126.855 40.4999 128.617 39.4943 129.101 40.4604C129.586 41.4264 134.109 43.8414 134.594 43.8414C135.079 43.8414 133.625 57.2047 134.271 58.8148C134.917 60.4248 137.987 72.178 136.21 73.1441C134.432 74.1101 135.725 72.1781 133.948 74.5931C132.171 77.0082 123.447 77.0082 122.962 76.0421C122.478 75.0761 126.839 67.831 126.032 61.0688C125.224 54.3067 123.931 44.9685 125.062 43.6804C126.193 42.3924 126.855 40.4999 126.855 40.4999Z" fill="#575A89"/>
<path d="M121.023 41.5872L120.798 40.8154C120.798 40.8154 114.077 43.0362 113.754 44.4853C113.43 45.9343 113.592 56.0775 114.723 56.8825C115.854 57.6876 117.469 58.9756 116.338 60.9076C115.208 62.8397 113.915 64.9327 112.946 65.0937C111.976 65.2547 110.199 66.3818 110.684 67.5088C111.169 68.6358 116.985 66.5428 116.985 66.5428C116.985 66.5428 120.862 63.6447 120.7 59.1366C120.539 54.6285 121.023 41.5872 121.023 41.5872Z" fill="#575A89"/>
<path d="M115.369 60.5859L119.246 67.8311C119.246 67.8311 124.901 73.6272 121.67 74.2712C118.438 74.9153 116.661 68.9581 116.661 68.9581L112.461 63.001L115.369 60.5859Z" fill="#A0616A"/>
<path d="M124.603 27.9468C124.799 27.9324 124.994 27.9702 125.17 28.0564C125.329 28.1721 125.46 28.3217 125.553 28.4943C125.984 29.1403 126.546 29.6893 127.203 30.1061C127.693 30.4167 128.315 30.804 128.232 31.3767C128.186 31.5687 128.105 31.7505 127.993 31.913C127.539 32.7105 127.359 33.6336 127.478 34.5426L126.131 32.5909C125.917 32.2811 125.546 31.9313 125.223 32.1259C125.115 32.191 125.044 32.3079 124.931 32.365C124.662 32.5014 124.377 32.2407 124.139 32.056C123.319 31.4191 122.153 31.586 121.133 31.7844C120.651 31.8781 120.122 32.001 119.837 32.3993C119.364 33.0613 119.858 34.0179 119.582 34.7827C119.505 34.7287 119.439 34.6599 119.389 34.5802C119.339 34.5005 119.305 34.4116 119.29 34.3187C118.905 34.3306 118.433 34.2928 118.268 33.9458C118.218 33.8098 118.191 33.6663 118.189 33.5214C118.128 32.9384 117.842 32.4065 117.653 31.8517C117.464 31.2968 117.381 30.6466 117.701 30.1547C117.818 29.988 117.959 29.8395 118.12 29.7142C119.934 28.1951 122.319 27.9446 124.603 27.9468Z" fill="#2F2E41"/>
<path d="M115.369 43.8413L113.864 44.2395C113.864 44.2395 110.361 53.1795 111.169 59.2976C111.976 65.4158 112.461 64.1278 112.461 64.1278C112.461 64.1278 113.753 61.2297 116.661 61.8737L115.369 43.8413Z" fill="#575A89"/>
<path d="M131.301 113.996C131.69 114.523 131.612 115.277 131.957 115.835C132.256 116.318 132.82 116.572 133.194 117C133.314 117.142 133.42 117.295 133.512 117.456C133.859 118.035 134.141 118.778 133.8 119.36C133.525 119.829 132.947 120.012 132.416 120.137C131.746 120.295 131.05 120.421 130.373 120.3C129.695 120.18 129.032 119.766 128.791 119.124C128.743 118.962 128.687 118.803 128.622 118.648C128.254 117.927 127.102 117.92 126.726 117.203C126.463 116.702 126.705 116.096 126.947 115.584L127.685 114.021C127.93 113.502 128.923 113.8 129.441 113.676C130.117 113.514 130.815 113.335 131.301 113.996Z" fill="#2F2E41"/>
<path d="M128.018 77.7464L125.154 81.6338L113.982 75.8816L113.338 75.5512L127.296 74.6528L128.018 77.7464Z" fill="#6C63FF"/>
<path opacity="0.2" d="M127.863 77.957L125.154 81.6335L113.982 75.8813L127.863 77.957Z" fill="black"/>
<path d="M128.906 82.28L128.388 78.9087L113.282 75.5542L128.906 82.28Z" fill="#6C63FF"/>
<path d="M136.694 63.8057L129.909 74.271C129.909 74.271 125.708 79.5841 124.416 77.169C123.124 74.754 128.94 70.7289 128.94 70.7289L133.301 62.6787L136.694 63.8057Z" fill="#A0616A"/>
<path d="M133.302 44.1633L134.594 43.8413C134.594 43.8413 137.179 44.6463 137.825 48.0274C138.471 51.4085 137.987 64.9328 137.179 65.0938C136.371 65.2548 133.189 62.7389 132.68 63.2723C132.171 63.8058 133.786 61.0687 133.302 59.6197C132.817 58.1706 133.302 44.1633 133.302 44.1633Z" fill="#575A89"/>
</svg>
