<svg width="634" height="458" viewBox="0 0 634 458" fill="none" xmlns="http://www.w3.org/2000/svg">
<path d="M553.233 157.736C530.297 140.579 494.375 124.352 454.676 113.218C418.53 103.08 383.275 98.1858 355.397 99.4358L355.252 96.1916C383.462 94.9274 419.083 99.8631 455.552 110.091C495.621 121.329 531.933 137.747 555.176 155.135L553.233 157.736Z" fill="#CCCCCC"/>
<path d="M550.852 170.951C550.872 186.152 547.688 201.187 541.506 215.072C540.99 216.235 540.452 217.387 539.893 218.528C529.141 240.564 511.244 258.305 489.121 268.857C466.999 279.408 441.956 282.147 418.078 276.628C394.2 271.108 372.895 257.656 357.639 238.464C342.383 219.272 334.076 195.474 334.072 170.951C334.072 168.441 334.158 165.95 334.329 163.479C334.41 162.223 334.515 160.973 334.643 159.732C337.518 132.088 350.888 106.602 371.994 88.5352C393.1 70.468 420.332 61.1975 448.07 62.6369C475.808 64.0763 501.936 76.1156 521.061 96.2706C540.187 116.425 550.851 143.158 550.852 170.951V170.951Z" fill="#6C63FF"/>
<path opacity="0.1" d="M541.506 215.072C540.99 216.235 540.452 217.387 539.893 218.528C536.725 218.872 533.391 219.122 529.891 219.278C526.993 219.408 524.011 219.473 520.963 219.473C494.346 219.473 462.313 214.556 429.588 205.379C393.118 195.15 360.125 180.843 336.681 165.09C335.883 164.554 335.099 164.017 334.328 163.479C334.41 162.223 334.514 160.973 334.643 159.732C335.886 160.618 337.168 161.506 338.489 162.395C361.656 177.959 394.319 192.114 430.464 202.252C462.903 211.351 494.635 216.225 520.947 216.225C523.955 216.225 526.888 216.161 529.745 216.034C533.905 215.845 537.826 215.525 541.506 215.072Z" fill="black"/>
<path d="M520.964 216.875C494.347 216.876 462.312 211.959 429.589 202.781C393.12 192.553 360.124 178.245 336.681 162.493C312.748 146.412 301.525 130.566 305.08 117.875C308.635 105.184 326.453 97.4831 355.252 96.1917L355.397 99.4358C341.948 100.039 330.988 102.039 322.821 105.381C314.674 108.714 309.756 113.213 308.205 118.751C306.654 124.29 308.518 130.69 313.747 137.776C318.989 144.878 327.313 152.287 338.49 159.797C361.655 175.362 394.319 189.517 430.465 199.655C462.905 208.753 494.634 213.628 520.948 213.629C523.955 213.629 526.887 213.565 529.744 213.437C543.193 212.834 554.153 210.834 562.32 207.492C570.467 204.158 575.385 199.66 576.936 194.121C579.722 184.177 571.304 171.255 553.233 157.736L555.176 155.135C564.475 162.092 571.359 168.949 575.636 175.516C580.221 182.556 581.71 189.111 580.061 194.998C576.506 207.689 558.688 215.389 529.889 216.681C526.992 216.811 524.011 216.875 520.964 216.875Z" fill="#CCCCCC"/>
<path d="M445.329 42.9303C446.015 42.9303 446.571 42.3738 446.571 41.6874C446.571 41.001 446.015 40.4446 445.329 40.4446C444.643 40.4446 444.087 41.001 444.087 41.6874C444.087 42.3738 444.643 42.9303 445.329 42.9303Z" fill="#F2F2F2"/>
<path d="M280.552 96.8615C281.732 96.8615 282.689 95.9042 282.689 94.7233C282.689 93.5425 281.732 92.5852 280.552 92.5852C279.372 92.5852 278.415 93.5425 278.415 94.7233C278.415 95.9042 279.372 96.8615 280.552 96.8615Z" fill="#CCCCCC"/>
<path d="M275.998 182.632C278.329 182.632 280.219 180.741 280.219 178.408C280.219 176.075 278.329 174.184 275.998 174.184C273.666 174.184 271.777 176.075 271.777 178.408C271.777 180.741 273.666 182.632 275.998 182.632Z" fill="#CCCCCC"/>
<path d="M529.374 51.9597C530.928 51.9597 532.187 50.6994 532.187 49.1447C532.187 47.5899 530.928 46.3296 529.374 46.3296C527.82 46.3296 526.561 47.5899 526.561 49.1447C526.561 50.6994 527.82 51.9597 529.374 51.9597Z" fill="#CCCCCC"/>
<path d="M629.151 170.55C631.674 170.55 633.719 168.504 633.719 165.98C633.719 163.456 631.674 161.409 629.151 161.409C626.629 161.409 624.584 163.456 624.584 165.98C624.584 168.504 626.629 170.55 629.151 170.55Z" fill="#CCCCCC"/>
<path d="M593.435 94.9413C594.517 94.9413 595.395 94.0633 595.395 92.9803C595.395 91.8973 594.517 91.0193 593.435 91.0193C592.352 91.0193 591.475 91.8973 591.475 92.9803C591.475 94.0633 592.352 94.9413 593.435 94.9413Z" fill="#CCCCCC"/>
<path d="M355.488 70.8464C357.177 70.8464 358.545 69.4768 358.545 67.7872C358.545 66.0977 357.177 64.728 355.488 64.728C353.8 64.728 352.431 66.0977 352.431 67.7872C352.431 69.4768 353.8 70.8464 355.488 70.8464Z" fill="#CCCCCC"/>
<path d="M586.576 158.673C587.658 158.673 588.535 157.795 588.535 156.712C588.535 155.629 587.658 154.751 586.576 154.751C585.493 154.751 584.616 155.629 584.616 156.712C584.616 157.795 585.493 158.673 586.576 158.673Z" fill="#CCCCCC"/>
<path d="M285.934 240.506C287.281 240.506 288.373 239.413 288.373 238.065C288.373 236.717 287.281 235.624 285.934 235.624C284.587 235.624 283.495 236.717 283.495 238.065C283.495 239.413 284.587 240.506 285.934 240.506Z" fill="#CCCCCC"/>
<path d="M335.202 274.679C336.661 274.679 337.843 273.496 337.843 272.036C337.843 270.576 336.661 269.393 335.202 269.393C333.743 269.393 332.56 270.576 332.56 272.036C332.56 273.496 333.743 274.679 335.202 274.679Z" fill="#CCCCCC"/>
<path d="M411.989 5.90178H406.776V0.685791H403.98V5.90178H398.765V8.70248H403.98V13.9185H406.776V8.70248H411.989V5.90178Z" fill="#CCCCCC"/>
<path d="M532.904 288.135H529.63V284.86H527.875V288.135H524.602V289.893H527.875V293.167H529.63V289.893H532.904V288.135Z" fill="#CCCCCC"/>
<path d="M608.449 271.371H606.003V268.923H604.689V271.371H602.242V272.686H604.689V275.134H606.003V272.686H608.449V271.371Z" fill="#CCCCCC"/>
<path opacity="0.1" d="M444.087 95.1376C449.117 95.1376 453.195 91.057 453.195 86.0234C453.195 80.9897 449.117 76.9092 444.087 76.9092C439.057 76.9092 434.979 80.9897 434.979 86.0234C434.979 91.057 439.057 95.1376 444.087 95.1376Z" fill="black"/>
<path opacity="0.1" d="M374.119 161.837C379.149 161.837 383.227 157.756 383.227 152.723C383.227 147.689 379.149 143.609 374.119 143.609C369.088 143.609 365.01 147.689 365.01 152.723C365.01 157.756 369.088 161.837 374.119 161.837Z" fill="black"/>
<path opacity="0.1" d="M474.724 253.393C479.755 253.393 483.833 249.313 483.833 244.279C483.833 239.246 479.755 235.165 474.724 235.165C469.694 235.165 465.616 239.246 465.616 244.279C465.616 249.313 469.694 253.393 474.724 253.393Z" fill="black"/>
<path opacity="0.1" d="M444.087 175.922C449.117 175.922 453.195 171.842 453.195 166.808C453.195 161.775 449.117 157.694 444.087 157.694C439.057 157.694 434.979 161.775 434.979 166.808C434.979 171.842 439.057 175.922 444.087 175.922Z" fill="black"/>
<path opacity="0.1" d="M378.673 226.051C383.703 226.051 387.781 221.97 387.781 216.936C387.781 211.903 383.703 207.822 378.673 207.822C373.643 207.822 369.565 211.903 369.565 216.936C369.565 221.97 373.643 226.051 378.673 226.051Z" fill="black"/>
<path opacity="0.1" d="M492.941 127.037C497.971 127.037 502.049 122.957 502.049 117.923C502.049 112.889 497.971 108.809 492.941 108.809C487.91 108.809 483.833 112.889 483.833 117.923C483.833 122.957 487.91 127.037 492.941 127.037Z" fill="black"/>
<path opacity="0.1" d="M523.164 188.765C528.194 188.765 532.272 184.685 532.272 179.651C532.272 174.617 528.194 170.537 523.164 170.537C518.134 170.537 514.056 174.617 514.056 179.651C514.056 184.685 518.134 188.765 523.164 188.765Z" fill="black"/>
<path d="M444.087 139.052C450.718 139.052 456.094 133.673 456.094 127.037C456.094 120.402 450.718 115.023 444.087 115.023C437.456 115.023 432.081 120.402 432.081 127.037C432.081 133.673 437.456 139.052 444.087 139.052Z" fill="white"/>
<path d="M444.087 109.637C439.585 109.637 435.268 111.427 432.084 114.612C428.901 117.798 427.113 122.118 427.113 126.623C427.113 136.004 444.087 166.808 444.087 166.808C444.087 166.808 461.062 136.004 461.062 126.623C461.062 122.118 459.273 117.798 456.09 114.612C452.907 111.427 448.589 109.637 444.087 109.637ZM444.087 134.909C442.531 134.909 441.011 134.447 439.717 133.582C438.423 132.717 437.415 131.488 436.82 130.049C436.224 128.611 436.069 127.029 436.372 125.502C436.676 123.975 437.425 122.572 438.525 121.471C439.625 120.371 441.027 119.621 442.553 119.317C444.079 119.013 445.66 119.169 447.098 119.765C448.535 120.361 449.764 121.37 450.628 122.664C451.492 123.959 451.954 125.48 451.954 127.037C451.954 128.071 451.75 129.095 451.355 130.05C450.96 131.005 450.38 131.872 449.65 132.603C448.919 133.334 448.052 133.914 447.098 134.309C446.143 134.705 445.12 134.909 444.087 134.909V134.909Z" fill="#CCCCCC"/>
<path d="M378.673 190.422C385.304 190.422 390.679 185.043 390.679 178.408C390.679 171.773 385.304 166.394 378.673 166.394C372.042 166.394 366.667 171.773 366.667 178.408C366.667 185.043 372.042 190.422 378.673 190.422Z" fill="white"/>
<path d="M378.673 161.009C374.171 161.009 369.854 162.798 366.67 165.983C363.487 169.169 361.698 173.489 361.698 177.994C361.698 187.375 378.673 218.179 378.673 218.179C378.673 218.179 395.648 187.375 395.648 177.994C395.648 175.764 395.209 173.555 394.356 171.494C393.502 169.433 392.252 167.561 390.676 165.983C389.1 164.406 387.228 163.155 385.169 162.301C383.11 161.448 380.902 161.009 378.673 161.009ZM378.673 186.28C377.117 186.28 375.596 185.818 374.303 184.953C373.009 184.088 372.001 182.859 371.406 181.421C370.81 179.982 370.654 178.4 370.958 176.873C371.261 175.346 372.011 173.943 373.111 172.842C374.211 171.742 375.613 170.992 377.138 170.688C378.664 170.385 380.246 170.54 381.683 171.136C383.121 171.732 384.349 172.741 385.214 174.035C386.078 175.33 386.539 176.852 386.539 178.408C386.539 179.442 386.336 180.466 385.941 181.421C385.545 182.376 384.966 183.243 384.235 183.974C383.505 184.705 382.638 185.285 381.683 185.681C380.729 186.076 379.706 186.28 378.673 186.28V186.28Z" fill="#CCCCCC"/>
<path d="M523.164 153.137C529.795 153.137 535.17 147.758 535.17 141.123C535.17 134.488 529.795 129.109 523.164 129.109C516.533 129.109 511.157 134.488 511.157 141.123C511.157 147.758 516.533 153.137 523.164 153.137Z" fill="white"/>
<path d="M523.164 123.723C520.935 123.723 518.728 124.162 516.668 125.016C514.609 125.869 512.737 127.121 511.161 128.698C509.585 130.275 508.335 132.148 507.482 134.208C506.629 136.269 506.189 138.478 506.189 140.708C506.189 150.089 523.164 180.894 523.164 180.894C523.164 180.894 540.139 150.089 540.139 140.708C540.139 138.478 539.699 136.269 538.846 134.208C537.993 132.148 536.743 130.275 535.167 128.698C533.591 127.121 531.719 125.869 529.66 125.016C527.6 124.162 525.393 123.723 523.164 123.723ZM523.164 148.994C521.608 148.994 520.087 148.532 518.794 147.668C517.5 146.803 516.492 145.573 515.897 144.135C515.301 142.697 515.145 141.114 515.449 139.587C515.752 138.06 516.502 136.658 517.602 135.557C518.702 134.456 520.104 133.706 521.629 133.403C523.155 133.099 524.737 133.255 526.174 133.851C527.612 134.446 528.84 135.455 529.705 136.75C530.569 138.044 531.03 139.566 531.03 141.123C531.03 142.156 530.827 143.18 530.432 144.135C530.036 145.09 529.457 145.958 528.726 146.689C527.996 147.42 527.129 147.999 526.174 148.395C525.22 148.791 524.197 148.994 523.164 148.994V148.994Z" fill="#CCCCCC"/>
<path d="M444.087 58.2667C450.718 58.2667 456.094 52.8877 456.094 46.2525C456.094 39.6172 450.718 34.2383 444.087 34.2383C437.456 34.2383 432.081 39.6172 432.081 46.2525C432.081 52.8877 437.456 58.2667 444.087 58.2667Z" fill="white"/>
<path d="M444.087 28.8525C439.585 28.8525 435.268 30.6421 432.084 33.8275C428.901 37.0129 427.113 41.3332 427.113 45.8381C427.113 55.2189 444.087 86.0234 444.087 86.0234C444.087 86.0234 461.062 55.2189 461.062 45.8381C461.062 41.3332 459.273 37.0129 456.09 33.8275C452.907 30.6421 448.589 28.8525 444.087 28.8525V28.8525ZM444.087 54.1237C442.531 54.1237 441.011 53.6621 439.717 52.7972C438.423 51.9322 437.415 50.7029 436.82 49.2646C436.224 47.8263 436.069 46.2436 436.372 44.7167C436.676 43.1898 437.425 41.7873 438.525 40.6864C439.625 39.5856 441.027 38.8359 442.553 38.5322C444.079 38.2285 445.66 38.3844 447.098 38.9802C448.535 39.5759 449.764 40.5848 450.628 41.8793C451.492 43.1737 451.954 44.6955 451.954 46.2524C451.954 47.286 451.75 48.3096 451.355 49.2646C450.96 50.2196 450.38 51.0873 449.65 51.8183C448.919 52.5492 448.052 53.129 447.098 53.5246C446.143 53.9201 445.12 54.1237 444.087 54.1237V54.1237Z" fill="#CCCCCC"/>
<path d="M474.724 217.765C481.355 217.765 486.731 212.386 486.731 205.751C486.731 199.115 481.355 193.737 474.724 193.737C468.093 193.737 462.718 199.115 462.718 205.751C462.718 212.386 468.093 217.765 474.724 217.765Z" fill="white"/>
<path d="M474.724 188.351C470.222 188.351 465.905 190.141 462.721 193.326C459.538 196.511 457.75 200.832 457.75 205.337C457.75 214.717 474.724 245.522 474.724 245.522C474.724 245.522 491.699 214.717 491.699 205.337C491.699 203.106 491.26 200.897 490.407 198.837C489.554 196.776 488.303 194.903 486.727 193.326C485.151 191.749 483.28 190.498 481.22 189.644C479.161 188.79 476.953 188.351 474.724 188.351V188.351ZM474.724 213.622C473.168 213.622 471.648 213.161 470.354 212.296C469.06 211.431 468.052 210.201 467.457 208.763C466.861 207.325 466.706 205.742 467.009 204.215C467.313 202.688 468.062 201.286 469.162 200.185C470.262 199.084 471.664 198.334 473.19 198.031C474.716 197.727 476.297 197.883 477.735 198.479C479.172 199.074 480.4 200.083 481.265 201.378C482.129 202.672 482.591 204.194 482.591 205.751C482.591 206.785 482.387 207.808 481.992 208.763C481.596 209.718 481.017 210.586 480.287 211.317C479.556 212.048 478.689 212.628 477.735 213.023C476.78 213.419 475.757 213.622 474.724 213.622V213.622Z" fill="#3F3D56"/>
<path d="M374.119 125.38C380.75 125.38 386.125 120.001 386.125 113.366C386.125 106.731 380.75 101.352 374.119 101.352C367.488 101.352 362.113 106.731 362.113 113.366C362.113 120.001 367.488 125.38 374.119 125.38Z" fill="white"/>
<path d="M374.119 95.9661C369.617 95.9661 365.299 97.7556 362.116 100.941C358.933 104.126 357.144 108.447 357.144 112.952C357.144 122.332 374.119 153.137 374.119 153.137C374.119 153.137 391.093 122.332 391.093 112.952C391.093 108.447 389.305 104.126 386.122 100.941C382.938 97.7556 378.621 95.9661 374.119 95.9661ZM374.119 121.237C372.563 121.237 371.042 120.776 369.749 119.911C368.455 119.046 367.447 117.816 366.851 116.378C366.256 114.94 366.1 113.357 366.404 111.83C366.707 110.303 367.456 108.901 368.557 107.8C369.657 106.699 371.058 105.949 372.584 105.646C374.11 105.342 375.692 105.498 377.129 106.094C378.567 106.689 379.795 107.698 380.659 108.993C381.524 110.287 381.985 111.809 381.985 113.366C381.985 114.4 381.782 115.423 381.386 116.378C380.991 117.333 380.412 118.201 379.681 118.932C378.951 119.663 378.084 120.243 377.129 120.638C376.175 121.034 375.152 121.237 374.119 121.237Z" fill="#3F3D56"/>
<path d="M492.941 91.8235C499.572 91.8235 504.947 86.4446 504.947 79.8093C504.947 73.1741 499.572 67.7952 492.941 67.7952C486.31 67.7952 480.934 73.1741 480.934 79.8093C480.934 86.4446 486.31 91.8235 492.941 91.8235Z" fill="white"/>
<path d="M492.941 62.4094C488.439 62.4094 484.121 64.199 480.938 67.3844C477.755 70.5698 475.966 74.8901 475.966 79.3949C475.966 88.7758 492.941 119.58 492.941 119.58C492.941 119.58 509.915 88.7758 509.915 79.3949C509.915 74.8901 508.127 70.5698 504.944 67.3844C501.76 64.199 497.443 62.4094 492.941 62.4094V62.4094ZM492.941 87.6806C491.385 87.6806 489.864 87.219 488.571 86.354C487.277 85.4891 486.269 84.2598 485.673 82.8215C485.078 81.3832 484.922 79.8005 485.226 78.2736C485.529 76.7467 486.278 75.3442 487.379 74.2433C488.479 73.1425 489.88 72.3928 491.406 72.0891C492.932 71.7854 494.514 71.9413 495.951 72.537C497.389 73.1328 498.617 74.1417 499.481 75.4361C500.346 76.7306 500.807 78.2524 500.807 79.8092C500.807 81.8969 499.978 83.899 498.503 85.3751C497.028 86.8513 495.027 87.6806 492.941 87.6806V87.6806V87.6806Z" fill="#3F3D56"/>
<path d="M148.151 447.883L157.707 446.798L158.072 409.4L143.969 411.002L148.151 447.883Z" fill="#FFB8B8"/>
<path d="M177.143 453.584L147.11 456.995L145.794 445.384L164.223 443.291C167.3 442.942 170.39 443.83 172.813 445.76C175.236 447.691 176.794 450.505 177.143 453.584V453.584Z" fill="#2F2E41"/>
<path d="M49.8766 447.286L59.4938 447.285L64.0687 410.167L49.875 410.167L49.8766 447.286Z" fill="#FFB8B8"/>
<path d="M78.0415 456.221L47.8164 456.222L47.8159 444.537L66.3631 444.536C69.4603 444.536 72.4306 445.767 74.6208 447.958C76.8109 450.149 78.0414 453.122 78.0415 456.221V456.221V456.221Z" fill="#2F2E41"/>
<path d="M118.877 281.294L124.368 299.167L154.177 363.714L162.021 424.94L143.979 425.725L132.997 369.209L95.3436 328.391L62.3971 435.144L47.4927 433.575C47.4927 433.575 60.0437 295.423 77.3015 281.294C77.3015 281.294 105.541 267.95 118.877 281.294Z" fill="#2F2E41"/>
<path d="M94.5191 204.176C105.16 204.176 113.786 195.545 113.786 184.897C113.786 174.249 105.16 165.618 94.5191 165.618C83.8784 165.618 75.2524 174.249 75.2524 184.897C75.2524 195.545 83.8784 204.176 94.5191 204.176Z" fill="#FFB8B8"/>
<path d="M120.838 284.827C120.838 284.827 123.192 204.762 90.2451 210.256C57.2985 215.751 71.0262 293.069 71.0262 293.069C71.0262 293.069 78.0862 307.198 95.3439 291.499C112.602 275.8 120.838 284.827 120.838 284.827Z" fill="#CCCCCC"/>
<path opacity="0.2" d="M75.3411 244.009L83.0937 273.746L94.9051 285.565L78.4788 280.117L75.3411 244.009Z" fill="black"/>
<path d="M121.082 318.688C119.997 318.295 119.013 317.668 118.197 316.853C117.381 316.038 116.753 315.053 116.359 313.969C115.964 312.884 115.812 311.727 115.912 310.577C116.013 309.428 116.365 308.314 116.942 307.315L98.6184 286.088L113.063 284.206L128.249 304.653C129.862 305.735 131.022 307.371 131.51 309.251C131.997 311.132 131.779 313.126 130.895 314.856C130.012 316.586 128.525 317.932 126.716 318.638C124.907 319.344 122.903 319.362 121.082 318.688V318.688Z" fill="#FFB8B8"/>
<path d="M98.7718 226.564L100.835 267.165L125.153 298.563L114.955 306.413L82.0083 273.445C82.0083 273.445 70.2417 233.412 78.8705 221.638C82.1064 217.223 85.6731 216.009 88.8676 216.216C91.4959 216.435 93.9535 217.608 95.7777 219.514C97.6019 221.42 98.6668 223.927 98.7718 226.564Z" fill="#CCCCCC"/>
<path d="M92.2276 205.154C92.3197 205.072 92.3912 204.969 92.4365 204.854C92.4819 204.739 92.4998 204.615 92.4889 204.492C92.478 204.368 92.4386 204.25 92.3737 204.144C92.3089 204.039 92.2204 203.95 92.1153 203.885C90.4044 202.825 89.0105 201.323 88.0799 199.538C87.1494 197.752 86.7166 195.749 86.827 193.738C86.9375 191.727 87.5871 189.784 88.7075 188.111C89.828 186.438 91.3781 185.098 93.1948 184.232C98.8593 181.53 106.535 183.632 110.722 178.439C111.574 177.328 112.176 176.046 112.488 174.681C112.8 173.316 112.814 171.9 112.529 170.529C111.625 165.624 107.94 161.981 103.813 159.485C98.7439 156.418 92.9174 154.834 86.994 154.911C81.0707 154.988 75.2874 156.724 70.2993 159.921C65.3112 163.119 61.3178 167.65 58.7715 173.002C56.2252 178.354 55.2279 184.313 55.8926 190.203C56.4252 194.924 57.881 200.218 55.0757 204.05C52.6068 207.424 47.9466 208.056 43.8529 208.894C35.0726 210.692 26.6018 214.84 20.6432 221.539C14.6847 228.238 11.506 237.636 13.3025 246.423C15.099 255.209 22.3064 262.93 31.1648 264.292C38.3751 265.4 45.8202 262.336 51.1151 257.315C56.4099 252.294 59.7568 245.513 61.8679 238.526C64.3735 230.233 65.3618 221.296 69.8855 213.908C74.3122 206.679 83.8516 201.497 91.3281 205.262C91.4714 205.337 91.634 205.367 91.7946 205.347C91.9551 205.328 92.106 205.261 92.2276 205.154Z" fill="#2F2E41"/>
<path d="M241.608 457.198H0.784442C0.576395 457.198 0.376868 457.116 0.229757 456.968C0.0826457 456.821 0 456.622 0 456.413C0 456.205 0.0826457 456.006 0.229757 455.858C0.376868 455.711 0.576395 455.628 0.784442 455.628H241.608C241.816 455.628 242.016 455.711 242.163 455.858C242.31 456.006 242.393 456.205 242.393 456.413C242.393 456.622 242.31 456.821 242.163 456.968C242.016 457.116 241.816 457.198 241.608 457.198Z" fill="#3F3D56"/>
</svg>
