<svg width="86" height="86" viewBox="0 0 86 86" fill="none" xmlns="http://www.w3.org/2000/svg">
<path fill-rule="evenodd" clip-rule="evenodd" d="M10.6801 49.8427C10.6801 32.1557 25.0269 17.801 42.7202 17.801C60.4135 17.801 74.7603 32.1557 74.7603 49.8427C74.7603 53.5916 73.5855 58.3159 71.453 62.0185C69.2921 65.771 66.7075 67.608 64.1479 67.6436C62.4249 67.5582 61.1575 66.8141 58.7936 65.4363C58.281 65.1373 57.7185 64.8097 57.092 64.4537C53.71 62.5312 49.3774 60.5233 42.7202 60.5233C36.063 60.5233 31.7304 62.5276 28.3484 64.4537C27.7219 64.8097 27.1594 65.1373 26.6467 65.4363C24.2829 66.8141 23.0155 67.5582 21.2925 67.6436C18.7293 67.608 16.1483 65.771 13.9873 62.0185C11.8549 58.3159 10.6801 53.5916 10.6801 49.8427ZM42.7202 10.6807C21.0931 10.6807 3.56006 28.2253 3.56006 49.8427C3.56006 54.8198 5.05526 60.7725 7.81783 65.5716C10.5341 70.2889 15.0411 74.764 21.3601 74.764H21.5025C25.2085 74.6145 28.2523 72.7952 30.6589 71.3533C31.0825 71.1041 31.4848 70.8585 31.8693 70.6413C34.6318 69.0713 37.7326 67.6436 42.7202 67.6436C47.7078 67.6436 50.8085 69.0677 53.5711 70.6413C53.9556 70.8585 54.3543 71.1041 54.7815 71.3533C57.1881 72.7917 60.2283 74.6145 63.9379 74.7604L64.0091 74.764H64.0803C70.3993 74.764 74.9063 70.2889 77.6226 65.5716C80.3851 60.776 81.8803 54.8198 81.8803 49.8427C81.8803 28.2253 64.3473 10.6807 42.7202 10.6807ZM60.3423 37.2539C60.6823 36.9255 60.9535 36.5326 61.1401 36.0983C61.3266 35.6639 61.4248 35.1967 61.4289 34.724C61.4331 34.2513 61.343 33.7825 61.164 33.345C60.985 32.9074 60.7206 32.5099 60.3864 32.1757C60.0521 31.8414 59.6546 31.577 59.2171 31.398C58.7796 31.219 58.3108 31.1289 57.8381 31.133C57.3654 31.1371 56.8983 31.2354 56.464 31.4219C56.0296 31.6085 55.6368 31.8798 55.3084 32.2198L44.5643 42.9644C43.0503 42.5586 41.4447 42.6637 39.9966 43.2635C38.5485 43.8632 37.3387 44.9241 36.5549 46.2816C35.7711 47.639 35.4572 49.2172 35.6617 50.7713C35.8663 52.3253 36.5779 53.7685 37.6863 54.8769C38.7946 55.9853 40.2377 56.6969 41.7917 56.9015C43.3457 57.1061 44.9238 56.7921 46.2812 56.0083C47.6385 55.2245 48.6994 54.0146 49.2991 52.5664C49.8988 51.1182 50.0039 49.5126 49.5981 47.9985L60.3423 37.2539V37.2539ZM17.8001 53.4029C18.7443 53.4029 19.6498 53.0278 20.3174 52.3601C20.985 51.6925 21.3601 50.7869 21.3601 49.8427C21.3601 48.8985 20.985 47.9929 20.3174 47.3253C19.6498 46.6576 18.7443 46.2825 17.8001 46.2825C16.8559 46.2825 15.9504 46.6576 15.2828 47.3253C14.6152 47.9929 14.2401 48.8985 14.2401 49.8427C14.2401 50.7869 14.6152 51.6925 15.2828 52.3601C15.9504 53.0278 16.8559 53.4029 17.8001 53.4029ZM71.2003 49.8427C71.2003 50.7869 70.8252 51.6925 70.1576 52.3601C69.49 53.0278 68.5845 53.4029 67.6403 53.4029C66.6961 53.4029 65.7906 53.0278 65.123 52.3601C64.4553 51.6925 64.0803 50.7869 64.0803 49.8427C64.0803 48.8985 64.4553 47.9929 65.123 47.3253C65.7906 46.6576 66.6961 46.2825 67.6403 46.2825C68.5845 46.2825 69.49 46.6576 70.1576 47.3253C70.8252 47.9929 71.2003 48.8985 71.2003 49.8427V49.8427ZM42.7202 28.4816C43.6644 28.4816 44.5699 28.1065 45.2375 27.4388C45.9051 26.7712 46.2802 25.8656 46.2802 24.9214C46.2802 23.9772 45.9051 23.0716 45.2375 22.404C44.5699 21.7363 43.6644 21.3612 42.7202 21.3612C41.776 21.3612 40.8705 21.7363 40.2029 22.404C39.5353 23.0716 39.1602 23.9772 39.1602 24.9214C39.1602 25.8656 39.5353 26.7712 40.2029 27.4388C40.8705 28.1065 41.776 28.4816 42.7202 28.4816V28.4816Z" fill="#6C63FF"/>
</svg>
