<svg width="635" height="454" viewBox="0 0 635 454" fill="none" xmlns="http://www.w3.org/2000/svg">
<path opacity="0.1" d="M624.684 305.14C609.986 335.482 580.141 355.77 549.213 369.15C507.574 387.169 461.72 394.315 416.497 391.293C408.571 390.765 400.67 389.922 392.792 388.763C365.434 384.769 338.761 376.996 313.537 365.668C306.257 362.387 299.124 358.805 292.139 354.923C280.472 348.452 269.294 341.136 258.693 333.035C256.027 330.998 253.397 328.909 250.805 326.768C249.007 325.285 247.226 323.768 245.417 322.295C241.6 319.19 237.672 316.239 233.291 314.031C231.969 313.364 230.613 312.765 229.23 312.237C215.356 306.956 199.358 308.949 184.914 313.067C173.928 316.201 163.218 320.491 152.243 323.552C147.361 324.955 142.386 326.013 137.356 326.718C126.126 328.141 114.721 327.139 103.91 323.779L102.987 323.491C101.438 323.004 99.9016 322.471 98.3785 321.891L97.4546 321.537C95.9795 320.969 94.5356 320.358 93.1231 319.705L92.1993 319.284C90.7241 318.598 89.2803 317.872 87.8678 317.108C87.3589 316.843 86.8555 316.555 86.3576 316.284C78.3212 311.792 71.0163 306.101 64.6947 299.405C64.5121 299.222 64.3406 299.034 64.1415 298.852C63.2619 297.899 62.3989 296.931 61.5636 295.94C61.2538 295.574 60.944 295.209 60.6398 294.833C59.6477 293.622 58.6907 292.384 57.7687 291.118C57.6304 290.935 57.4976 290.747 57.3649 290.565C53.5874 285.335 50.4558 279.668 48.0381 273.686C47.9606 273.503 47.8887 273.315 47.8223 273.133C47.0847 271.232 46.4117 269.3 45.8032 267.337C45.5542 266.517 45.3164 265.676 45.1062 264.857C45.0342 264.613 44.9679 264.364 44.907 264.12C41.8534 252.091 41.5049 239.586 41.5049 227.153C41.5049 225.702 41.5049 224.254 41.5049 222.807C41.5934 202.696 41.9032 182.241 44.8683 162.407C44.8683 162.269 44.907 162.13 44.9291 161.997C45.9215 155.32 47.2714 148.701 48.973 142.168C50.7538 135.314 53.0297 128.598 55.7827 122.074C62.6036 106.02 72.5223 91.4113 83.5363 77.8709C111.279 43.7985 147.662 15.1954 190.247 4.48926C236.134 -7.04167 287.133 4.00765 324.147 33.4965C335.432 42.4865 345.572 53.1317 358.245 60.0237C369.309 66.0244 382.26 68.5099 394.109 63.788C403.9 59.8853 410.273 57.9478 421.271 58.5401C444.038 59.829 466.482 64.5333 487.853 72.4957C488.716 72.8112 489.579 73.1378 490.436 73.4644C546.148 94.7936 594.038 137.17 618.931 191.625C619.591 193.064 620.231 194.514 620.851 195.976C635.693 230.668 641.059 271.328 624.684 305.14Z" fill="#6C63FF"/>
<path opacity="0.1" d="M67.5491 411.299C94.5203 411.299 116.385 407.785 116.385 403.449C116.385 399.114 94.5203 395.6 67.5491 395.6C40.5779 395.6 18.7134 399.114 18.7134 403.449C18.7134 407.785 40.5779 411.299 67.5491 411.299Z" fill="#6C63FF"/>
<path opacity="0.1" d="M505.654 453.88C553.477 453.88 592.245 450.113 592.245 445.466C592.245 440.819 553.477 437.051 505.654 437.051C457.831 437.051 419.063 440.819 419.063 445.466C419.063 450.113 457.831 453.88 505.654 453.88Z" fill="#6C63FF"/>
<path d="M584.052 59.6475H72.1569C68.341 59.6475 65.2476 62.743 65.2476 66.5616V350.738C65.2476 354.557 68.341 357.652 72.1569 357.652H584.052C587.868 357.652 590.962 354.557 590.962 350.738V66.5616C590.962 62.743 587.868 59.6475 584.052 59.6475Z" fill="url(#paint0_linear)"/>
<path d="M583.278 63.8381H72.9924C69.1764 63.8381 66.083 66.9337 66.083 70.7523V349.747C66.083 353.566 69.1764 356.661 72.9924 356.661H583.278C587.094 356.661 590.187 353.566 590.187 349.747V70.7523C590.187 66.9337 587.094 63.8381 583.278 63.8381Z" fill="white"/>
<path d="M583.278 63.8381H72.9924C69.1764 63.8381 66.083 66.9337 66.083 70.7523V349.747C66.083 353.566 69.1764 356.661 72.9924 356.661H583.278C587.094 356.661 590.187 353.566 590.187 349.747V70.7523C590.187 66.9337 587.094 63.8381 583.278 63.8381Z" fill="white"/>
<path opacity="0.04" d="M583.278 63.8381H72.9924C69.1764 63.8381 66.083 66.9337 66.083 70.7523V349.747C66.083 353.566 69.1764 356.661 72.9924 356.661H583.278C587.094 356.661 590.187 353.566 590.187 349.747V70.7523C590.187 66.9337 587.094 63.8381 583.278 63.8381Z" fill="white"/>
<path d="M587.526 60.478H68.7439C68.0382 60.478 67.3614 60.7586 66.8624 61.2579C66.3634 61.7573 66.083 62.4345 66.083 63.1407V74.3949H590.165V63.1407C590.165 62.4384 589.888 61.7644 589.394 61.2657C588.899 60.767 588.228 60.4839 587.526 60.478Z" fill="#5A5773"/>
<path d="M76.5494 71.0346C78.5352 71.0346 80.1451 69.4236 80.1451 67.4364C80.1451 65.4491 78.5352 63.8381 76.5494 63.8381C74.5635 63.8381 72.9536 65.4491 72.9536 67.4364C72.9536 69.4236 74.5635 71.0346 76.5494 71.0346Z" fill="white"/>
<path d="M86.23 71.0346C88.2159 71.0346 89.8257 69.4236 89.8257 67.4364C89.8257 65.4491 88.2159 63.8381 86.23 63.8381C84.2441 63.8381 82.6343 65.4491 82.6343 67.4364C82.6343 69.4236 84.2441 71.0346 86.23 71.0346Z" fill="white"/>
<path d="M95.9109 71.0346C97.8968 71.0346 99.5067 69.4236 99.5067 67.4364C99.5067 65.4491 97.8968 63.8381 95.9109 63.8381C93.9251 63.8381 92.3152 65.4491 92.3152 67.4364C92.3152 69.4236 93.9251 71.0346 95.9109 71.0346Z" fill="white"/>
<path opacity="0.2" d="M249.897 100.568H109.249V112.514H249.897V100.568Z" fill="#6C63FF"/>
<path opacity="0.1" d="M547.022 148.468H109.249V332.232H547.022V148.468Z" fill="#5A5773"/>
<path opacity="0.1" d="M365.569 160.453H358.074V145.883C358.074 129.442 344.974 115.774 328.544 115.525C324.583 115.483 320.652 116.227 316.978 117.712C313.305 119.198 309.962 121.396 307.141 124.18C304.321 126.965 302.079 130.28 300.544 133.935C299.01 137.591 298.214 141.514 298.202 145.479V160.453H290.723C287.417 160.463 284.25 161.782 281.913 164.12C279.576 166.459 278.259 169.628 278.248 172.936V232.844C278.259 236.151 279.576 239.32 281.913 241.659C284.25 243.998 287.417 245.316 290.723 245.327H365.569C368.874 245.316 372.041 243.998 374.377 241.659C376.713 239.32 378.029 236.151 378.038 232.844V172.936C378.029 169.629 376.713 166.46 374.377 164.121C372.041 161.782 368.874 160.463 365.569 160.453ZM332.516 199.397V220.853C332.523 221.989 332.099 223.086 331.329 223.92C330.558 224.755 329.5 225.265 328.367 225.348C327.776 225.376 327.186 225.283 326.631 225.076C326.077 224.869 325.57 224.551 325.142 224.142C324.714 223.734 324.373 223.242 324.14 222.698C323.907 222.153 323.787 221.567 323.787 220.975V199.386C321.763 198.398 320.134 196.753 319.164 194.72C318.195 192.686 317.943 190.384 318.449 188.188C318.956 185.993 320.191 184.034 321.953 182.631C323.715 181.229 325.9 180.465 328.152 180.465C330.403 180.465 332.588 181.229 334.35 182.631C336.112 184.034 337.347 185.993 337.854 188.188C338.36 190.384 338.108 192.686 337.139 194.72C336.169 196.753 334.54 198.398 332.516 199.386V199.397ZM349.355 160.453H306.931V145.479C306.931 139.851 309.165 134.454 313.142 130.475C317.118 126.496 322.511 124.26 328.135 124.26C333.759 124.26 339.152 126.496 343.128 130.475C347.105 134.454 349.339 139.851 349.339 145.479L349.355 160.453Z" fill="black"/>
<path d="M365.569 159.346H358.074V144.776C358.074 128.335 344.974 114.667 328.544 114.418C324.583 114.376 320.652 115.12 316.978 116.605C313.305 118.091 309.962 120.289 307.141 123.073C304.321 125.858 302.079 129.173 300.544 132.829C299.01 136.484 298.214 140.407 298.202 144.372V159.346H290.723C287.417 159.356 284.25 160.675 281.913 163.013C279.576 165.352 278.259 168.521 278.248 171.829V231.737C278.259 235.044 279.576 238.213 281.913 240.552C284.25 242.891 287.417 244.209 290.723 244.22H365.569C368.874 244.209 372.041 242.891 374.377 240.552C376.713 238.213 378.029 235.044 378.038 231.737V171.829C378.029 168.522 376.713 165.353 374.377 163.014C372.041 160.675 368.874 159.356 365.569 159.346V159.346ZM332.516 198.29V219.746C332.523 220.882 332.099 221.979 331.329 222.813C330.558 223.648 329.5 224.158 328.367 224.241C327.776 224.269 327.186 224.176 326.631 223.969C326.077 223.762 325.57 223.444 325.142 223.035C324.714 222.626 324.373 222.135 324.14 221.591C323.907 221.046 323.787 220.46 323.787 219.868V198.279C321.763 197.291 320.134 195.646 319.164 193.613C318.195 191.579 317.943 189.277 318.449 187.081C318.956 184.886 320.191 182.927 321.953 181.525C323.715 180.122 325.9 179.358 328.152 179.358C330.403 179.358 332.588 180.122 334.35 181.525C336.112 182.927 337.347 184.886 337.854 187.081C338.36 189.277 338.108 191.579 337.139 193.613C336.169 195.646 334.54 197.291 332.516 198.279V198.29ZM349.355 159.346H306.931V144.372C306.931 138.744 309.165 133.347 313.142 129.368C317.118 125.389 322.511 123.153 328.135 123.153C333.759 123.153 339.152 125.389 343.128 129.368C347.105 133.347 349.339 138.744 349.339 144.372L349.355 159.346Z" fill="#6C63FF"/>
<path opacity="0.1" d="M547.022 130.781H502.711V141.25H547.022V130.781Z" fill="#5A5773"/>
<path d="M562.102 448.001C561.81 446.533 561.311 445.115 560.619 443.788L553.981 433.868H554.02C554.02 433.868 552.974 428.886 554.02 426.439C555.065 423.992 550.291 417.975 550.291 417.975C550.291 417.975 549.71 416.464 551.226 414.604C552.742 412.744 550.291 407.297 550.291 407.297C550.291 407.297 549.129 395.921 549.013 394.183C548.897 392.444 547.962 382.812 547.962 382.812L545.749 362.391L541.811 308.268L541.739 307.255C542.226 307.017 542.486 306.867 542.486 306.867L541.7 276.941L542.38 276.327C548.322 270.946 562.024 258.491 561.886 258.22C561.748 257.948 560.226 237.422 560.049 232.285C559.897 228.634 559.099 225.039 557.693 221.667C557.35 220.986 556.36 216.497 555.95 214.598C555.84 214.078 555.768 213.751 555.768 213.751C555.768 213.751 551.751 206.09 552.1 202.608C552.448 199.126 553.146 196.518 544.582 195.3C544.582 195.3 537.391 194.226 533.109 191.298C530.577 189.544 527.809 188.157 524.889 187.18C524.889 187.18 522.488 182.751 520.817 184.251C520.11 182.671 519.581 181.016 519.24 179.319L519.191 179.009C522.362 176.796 524.644 173.527 525.63 169.786C525.685 169.576 525.729 169.36 525.779 169.15C525.945 169.206 526.118 169.238 526.294 169.244C527.749 169.244 528.645 167.622 530.006 167.107C530.559 166.891 531.239 166.858 531.665 166.421C531.806 166.252 531.91 166.057 531.973 165.846C532.036 165.636 532.055 165.415 532.03 165.197C532.044 165.046 532.044 164.894 532.03 164.743C532.033 164.69 532.033 164.636 532.03 164.583V164.638C531.66 162.623 530.1 160.835 530.271 158.787C530.437 156.86 532.13 155.166 531.992 153.29C531.99 153.141 531.977 152.993 531.953 152.847V152.913C531.747 152.181 531.367 151.509 530.846 150.954C530.251 150.142 529.469 149.485 528.567 149.038C527.798 148.701 526.908 148.623 526.189 148.219C524.075 147.068 524.081 144.067 522.825 142.019C522.287 141.164 521.524 140.474 520.619 140.026C519.714 139.578 518.703 139.388 517.697 139.478C516.126 139.633 514.704 140.469 513.15 140.74C511.026 141.117 508.863 140.425 506.849 139.633C504.835 138.842 502.794 137.972 500.631 137.972C498.468 137.972 496.128 139.08 495.475 141.122C495.127 142.229 495.298 143.42 495.033 144.543C494.557 146.525 492.82 147.942 491.022 148.928C489.916 149.542 488.599 150.245 488.256 151.408C488.256 151.374 488.256 151.347 488.256 151.319C488.231 151.412 488.213 151.506 488.201 151.601C488.19 151.725 488.19 151.849 488.201 151.972C488.201 152.769 488.621 153.528 488.903 154.286C489.429 155.729 489.417 157.313 488.87 158.748C488.461 159.8 487.764 160.724 487.366 161.771C487.178 162.258 487.055 162.768 487.001 163.287V163.199C486.987 163.435 486.987 163.671 487.001 163.907C486.994 164.716 487.184 165.514 487.554 166.232C487.807 166.729 488.158 167.169 488.585 167.527C489.011 167.886 489.505 168.155 490.038 168.319C491.144 168.574 491.835 167.489 493.003 167.766C493.212 167.816 493.417 167.881 493.617 167.959C493.655 168.209 493.694 168.458 493.738 168.701C494.444 172.427 496.428 175.789 499.348 178.206C499.348 178.339 499.392 178.472 499.409 178.61C499.762 180.817 499.916 183.052 499.868 185.286C499.868 185.286 498.125 182.734 495.735 187.661C495.735 187.661 489.501 191.259 487.349 191.669C485.197 192.079 477.558 194.741 477.558 194.741C476.405 195.575 475.019 196.023 473.597 196.02C471.212 196.02 469.232 201.24 469.52 204.08C469.807 206.92 469.348 209.012 467.13 209.129C464.912 209.245 466.123 213.745 466.14 213.823L465.935 214.792C465.504 216.773 464.563 221.025 464.231 221.689C462.825 225.061 462.025 228.656 461.869 232.307C461.698 237.444 460.209 257.893 460.038 258.242C459.922 258.469 469.309 267.055 475.909 273.055L476.866 273.919L473.829 302.306C473.918 303.4 474.242 304.461 474.781 305.417C475.32 306.373 476.059 307.2 476.949 307.842C476.949 308.174 476.949 308.512 476.916 308.86C476.783 312.182 476.518 316.201 475.986 317.253C475.057 319.113 475.289 329.088 475.289 329.088C475.289 329.088 474.355 349.393 473.193 351.602C472.031 353.81 471.793 358.444 472.142 359.352C472.49 360.26 470.975 384.644 470.975 384.644L469.813 395.555C469.813 395.555 470.161 405.996 469.11 406.228C468.059 406.461 467.478 413.657 467.478 413.657C467.478 413.657 463.755 418.761 465.382 420.616C467.008 422.47 465.144 423.289 464.972 423.749C464.801 424.208 461.421 425.963 463.866 432.451C463.889 432.515 463.914 432.578 463.944 432.639C461.653 435.822 454.395 446.091 454.838 447.652C455.165 448.645 455.857 449.477 456.774 449.977C458.484 451.001 461.415 451.477 466.079 449.977C473.823 447.481 473.27 445.681 473.27 445.681C473.31 444.84 473.671 444.046 474.278 443.463C474.885 442.881 475.693 442.553 476.534 442.548C479.737 442.316 482.127 439.36 482.127 439.36L481.751 437.959L481.236 436.022C481.297 435.468 481.69 434.499 483.449 433.962C486.132 433.148 485.429 428.045 485.429 428.045C485.429 428.045 485.197 422.708 486.359 422.011C487.52 421.313 487.061 412.495 487.061 412.495C487.061 412.495 488.345 406.112 490.203 401.816C492.062 397.521 494.286 372.001 494.286 372.001C494.286 372.001 495.796 359.468 497.196 355.87C498.595 352.272 499.879 342.18 499.879 342.18C499.879 342.18 508.503 325.468 508.614 321.753C508.614 321.753 509.72 318.271 510.826 322.102C511.933 325.933 515.042 335.1 515.042 335.1L518.068 346.354L521.68 363.177L524.014 377.337C524.014 377.337 523.66 382.674 524.568 384.534C525.475 386.394 526.78 390.678 526.083 391.492C525.386 392.306 527.477 396.137 528.064 396.945C528.65 397.753 528.064 414.93 528.064 414.93C528.064 414.93 530.741 429.55 534.586 432.091C534.854 432.268 535.14 432.416 535.438 432.534C535.383 434.117 535.327 436.237 535.399 437.345C535.391 437.592 535.432 437.839 535.521 438.07C535.869 438.535 539.83 441.668 540.649 441.668C541.468 441.668 544.372 443.7 544.494 444.685C544.615 445.67 553.007 449.844 554.197 449.966C555.386 450.088 561.15 451.123 561.941 449.501C562.137 449.027 562.193 448.506 562.102 448.001ZM541.484 238.905L542.082 239.42C542.082 239.42 542.696 244.209 543.133 245.642C543.57 247.076 543.044 249.866 543.044 249.866C543.084 250.907 543.292 251.935 543.658 252.911C544.178 253.957 542.607 256.232 542.607 256.232H541.208L540.771 238.307L541.484 238.905ZM499.868 185.386V185.281C499.857 185.314 499.851 185.353 499.851 185.386H499.868ZM478.376 254.389C478.161 253.925 478.129 253.397 478.288 252.911C478.412 252.648 478.51 252.374 478.581 252.091C478.753 251.364 478.86 250.623 478.902 249.877C478.903 249.868 478.903 249.859 478.902 249.849C478.852 249.584 478.404 247.015 478.819 245.653C479.234 244.292 479.864 239.431 479.864 239.431L480.263 239.094L481.186 238.291C481.186 238.291 481.186 237.992 481.253 237.499C481.446 241.706 481.601 246.356 481.352 246.589C480.888 247.048 479.195 251.571 479.604 251.748C479.737 251.809 479.555 253.619 479.245 256.055C478.897 255.532 478.606 254.974 478.376 254.389V254.389Z" fill="url(#paint1_linear)"/>
<path d="M522.964 189.809V196.696L508.846 203.798C508.846 203.798 494.828 195.312 498.286 191.935C500.498 189.798 500.072 183.93 499.475 179.895C499.126 177.547 498.723 175.826 498.723 175.826C498.723 175.826 523.904 168.629 520.098 174.093C518.826 175.92 518.726 178.284 519.152 180.625C520.015 185.27 522.964 189.809 522.964 189.809Z" fill="#C37098"/>
<path d="M484.29 257.151L482.47 279.582C482.47 279.582 479.743 277.107 476.213 273.885C469.669 267.912 460.375 259.371 460.486 259.144C460.658 258.795 462.146 238.446 462.306 233.331C462.457 229.7 463.248 226.124 464.641 222.769C464.972 222.104 465.907 217.875 466.3 215.899C466.433 215.284 466.516 214.886 466.516 214.886L469.57 213.657C469.57 213.657 482.293 227.861 482.293 228.122C482.293 228.382 481.424 239.293 481.424 239.293L480.523 240.079L480.13 240.416C480.13 240.416 479.521 245.183 479.09 246.611C478.659 248.039 479.123 250.519 479.173 250.785C479.132 251.531 479.027 252.272 478.858 252.999C478.785 253.279 478.687 253.551 478.564 253.813C478.409 254.298 478.44 254.823 478.653 255.285C478.899 255.927 479.218 256.538 479.604 257.107L484.29 257.151Z" fill="#3F3D56"/>
<path d="M561.399 259.144C561.532 259.415 547.962 271.81 542.082 277.163L539.415 279.582L537.612 257.151H542.287C542.287 257.151 543.847 254.898 543.327 253.857C542.964 252.887 542.76 251.864 542.724 250.829C542.724 250.829 543.238 248.061 542.807 246.628C542.375 245.194 541.767 240.433 541.767 240.433L541.175 239.924L540.472 239.309C540.472 239.309 539.604 228.398 539.604 228.138C539.604 227.878 552.327 213.673 552.327 213.673L555.358 214.886C555.358 214.886 555.425 215.212 555.535 215.733C555.945 217.62 556.924 222.088 557.261 222.769C558.654 226.124 559.445 229.7 559.596 233.331C559.74 238.446 561.222 258.795 561.399 259.144Z" fill="#3F3D56"/>
<path d="M561.454 449.54C560.641 451.156 554.932 450.094 553.754 450.005C552.576 449.916 544.256 445.726 544.14 444.746C544.023 443.766 541.141 441.746 540.334 441.746C539.526 441.746 535.604 438.624 535.255 438.164C535.167 437.935 535.127 437.69 535.139 437.445C535.017 435.546 535.255 430.658 535.255 430.658L551.989 431.582L560.121 443.822C560.806 445.142 561.302 446.553 561.593 448.012C561.691 448.524 561.643 449.054 561.454 449.54V449.54Z" fill="#3F3D56"/>
<path opacity="0.1" d="M561.454 449.54C560.641 451.156 554.932 450.094 553.754 450.005C552.576 449.916 544.256 445.726 544.14 444.746C544.023 443.766 541.141 441.746 540.334 441.746C539.526 441.746 535.604 438.624 535.255 438.164C535.167 437.935 535.127 437.69 535.139 437.445C535.017 435.546 535.255 430.658 535.255 430.658L551.989 431.582L560.121 443.822C560.806 445.142 561.302 446.553 561.593 448.012C561.691 448.524 561.643 449.054 561.454 449.54V449.54Z" fill="black"/>
<path opacity="0.1" d="M561.455 449.54C560.641 451.156 554.932 450.093 553.754 450.005C552.576 449.916 544.256 445.726 544.14 444.746C544.024 443.766 541.142 441.746 540.334 441.746C539.526 441.746 535.604 438.623 535.256 438.164C535.167 437.935 535.128 437.69 535.139 437.444L540.561 440.876C540.561 440.876 544.024 443.091 544.947 444.403C545.871 445.715 553.151 448.444 553.754 448.499C554.202 448.543 558.982 447.624 561.593 448.012C561.691 448.524 561.644 449.054 561.455 449.54V449.54Z" fill="black"/>
<path d="M482.348 439.437C482.348 439.437 479.98 442.382 476.816 442.609C475.981 442.615 475.18 442.942 474.579 443.522C473.978 444.102 473.622 444.891 473.586 445.726C473.586 445.726 474.139 447.519 466.488 450.005C461.869 451.494 458.965 451.023 457.272 450.005C456.364 449.503 455.678 448.677 455.352 447.691C454.832 445.847 465.044 431.814 465.044 431.814L474.338 431.261L480.976 434.261L481.994 438.064L482.348 439.437Z" fill="#3F3D56"/>
<path opacity="0.1" d="M482.348 439.437C482.348 439.437 479.98 442.382 476.816 442.609C475.981 442.615 475.18 442.942 474.579 443.522C473.978 444.102 473.622 444.891 473.586 445.726C473.586 445.726 474.139 447.519 466.488 450.005C461.869 451.494 458.965 451.023 457.272 450.005C456.364 449.503 455.678 448.677 455.352 447.691C454.832 445.847 465.044 431.814 465.044 431.814L474.338 431.261L480.976 434.261L481.994 438.064L482.348 439.437Z" fill="black"/>
<path opacity="0.1" d="M482.348 439.437C482.348 439.437 479.98 442.382 476.816 442.609C475.981 442.615 475.181 442.942 474.579 443.522C473.978 444.102 473.623 444.891 473.586 445.726C473.586 445.726 474.139 447.519 466.488 450.005C461.869 451.494 458.965 451.023 457.272 450.005C461.626 449.551 471.246 446.8 472.208 445.847C473.364 444.69 474.808 441.513 475.787 441.458C476.468 441.413 479.925 439.332 482 438.042L482.348 439.437Z" fill="black"/>
<path d="M553.605 426.561C552.565 428.986 553.605 433.951 553.605 433.951C553.605 433.951 538.116 434.76 534.332 432.219C530.548 429.678 527.87 415.124 527.87 415.124C527.87 415.124 528.424 398.036 527.87 397.227C527.317 396.419 525.215 392.611 525.907 391.802C526.598 390.994 525.353 386.721 524.407 384.872C523.461 383.023 523.854 377.714 523.854 377.714L521.542 363.62L517.968 346.88L514.931 335.676C514.931 335.676 511.817 326.553 510.76 322.744C509.704 318.936 508.586 322.395 508.586 322.395C508.475 326.093 499.934 342.723 499.934 342.723C499.934 342.723 498.662 352.77 497.279 356.346C495.896 359.922 494.391 372.4 494.391 372.4C494.391 372.4 492.178 397.803 490.353 402.077C488.527 406.35 487.272 412.7 487.272 412.7C487.272 412.7 487.736 421.479 486.58 422.171C485.424 422.863 485.612 428.178 485.612 428.178C485.612 428.178 486.304 433.254 483.648 434.068C480.993 434.881 481.435 436.609 481.435 436.609C481.435 436.609 466.665 439.033 464.242 432.562C461.819 426.091 465.166 424.369 465.349 423.904C465.531 423.439 467.373 422.636 465.758 420.782C464.143 418.927 467.832 413.857 467.832 413.857C467.832 413.857 468.413 406.699 469.448 406.467C470.482 406.234 470.145 395.843 470.145 395.843L471.295 384.988C471.295 384.988 472.8 360.736 472.452 359.811C472.103 358.887 472.335 354.276 473.492 352.061C474.648 349.847 475.566 329.653 475.566 329.653C475.566 329.653 475.334 319.727 476.258 317.878C476.811 316.832 477.043 312.808 477.176 309.525C477.275 307.017 477.298 304.941 477.298 304.941L490.22 300.092L506.816 294.783L520.778 301.481L541.208 305.406L541.462 308.933L545.362 362.801L547.575 383.122C547.575 383.122 548.499 392.705 548.615 394.437C548.731 396.17 549.882 407.491 549.882 407.491C549.882 407.491 552.305 412.916 550.806 414.765C549.307 416.614 549.882 418.086 549.882 418.086C549.882 418.086 554.645 424.137 553.605 426.561Z" fill="#3F3D56"/>
<path opacity="0.1" d="M520.109 174.093C518.837 175.92 518.737 178.283 519.163 180.625C516.256 182.677 512.756 183.717 509.2 183.584C505.645 183.451 502.232 182.153 499.486 179.889V179.889C499.138 177.542 498.734 175.82 498.734 175.82C498.734 175.82 523.915 168.635 520.109 174.093Z" fill="black"/>
<path d="M526.245 168.421C526.245 171.808 525.324 175.12 523.599 177.936C521.873 180.753 519.421 182.948 516.553 184.245C513.684 185.541 510.527 185.88 507.481 185.219C504.436 184.558 501.638 182.927 499.443 180.532C497.247 178.136 495.752 175.085 495.146 171.762C494.54 168.44 494.851 164.996 496.039 161.866C497.228 158.737 499.24 156.062 501.822 154.18C504.404 152.298 507.439 151.293 510.544 151.293C512.609 151.283 514.655 151.718 516.564 152.575C518.474 153.432 520.208 154.693 521.668 156.286C523.128 157.878 524.284 159.771 525.07 161.854C525.855 163.937 526.254 166.169 526.245 168.421Z" fill="#C37098"/>
<path opacity="0.1" d="M529.369 193.983L524.059 288.616L495.21 282.554L489.495 244.618L495.155 193.689L499.414 194.237L506.926 195.195L514.367 195.655L522.432 194.758L529.369 193.983Z" fill="black"/>
<path d="M529.369 194.675L524.059 289.308L495.21 283.246L489.495 245.31L495.155 194.387L499.414 194.929L506.926 195.887L514.367 196.346L522.432 195.45L529.369 194.675Z" fill="#6C63FF"/>
<path d="M505.654 197.216L516.043 197.565L513.122 201.655C513.122 201.655 513.327 209.92 514.716 212.29C516.104 214.659 515.695 251.261 515.695 251.261L512.929 256.515L508.199 250.625L508.26 202.298L505.654 197.216Z" fill="#3F3D56"/>
<path opacity="0.1" d="M505.654 197.216L516.043 197.565L513.122 201.655C513.122 201.655 513.327 209.92 514.716 212.29C516.104 214.659 515.695 251.261 515.695 251.261L512.929 256.515L508.199 250.625L508.26 202.298L505.654 197.216Z" fill="black"/>
<path opacity="0.1" d="M521.924 186.477L512.232 197.216L517.769 202.99L526.947 194.038L521.924 186.477Z" fill="black"/>
<path d="M521.924 185.785L512.232 196.524L517.769 202.298L526.947 193.346L521.924 185.785Z" fill="#6C63FF"/>
<path opacity="0.1" d="M508.138 196.696L498.324 186.881L497.4 192.018L501.903 203.278L508.138 196.696Z" fill="black"/>
<path d="M508.481 196.003L498.673 186.188L497.749 191.326L502.252 202.585L508.481 196.003Z" fill="#6C63FF"/>
<path opacity="0.1" d="M541.512 308.949C536.802 311.195 531.757 312.655 526.576 313.273C517.055 314.485 510.826 302.362 510.826 302.362L507.192 307.095C506.036 312.121 488.439 313.389 481.286 311.485C479.802 311.118 478.406 310.457 477.181 309.541C477.281 307.034 477.303 304.958 477.303 304.958L490.226 300.109L506.821 294.8L520.784 301.498L541.213 305.423L541.512 308.949Z" fill="black"/>
<path opacity="0.1" d="M529.369 194.68L524.064 289.308L495.21 283.246L489.484 245.315L495.138 194.387L499.398 194.94C499.289 196.795 499.08 198.643 498.772 200.476C498.081 203.714 502.352 226.693 502.352 226.693C502.352 226.693 510.467 252.462 514.118 248.748C517.769 245.033 522.969 225.42 522.969 225.42C526.493 218.146 523.03 197.741 522.77 197.332C522.589 196.728 522.477 196.106 522.438 195.477L529.369 194.68Z" fill="black"/>
<path opacity="0.1" d="M541.833 267.907L542.076 277.18L539.41 279.599L537.612 257.151H541.595L541.833 267.907Z" fill="black"/>
<path opacity="0.1" d="M479.179 250.802C479.138 251.548 479.032 252.288 478.863 253.016C478.863 252.811 478.863 252.695 478.819 252.678C478.653 252.634 478.852 251.787 479.179 250.802Z" fill="black"/>
<path opacity="0.1" d="M484.29 257.151L482.47 279.582C482.47 279.582 479.743 277.108 476.213 273.886L476.634 269.911C476.634 269.911 478.122 260.146 478.664 255.33C478.91 255.972 479.229 256.583 479.616 257.151H484.29Z" fill="black"/>
<path d="M499.94 186.532C499.94 186.532 498.214 183.991 495.846 188.896C495.846 188.896 489.672 192.477 487.548 192.881C485.424 193.285 477.867 195.943 477.867 195.943C476.726 196.768 475.353 197.212 473.945 197.21C471.578 197.21 469.614 202.408 469.901 205.237C470.189 208.066 469.73 210.147 467.539 210.263C465.349 210.38 466.555 214.936 466.555 214.936L481.153 231.681C481.153 231.681 482.077 247.098 481.618 247.563C481.159 248.028 479.483 252.545 479.886 252.7C480.29 252.855 477.674 269.905 477.674 269.905L474.155 302.992C474.155 302.992 474.155 308.528 481.314 310.438C488.472 312.348 506.08 311.086 507.214 306.059L510.849 301.321C510.849 301.321 517.078 313.449 526.598 312.237C536.118 311.025 542.181 307.559 542.181 307.559L541.141 267.907L540.45 239.326L555.314 214.886C555.314 214.886 551.331 207.263 551.68 203.814C552.028 200.366 552.714 197.753 544.234 196.54C544.234 196.54 537.081 195.472 532.866 192.555C530.36 190.814 527.623 189.435 524.734 188.458C524.734 188.458 522.355 184.03 520.701 185.546C520.701 185.546 522.36 191.807 522.222 192.743C522.084 193.678 522.482 197.908 522.742 198.345C523.002 198.782 526.465 219.159 522.941 226.433C522.941 226.433 517.769 246.046 514.09 249.761C510.412 253.475 502.324 227.707 502.324 227.707C502.324 227.707 498.053 204.722 498.745 201.489C499.436 198.256 499.94 186.532 499.94 186.532Z" fill="#3F3D56"/>
<path d="M512.287 262.233C513.689 262.233 514.826 261.095 514.826 259.692C514.826 258.289 513.689 257.151 512.287 257.151C510.885 257.151 509.748 258.289 509.748 259.692C509.748 261.095 510.885 262.233 512.287 262.233Z" fill="#3F3D56"/>
<path d="M512.287 274.212C513.689 274.212 514.826 273.075 514.826 271.671C514.826 270.268 513.689 269.13 512.287 269.13C510.885 269.13 509.748 270.268 509.748 271.671C509.748 273.075 510.885 274.212 512.287 274.212Z" fill="#3F3D56"/>
<path opacity="0.1" d="M512.287 262.233C513.689 262.233 514.826 261.095 514.826 259.692C514.826 258.289 513.689 257.151 512.287 257.151C510.885 257.151 509.748 258.289 509.748 259.692C509.748 261.095 510.885 262.233 512.287 262.233Z" fill="black"/>
<path opacity="0.1" d="M512.287 274.212C513.689 274.212 514.826 273.075 514.826 271.671C514.826 270.268 513.689 269.13 512.287 269.13C510.885 269.13 509.748 270.268 509.748 271.671C509.748 273.075 510.885 274.212 512.287 274.212Z" fill="black"/>
<path opacity="0.1" d="M535.106 423.096C535.106 423.096 545.528 423.904 546.563 424.712C547.597 425.52 535.106 423.096 535.106 423.096Z" fill="black" stroke="#6C63FF" stroke-miterlimit="10"/>
<path opacity="0.1" d="M473.055 414.897C473.055 414.897 475.268 417.665 474.327 418.939C473.387 420.212 473.055 414.897 473.055 414.897Z" fill="black" stroke="#6C63FF" stroke-miterlimit="10"/>
<path opacity="0.1" d="M475.71 424.878C475.71 424.878 479.748 422.221 481.364 423.987C482.979 425.753 475.71 424.878 475.71 424.878Z" fill="black" stroke="#6C63FF" stroke-miterlimit="10"/>
<path opacity="0.1" d="M525.995 167.029C525.998 168.413 525.823 169.792 525.475 171.131C525.134 170.976 524.848 170.719 524.656 170.397C524.465 170.074 524.376 169.701 524.402 169.327C524.474 168.668 524.911 168.065 524.817 167.411C524.678 166.404 523.461 165.994 522.82 165.197C522.029 164.234 522.2 162.833 522.266 161.588C522.333 160.342 522.018 158.82 520.85 158.394C520.502 158.266 520.12 158.255 519.783 158.111C518.864 157.724 518.582 156.584 517.968 155.797C516.74 154.214 514.301 154.247 512.436 155C511.625 155.39 510.794 155.737 509.947 156.041C509.523 156.191 509.072 156.251 508.624 156.217C508.175 156.184 507.739 156.058 507.341 155.847C506.976 155.615 506.683 155.294 506.307 155.061C505.057 154.308 503.419 155.061 502.335 156.03C501.251 156.999 500.382 158.3 499.016 158.892C498.402 159.169 497.644 159.335 497.356 159.933C497.214 160.258 497.153 160.613 497.179 160.968C497.179 163.121 497.434 165.308 496.986 167.417C496.698 168.773 495.747 170.312 494.369 170.146C494.197 170.121 494.029 170.078 493.866 170.019C493.451 167.802 493.503 165.522 494.019 163.326C494.534 161.131 495.501 159.066 496.859 157.266C498.217 155.465 499.935 153.968 501.903 152.869C503.872 151.771 506.048 151.095 508.292 150.886C510.536 150.676 512.8 150.937 514.937 151.653C517.075 152.368 519.04 153.521 520.707 155.04C522.374 156.558 523.707 158.407 524.619 160.47C525.531 162.532 526.004 164.763 526.006 167.018L525.995 167.029Z" fill="black"/>
<path d="M493.141 169.1C493.556 169.194 493.949 169.41 494.374 169.466C495.752 169.632 496.703 168.093 496.991 166.736C497.439 164.627 497.207 162.441 497.19 160.287C497.159 159.933 497.218 159.577 497.362 159.252C497.677 158.654 498.435 158.488 499.021 158.211C500.36 157.613 501.234 156.34 502.34 155.349C503.447 154.358 505.057 153.628 506.307 154.381C506.677 154.602 506.976 154.934 507.341 155.167C507.741 155.374 508.178 155.499 508.627 155.532C509.076 155.565 509.527 155.507 509.952 155.36C510.81 155.106 511.612 154.657 512.436 154.32C514.284 153.567 516.729 153.539 517.968 155.111C518.582 155.903 518.864 157.038 519.782 157.425C520.12 157.569 520.502 157.586 520.85 157.713C522.017 158.15 522.316 159.662 522.266 160.907C522.216 162.153 522.051 163.553 522.819 164.517C523.461 165.303 524.678 165.712 524.816 166.731C524.905 167.384 524.474 167.993 524.402 168.646C524.385 168.889 524.417 169.133 524.495 169.363C524.574 169.593 524.697 169.806 524.858 169.988C525.019 170.17 525.215 170.319 525.434 170.425C525.653 170.531 525.89 170.592 526.133 170.606C527.571 170.606 528.462 168.995 529.806 168.48C530.359 168.264 531.029 168.231 531.466 167.794C531.628 167.583 531.743 167.34 531.802 167.081C531.862 166.822 531.864 166.554 531.809 166.294C531.538 164.173 529.839 162.33 530.022 160.204C530.194 158.167 532.08 156.39 531.682 154.386C531.479 153.647 531.099 152.969 530.575 152.41C529.982 151.606 529.209 150.952 528.318 150.5C527.549 150.168 526.659 150.09 525.956 149.686C523.865 148.54 523.871 145.551 522.637 143.514C522.107 142.672 521.357 141.992 520.467 141.549C519.577 141.106 518.582 140.916 517.592 141.001C516.037 141.156 514.627 141.981 513.089 142.257C510.981 142.634 508.846 141.942 506.849 141.15C504.852 140.359 502.833 139.49 500.692 139.49C498.551 139.49 496.233 140.597 495.58 142.623C495.237 143.73 495.409 144.915 495.143 146.027C494.679 148.003 492.931 149.41 491.171 150.389C489.96 151.065 488.505 151.84 488.361 153.218C488.267 154.093 488.748 154.879 489.053 155.726C489.57 157.159 489.558 158.729 489.02 160.154C488.616 161.201 487.941 162.12 487.531 163.16C487.241 163.867 487.104 164.627 487.128 165.39C487.153 166.153 487.34 166.903 487.675 167.589C487.933 168.089 488.29 168.531 488.725 168.888C489.16 169.245 489.663 169.509 490.203 169.665C491.293 169.925 491.979 168.846 493.141 169.1Z" fill="#3F3D56"/>
<path opacity="0.1" d="M496.991 165.529C496.704 166.886 495.747 168.424 494.369 168.258C493.943 168.203 493.556 167.987 493.135 167.893C491.979 167.638 491.293 168.723 490.203 168.447C489.662 168.291 489.158 168.027 488.723 167.67C488.287 167.313 487.929 166.871 487.67 166.371C487.38 165.807 487.205 165.192 487.155 164.561C487.045 165.541 487.224 166.532 487.67 167.411C487.929 167.912 488.287 168.354 488.723 168.711C489.158 169.068 489.662 169.332 490.203 169.487C491.31 169.742 491.979 168.657 493.135 168.934C493.54 169.075 493.952 169.195 494.369 169.294C495.747 169.465 496.704 167.926 496.991 166.57C497.218 165.372 497.307 164.152 497.257 162.933C497.251 163.805 497.163 164.674 496.991 165.529V165.529Z" fill="black"/>
<path opacity="0.1" d="M489.413 157.193C489.483 156.286 489.359 155.374 489.047 154.519C488.797 153.951 488.585 153.366 488.411 152.77C488.387 152.863 488.369 152.957 488.356 153.052C488.262 153.921 488.749 154.713 489.047 155.56C489.241 156.086 489.363 156.635 489.413 157.193V157.193Z" fill="black"/>
<path opacity="0.1" d="M531.676 154.275C531.416 155.847 530.144 157.325 530.017 158.981C529.986 159.264 529.986 159.55 530.017 159.833C530.293 157.901 532.003 156.191 531.676 154.275Z" fill="black"/>
<path opacity="0.1" d="M531.771 165.956C531.724 166.187 531.615 166.401 531.455 166.576C531.046 167.013 530.349 167.046 529.796 167.262C528.451 167.777 527.583 169.404 526.122 169.388C525.748 169.367 525.39 169.232 525.093 169.003C524.797 168.774 524.577 168.46 524.463 168.103C524.429 168.223 524.403 168.345 524.385 168.469C524.369 168.711 524.402 168.954 524.481 169.184C524.559 169.414 524.683 169.625 524.844 169.807C525.005 169.989 525.2 170.137 525.419 170.243C525.637 170.348 525.874 170.41 526.117 170.423C527.561 170.423 528.446 168.812 529.79 168.303C530.343 168.087 531.018 168.054 531.45 167.616C531.612 167.406 531.727 167.163 531.786 166.904C531.845 166.645 531.848 166.376 531.793 166.116C531.787 166.05 531.776 166.005 531.771 165.956Z" fill="black"/>
<path opacity="0.1" d="M524.833 165.496C524.695 164.488 523.478 164.079 522.836 163.282C522.443 162.758 522.229 162.121 522.228 161.466C522.183 162.495 522.2 163.547 522.836 164.322C523.472 165.097 524.44 165.429 524.75 166.227C524.829 165.991 524.857 165.743 524.833 165.496V165.496Z" fill="black"/>
<path opacity="0.1" d="M522.261 159.7C522.305 158.455 522.007 156.932 520.839 156.506C520.496 156.379 520.115 156.362 519.777 156.224C518.859 155.836 518.571 154.696 517.963 153.91C516.729 152.332 514.289 152.36 512.431 153.113C511.601 153.45 510.81 153.899 509.947 154.153C509.523 154.303 509.072 154.363 508.624 154.33C508.175 154.297 507.739 154.171 507.341 153.96C506.976 153.727 506.678 153.406 506.307 153.174C505.051 152.421 503.414 153.174 502.335 154.142C501.256 155.111 500.382 156.407 499.016 157.004C498.396 157.281 497.644 157.447 497.323 158.045C497.182 158.371 497.124 158.726 497.152 159.08C497.152 159.296 497.152 159.512 497.152 159.728C497.159 159.505 497.214 159.286 497.312 159.086C497.633 158.488 498.385 158.322 499.005 158.045C500.344 157.447 501.218 156.174 502.324 155.183C503.43 154.192 505.04 153.462 506.296 154.214C506.667 154.436 506.965 154.768 507.33 154.995C507.727 155.207 508.164 155.334 508.613 155.367C509.061 155.4 509.512 155.34 509.936 155.189C510.781 154.887 511.611 154.542 512.42 154.153C514.273 153.401 516.712 153.367 517.952 154.945C518.56 155.731 518.848 156.872 519.766 157.259C520.104 157.403 520.485 157.42 520.828 157.547C521.774 157.901 522.15 158.964 522.233 160.016L522.261 159.7Z" fill="black"/>
<path opacity="0.1" d="M495.016 165.496C495.048 164.577 495.377 163.694 495.953 162.978C496.53 162.262 497.323 161.753 498.214 161.527C500.681 160.924 503.268 161.041 505.671 161.865C510.921 163.603 505.007 169.858 505.007 169.858C505.007 169.858 501.074 173.733 497.406 171.026C496.323 170.207 495.564 169.03 495.265 167.705C495.086 166.983 495.002 166.24 495.016 165.496V165.496Z" fill="black"/>
<path opacity="0.1" d="M523.876 165.496C523.844 164.576 523.514 163.692 522.937 162.976C522.359 162.26 521.565 161.752 520.673 161.527C518.208 160.924 515.622 161.042 513.222 161.864C507.972 163.603 513.885 169.858 513.885 169.858C513.885 169.858 517.813 173.733 521.486 171.026C522.57 170.207 523.328 169.03 523.627 167.705C523.807 166.982 523.89 166.24 523.876 165.496Z" fill="black"/>
<path opacity="0.1" d="M504.681 161.355V161.616H514.267V161.306L504.681 161.355Z" fill="black"/>
<path opacity="0.1" d="M507.74 164.129H508.044V163.249C508.044 163.249 509.018 162.49 510.633 163.249V164.035H511.186V163.52H510.915C510.915 163.52 511.026 162.452 509.222 162.623C509.222 162.623 507.773 162.485 507.806 163.404H507.474L507.74 164.129Z" fill="black"/>
<path d="M495.016 165.136C495.048 164.217 495.377 163.334 495.954 162.618C496.53 161.902 497.323 161.393 498.214 161.167C500.681 160.568 503.268 160.685 505.671 161.505C510.921 163.249 505.007 169.498 505.007 169.498C505.007 169.498 501.074 173.373 497.406 170.666C496.321 169.849 495.562 168.672 495.265 167.345C495.085 166.623 495.001 165.88 495.016 165.136V165.136Z" fill="#6C63FF"/>
<path d="M523.876 165.136C523.844 164.217 523.515 163.333 522.937 162.617C522.359 161.901 521.565 161.392 520.673 161.167C518.208 160.568 515.623 160.685 513.222 161.505C507.972 163.249 513.885 169.498 513.885 169.498C513.885 169.498 517.813 173.373 521.486 170.666C522.572 169.849 523.331 168.672 523.627 167.345C523.807 166.623 523.891 165.88 523.876 165.136Z" fill="#6C63FF"/>
<path d="M504.681 161.007V161.273H514.267V160.957L504.681 161.007Z" fill="#6C63FF"/>
<path d="M507.74 163.78H508.044V162.9C508.044 162.9 509.018 162.147 510.633 162.9V163.692H511.186V163.171H510.915C510.915 163.171 511.026 162.108 509.222 162.274C509.222 162.274 507.773 162.142 507.806 163.055H507.474L507.74 163.78Z" fill="#6C63FF"/>
<path d="M69.1201 253.088H65.978V323.89H69.1201V253.088Z" fill="#535461"/>
<path d="M88.8687 323.674L88.6696 326.862L88.393 331.363L88.2768 333.24L88.0002 337.746L87.8785 339.622L87.6019 344.123L84.4321 395.312C84.2969 397.515 83.3271 399.583 81.7205 401.095C80.1138 402.607 77.9913 403.449 75.7858 403.449H59.3117C57.1067 403.449 54.9848 402.607 53.3791 401.095C51.7733 399.583 50.8047 397.514 50.6709 395.312L47.4845 344.123L47.2079 339.622L47.0917 337.746L46.8207 333.228L46.7045 331.352L46.4279 326.851L46.2287 323.663C46.191 323.051 46.2789 322.438 46.487 321.861C46.6951 321.284 47.0191 320.756 47.4389 320.31C47.8588 319.863 48.3656 319.507 48.9281 319.264C49.4906 319.021 50.0969 318.896 50.7096 318.896H84.3934C85.0069 318.896 85.6139 319.021 86.177 319.265C86.74 319.509 87.247 319.866 87.6665 320.314C88.0861 320.762 88.4093 321.291 88.6161 321.869C88.8229 322.447 88.9089 323.061 88.8687 323.674V323.674Z" fill="#3F3D56"/>
<path d="M88.6698 326.862L88.3932 331.363H46.6992L46.4226 326.862H88.6698Z" fill="#9D9CB5"/>
<path d="M88.2771 333.24L88.0005 337.746H47.0976L46.8154 333.24H88.2771Z" fill="#9D9CB5"/>
<path d="M87.8787 339.622L87.6021 344.123H47.4958L47.2136 339.622H87.8787Z" fill="#9D9CB5"/>
<path d="M41.6266 279.627C59.9262 292.874 67.5491 313.599 67.5491 313.599C67.5491 313.599 45.4934 312.841 27.1662 299.594C8.83896 286.347 1.24365 265.621 1.24365 265.621C1.24365 265.621 23.3215 266.379 41.6266 279.627Z" fill="#6C63FF"/>
<path d="M1.27124 265.621C1.27124 265.621 24.1623 278.353 31.5031 288.871C38.844 299.389 67.5491 313.605 67.5491 313.605" stroke="#535461" stroke-width="2" stroke-miterlimit="10"/>
<path d="M53.4373 252.961C63.3947 260.157 67.5492 271.45 67.5492 271.45C67.5492 271.45 55.5449 271.04 45.582 263.827C35.619 256.614 31.4756 245.338 31.4756 245.338C31.4756 245.338 43.4798 245.72 53.4373 252.961Z" fill="#6C63FF"/>
<path d="M31.4756 245.31C31.4756 245.31 43.9334 252.23 47.9275 257.959C51.9215 263.689 67.5492 271.422 67.5492 271.422" stroke="#535461" stroke-width="2" stroke-miterlimit="10"/>
<path d="M82.0261 270.852C70.5805 283.435 68.1631 299.876 68.1631 299.876C68.1631 299.876 84.2941 295.918 95.7341 283.335C107.174 270.752 109.597 254.306 109.597 254.306C109.597 254.306 93.466 258.264 82.0261 270.852Z" fill="#6C63FF"/>
<path d="M109.597 254.306C109.597 254.306 94.6941 267.204 90.9048 276.094C87.1154 284.985 68.1631 299.898 68.1631 299.898" stroke="#535461" stroke-width="2" stroke-miterlimit="10"/>
<defs>
<linearGradient id="paint0_linear" x1="328.102" y1="357.652" x2="328.102" y2="59.6475" gradientUnits="userSpaceOnUse">
<stop stop-color="#808080" stop-opacity="0.25"/>
<stop offset="0.54" stop-color="#808080" stop-opacity="0.12"/>
<stop offset="1" stop-color="#808080" stop-opacity="0.1"/>
</linearGradient>
<linearGradient id="paint1_linear" x1="101807" y1="267615" x2="101807" y2="90674.1" gradientUnits="userSpaceOnUse">
<stop stop-color="#808080" stop-opacity="0.25"/>
<stop offset="0.54" stop-color="#808080" stop-opacity="0.12"/>
<stop offset="1" stop-color="#808080" stop-opacity="0.1"/>
</linearGradient>
</defs>
</svg>
