<svg width="219" height="35" viewBox="0 0 219 35" fill="none" xmlns="http://www.w3.org/2000/svg">
<g clip-path="url(#clip0)">
<path d="M34.2289 17.2474C35.1547 19.0504 35.6215 21.0313 35.5924 23.0334C35.5183 29.704 30.1991 35.0636 23.7019 34.9986C23.5519 34.9986 23.4069 34.9875 23.2603 34.9828V34.9939L7.17815 34.8353H6.72309L4.36352 34.8116C2.58205 34.7941 1.19327 33.1836 1.47137 31.3701L2.89048 24.8406L3.96914 19.8772L5.05285 14.8791L6.1332 9.91574L7.72928 2.55558C7.95512 1.08133 9.19221 -0.00136931 10.64 0.00497155H12.5714C12.6254 0.00497155 12.6816 0.00497155 12.74 0.00497155H12.7568L27.7738 0.0826456C32.9362 0.134958 37.0705 4.47845 37.0115 9.78259C37.0018 12.211 36.059 14.5542 34.357 16.3803C34.2475 16.497 34.1769 16.6415 34.1541 16.7957C34.1314 16.9499 34.1574 17.107 34.2289 17.2474V17.2474Z" fill="#3D3B53"/>
<path d="M49.8879 11.2994C50.0124 11.1938 50.1753 11.1371 50.3429 11.1409H52.4429C52.7328 11.1409 52.8794 11.2725 52.8794 11.5356C52.8803 11.6073 52.8747 11.6789 52.8626 11.7496L48.3305 31.7392H60.6222C60.9947 31.7392 61.1818 31.8708 61.1818 32.1339C61.1832 32.1841 61.1775 32.2342 61.1649 32.2829L60.7789 34.0425C60.698 34.4166 60.4419 34.6021 59.9919 34.6021H45.0406C44.7255 34.6021 44.5687 34.4769 44.5687 34.2248C44.5668 34.1636 44.5725 34.1025 44.5856 34.0425L49.6249 11.7433C49.6612 11.5732 49.7532 11.418 49.8879 11.2994V11.2994Z" fill="#3D3B53"/>
<path d="M68.8102 29.3883C69.2524 30.2319 69.9659 30.923 70.8495 31.3635C71.7688 31.8079 72.7907 32.0318 73.8242 32.015C75.4419 32.0296 77.0371 31.6582 78.4608 30.9355C78.9855 30.6565 79.6153 30.2866 80.3501 29.8258C80.4918 29.7258 80.6635 29.6704 80.8406 29.6673C80.9016 29.6601 80.9635 29.6716 81.0169 29.7002C81.0704 29.7288 81.1126 29.7728 81.1372 29.8258L82.0119 31.3556C82.0653 31.4466 82.0953 31.5481 82.0996 31.652C82.0913 31.7585 82.0564 31.8616 81.9978 31.953C81.9393 32.0444 81.8587 32.1216 81.7625 32.1783C80.5373 33.0387 79.1957 33.7418 77.7732 34.2692C76.4388 34.7381 75.0245 34.9739 73.6001 34.9651C71.9981 34.9889 70.4174 34.6173 69.0158 33.8872C67.6902 33.1958 66.5936 32.1732 65.8472 30.9323C65.0807 29.6527 64.6882 28.2049 64.7096 26.7363C64.709 26.0396 64.7852 25.3447 64.9371 24.6628C65.3687 22.761 66.261 20.9784 67.5444 19.4538C68.8349 17.8781 70.4693 16.5808 72.3377 15.6493C74.1316 14.731 76.1404 14.2472 78.1827 14.2416C80.1883 14.2416 81.8737 14.6009 83.2389 15.3195C84.5441 15.9812 85.608 16.9962 86.2929 18.2332C86.9791 19.51 87.326 20.9242 87.3041 22.3547C87.2993 23.2462 87.1937 24.1347 86.9889 25.0052C86.8845 25.4554 86.721 25.7534 86.4985 25.9024C86.233 26.0617 85.9214 26.1392 85.6069 26.1244H68.1714C68.1141 27.4221 68.327 28.5101 68.8102 29.3883ZM74.1563 17.9843C72.9812 18.4803 71.9156 19.1794 71.0147 20.0451C70.1149 20.9013 69.399 21.9126 68.9062 23.0237H83.9906C84.0007 22.9032 84.0075 22.7272 84.0075 22.4974C84.0264 21.5353 83.7628 20.5869 83.2457 19.7565C82.7289 18.9526 81.9755 18.3067 81.0765 17.8971C80.0481 17.4342 78.918 17.2061 77.7782 17.2313C76.5271 17.2368 75.2919 17.4952 74.1563 17.989V17.9843Z" fill="#3D3B53"/>
<path d="M98.9841 14.4254C99.1196 14.4172 99.2538 14.4555 99.3616 14.5332C99.4063 14.5715 99.4413 14.6187 99.464 14.6714C99.4868 14.7241 99.4967 14.7809 99.493 14.8376C99.4934 14.8909 99.4872 14.9441 99.4745 14.9961L99.0902 16.6416C99.057 16.8032 98.96 16.947 98.8189 17.0442C98.6745 17.1497 98.4961 17.2057 98.3133 17.2028H95.9234L93.1761 29.3883C93.0992 29.7073 93.058 30.033 93.0531 30.3601C93.0326 30.7876 93.1617 31.2097 93.4205 31.5617C93.6649 31.8692 94.0745 32.0277 94.6458 32.0372L95.2222 32.0531C95.6773 32.0531 95.9048 32.1683 95.9048 32.3986C95.907 32.452 95.9013 32.5053 95.888 32.5572L95.4683 34.3675C95.4437 34.5043 95.3655 34.6276 95.2492 34.7131C95.0465 34.8086 94.8193 34.8487 94.5936 34.8288C92.9947 34.8288 91.7784 34.5075 90.9447 33.865C90.1109 33.2224 89.6941 32.3241 89.6941 31.1701C89.6978 30.7328 89.7504 30.2972 89.8508 29.8702L92.7042 17.198H90.5688C90.4342 17.2026 90.3019 17.1647 90.193 17.0902C90.1437 17.0546 90.1043 17.0084 90.0782 16.9554C90.052 16.9024 90.04 16.8442 90.043 16.7858C90.0412 16.7361 90.0474 16.6864 90.0615 16.6384L90.4289 15.0263C90.4729 14.8489 90.577 14.6898 90.7256 14.5729C90.859 14.4698 91.0265 14.4137 91.1992 14.4144H93.3329L94.0509 11.2439C94.0819 11.0861 94.1609 10.9402 94.2784 10.8238C94.4244 10.711 94.5983 10.6346 94.784 10.6019L96.8655 10.3055C96.9172 10.2928 96.9706 10.2875 97.0239 10.2896C97.2447 10.2896 97.361 10.4212 97.361 10.6843C97.3622 10.7613 97.3565 10.8382 97.3442 10.9142L96.5554 14.4191L98.9841 14.4254Z" fill="#3D3B53"/>
<path d="M97.9879 30.1588C97.9813 30.0248 98.0275 29.8933 98.1177 29.7894C98.2438 29.6732 98.3966 29.5859 98.5643 29.5342L100.349 29.0079C100.455 28.9629 100.57 28.9402 100.686 28.9413C100.968 28.9413 101.153 29.1395 101.247 29.5342C101.337 30.0445 101.608 30.5111 102.016 30.8578C102.432 31.2232 102.92 31.5086 103.452 31.698C103.919 31.8769 104.417 31.9747 104.922 31.9865C105.69 31.9837 106.454 31.8725 107.187 31.6568C107.914 31.4533 108.587 31.1081 109.162 30.6438C109.709 30.21 110.084 29.616 110.229 28.9572C110.276 28.7739 110.299 28.586 110.298 28.3976C110.306 28.1782 110.267 27.9596 110.183 27.7548C110.099 27.5499 109.972 27.3631 109.809 27.2055C109.467 26.8825 109.055 26.6327 108.601 26.4731C108.123 26.2966 107.494 26.1043 106.712 25.8961L106.128 25.7423C104.443 25.2921 103.157 24.6475 102.271 23.8084C101.842 23.4243 101.502 22.9616 101.271 22.4491C101.04 21.9365 100.923 21.3849 100.927 20.8282C100.929 20.4966 100.964 20.1659 101.032 19.8406C101.405 18.0303 102.304 16.6369 103.728 15.6604C105.153 14.6839 106.932 14.1956 109.064 14.1956C110.605 14.1956 111.833 14.4889 112.749 15.0754C113.664 15.662 114.451 16.5074 115.108 17.6118C115.185 17.7375 115.227 17.8791 115.231 18.0239C115.231 18.2427 115.085 18.4361 114.793 18.5994L113.411 19.4221C113.277 19.512 113.12 19.5667 112.956 19.5806C112.865 19.5816 112.777 19.5492 112.712 19.4902C112.611 19.395 112.522 19.2885 112.449 19.1732C112.193 18.7719 111.894 18.3969 111.555 18.054C111.235 17.7505 110.851 17.5125 110.428 17.355C109.878 17.1581 109.292 17.0654 108.704 17.0823C107.691 17.0673 106.693 17.3123 105.817 17.7909C105.407 18.009 105.054 18.3092 104.782 18.6704C104.51 19.0315 104.326 19.4446 104.242 19.8802C104.215 19.9882 104.203 20.099 104.207 20.2099C104.207 20.8017 104.572 21.3339 105.301 21.8062C106.047 22.2849 106.881 22.6304 107.76 22.8255C109.626 23.2535 111.075 23.8765 112.107 24.6945C112.603 25.0706 113.001 25.549 113.269 26.0926C113.538 26.6363 113.67 27.2307 113.655 27.8301C113.655 28.2028 113.614 28.5746 113.534 28.9397C113.268 30.1101 112.679 31.1941 111.827 32.0832C110.946 32.9974 109.849 33.7034 108.625 34.144C107.294 34.6387 105.874 34.8895 104.443 34.8827C103.495 34.8836 102.556 34.7103 101.679 34.3723C100.806 34.0395 100.023 33.5283 99.3868 32.8758C98.7317 32.2118 98.2677 31.4016 98.0385 30.5218C98.0087 30.4027 97.9917 30.2811 97.9879 30.1588V30.1588Z" fill="#3D3B53"/>
<path d="M122.14 11.1187H132.534C133.476 11.1064 134.405 11.3249 135.23 11.7528C136.017 12.1637 136.667 12.7703 137.111 13.506C137.572 14.2851 137.805 15.1653 137.785 16.0567C137.778 16.5325 137.721 17.0066 137.617 17.4723C137.187 19.3153 136.056 20.8673 134.224 22.128C135.025 22.5288 135.67 23.1567 136.07 23.9225C136.516 24.7579 136.742 25.6824 136.727 26.6174C136.726 27.1093 136.672 27.5999 136.569 28.0821C136.281 29.2635 135.704 30.3655 134.883 31.3001C134.046 32.2881 133.004 33.1057 131.821 33.7033C130.726 34.2786 129.496 34.5865 128.243 34.5989H116.832C116.517 34.5989 116.359 34.4737 116.359 34.2216C116.357 34.1604 116.364 34.0992 116.377 34.0394L121.434 11.6577C121.442 11.5784 121.466 11.5014 121.506 11.4312C121.546 11.361 121.601 11.299 121.666 11.2488C121.732 11.1986 121.808 11.1613 121.889 11.1389C121.97 11.1166 122.056 11.1097 122.14 11.1187V11.1187ZM120.163 31.7265H128.492C129.271 31.7268 130.035 31.5302 130.705 31.1574C131.377 30.7941 131.962 30.3028 132.421 29.7149C132.837 29.2108 133.13 28.6261 133.277 28.0028C133.344 27.6495 133.379 27.2916 133.383 26.9328C133.383 25.9362 133.088 25.1965 132.498 24.7135C131.908 24.2306 131.16 23.9922 130.252 23.9986H121.889L120.163 31.7265ZM122.571 20.9867H129.64C130.358 20.9877 131.069 20.8416 131.721 20.5587C132.396 20.2692 132.991 19.8394 133.462 19.3017C133.934 18.764 134.269 18.1324 134.443 17.4548C134.539 17.0716 134.592 16.68 134.6 16.2865C134.6 14.7499 133.533 13.9816 131.398 13.9816H124.11L122.571 20.9867Z" fill="#3D3B53"/>
<path d="M142.998 19.3792C144.311 17.8187 145.96 16.5372 147.837 15.6191C149.629 14.7152 151.63 14.2379 153.663 14.2289C155.413 14.2289 156.961 14.5824 158.308 15.2894C159.625 15.969 160.711 16.9844 161.442 18.2189C162.192 19.5013 162.574 20.9451 162.552 22.4086C162.546 23.1383 162.464 23.8656 162.308 24.5803C161.881 26.4816 160.981 28.2606 159.682 29.7719C158.363 31.3479 156.706 32.6444 154.818 33.5764C153.024 34.4941 151.017 34.9804 148.975 34.992C147.364 35.0194 145.773 34.6476 144.363 33.9141C143.046 33.2244 141.956 32.2071 141.213 30.9735C140.453 29.6919 140.064 28.2449 140.086 26.7775C140.09 26.0411 140.178 25.3072 140.347 24.5883C140.787 22.6814 141.695 20.8976 142.998 19.3792V19.3792ZM143.428 26.2749C143.41 27.3018 143.663 28.3169 144.163 29.2298C144.633 30.0835 145.352 30.7938 146.236 31.2779C147.169 31.7826 148.23 32.0391 149.307 32.0198C150.802 32.0214 152.276 31.6826 153.603 31.0322C154.951 30.3801 156.133 29.4606 157.066 28.3373C157.998 27.2399 158.642 25.9519 158.947 24.5772C159.09 23.9437 159.166 23.2986 159.175 22.6511C159.196 21.6574 158.965 20.6731 158.501 19.7803C158.06 18.9614 157.371 18.2835 156.522 17.8321C155.647 17.3607 154.591 17.1251 153.355 17.1251C151.914 17.1428 150.498 17.4841 149.226 18.1206C147.837 18.785 146.608 19.709 145.612 20.8361C144.631 21.91 143.948 23.1967 143.627 24.5803C143.502 25.1377 143.435 25.7053 143.428 26.2749V26.2749Z" fill="#3D3B53"/>
<path d="M168.488 19.3792C169.8 17.8183 171.449 16.5368 173.326 15.6191C175.118 14.7152 177.118 14.2379 179.152 14.2289C180.902 14.2289 182.45 14.5824 183.799 15.2894C185.115 15.9695 186.2 16.9848 186.93 18.2189C187.681 19.5029 188.063 20.9484 188.039 22.4134C188.034 23.1431 187.952 23.8705 187.795 24.5851C187.368 26.4843 186.47 28.2616 185.174 29.7719C183.855 31.3475 182.198 32.6439 180.31 33.5765C178.515 34.4941 176.508 34.9804 174.465 34.992C172.854 35.019 171.264 34.6473 169.854 33.9141C168.538 33.2243 167.45 32.2069 166.709 30.9735C165.947 29.6923 165.558 28.2451 165.579 26.7775C165.583 26.041 165.672 25.307 165.842 24.5883C166.28 22.6814 167.186 20.8974 168.488 19.3792V19.3792ZM168.917 26.2749C168.899 27.3018 169.151 28.3169 169.651 29.2298C170.123 30.083 170.842 30.7932 171.724 31.2779C172.658 31.7824 173.719 32.0388 174.795 32.0198C176.291 32.0214 177.765 31.6826 179.091 31.0322C180.44 30.3797 181.622 29.4603 182.557 28.3373C183.488 27.2399 184.133 25.9519 184.438 24.5772C184.58 23.9437 184.656 23.2986 184.665 22.6511C184.687 21.6574 184.455 20.6731 183.991 19.7803C183.549 18.9592 182.858 18.28 182.005 17.8289C181.129 17.3576 180.073 17.1219 178.837 17.1219C177.396 17.1399 175.98 17.4812 174.708 18.1174C173.319 18.7822 172.09 19.7062 171.094 20.8329C170.113 21.9069 169.43 23.1936 169.109 24.5772C168.987 25.136 168.925 25.7046 168.922 26.2749H168.917Z" fill="#3D3B53"/>
<path d="M189.183 30.1588C189.176 30.0245 189.223 29.8927 189.315 29.7894C189.441 29.6728 189.593 29.5854 189.761 29.5342L191.546 29.0079C191.652 28.9629 191.767 28.9402 191.883 28.9413C192.163 28.9413 192.35 29.1389 192.443 29.5342C192.533 30.0446 192.805 30.5113 193.213 30.8578C193.628 31.2231 194.116 31.5086 194.647 31.698C195.115 31.8769 195.613 31.9747 196.117 31.9865C196.886 31.9835 197.65 31.8724 198.384 31.6568C199.114 31.455 199.791 31.1098 200.369 30.6438C200.916 30.21 201.292 29.616 201.436 28.9572C201.484 28.7741 201.508 28.5862 201.507 28.3976C201.515 28.178 201.475 27.9593 201.391 27.7544C201.307 27.5496 201.179 27.3628 201.017 27.2055C200.675 26.8824 200.263 26.6326 199.81 26.4731C199.331 26.2966 198.701 26.1043 197.919 25.8961L197.325 25.7487C195.64 25.2985 194.354 24.6538 193.466 23.8147C193.038 23.4293 192.698 22.9654 192.468 22.4518C192.238 21.9381 192.122 21.3856 192.128 20.8282C192.129 20.4966 192.164 20.1659 192.232 19.8406C192.606 18.0303 193.505 16.6369 194.929 15.6604C196.352 14.6839 198.132 14.1956 200.267 14.1956C201.806 14.1956 203.033 14.4889 203.949 15.0754C204.865 15.662 205.651 16.5074 206.309 17.6118C206.386 17.7372 206.428 17.879 206.432 18.0239C206.432 18.2427 206.285 18.4361 205.995 18.5994L204.612 19.4221C204.478 19.5125 204.321 19.5672 204.156 19.5806C204.066 19.5812 203.978 19.5489 203.912 19.4902C203.812 19.3942 203.724 19.2878 203.649 19.1732C203.394 18.772 203.095 18.3969 202.758 18.054C202.437 17.7501 202.052 17.5121 201.628 17.355C201.079 17.1581 200.494 17.0654 199.906 17.0823C198.893 17.0673 197.895 17.3123 197.019 17.7909C196.609 18.0088 196.255 18.309 195.983 18.6701C195.711 19.0312 195.526 19.4444 195.443 19.8802C195.416 19.9883 195.405 20.0991 195.409 20.2099C195.409 20.8017 195.774 21.3339 196.503 21.8062C197.249 22.2849 198.082 22.6304 198.96 22.8255C200.826 23.2535 202.275 23.8765 203.309 24.6945C203.805 25.0709 204.202 25.5492 204.471 26.0929C204.739 26.6365 204.872 27.2308 204.858 27.8301C204.856 28.2029 204.815 28.5746 204.735 28.9397C204.469 30.1102 203.881 31.1944 203.029 32.0832C202.148 32.9967 201.051 33.7026 199.827 34.144C198.499 34.629 197.086 34.8722 195.662 34.8605C194.714 34.8617 193.775 34.6883 192.898 34.3501C192.014 34.0287 191.217 33.5249 190.567 32.8758C189.916 32.2112 189.455 31.4016 189.229 30.5234C189.201 30.4036 189.185 30.2814 189.183 30.1588V30.1588Z" fill="#3D3B53"/>
<path d="M218.491 14.4254C218.626 14.417 218.76 14.4554 218.867 14.5332C218.911 14.5715 218.946 14.6187 218.969 14.6714C218.992 14.7241 219.002 14.7809 218.998 14.8376C218.999 14.8909 218.993 14.9441 218.981 14.9961L218.597 16.6416C218.564 16.8032 218.467 16.947 218.326 17.0442C218.181 17.1495 218.003 17.2054 217.82 17.2028H215.423L212.681 29.3883C212.606 29.7075 212.565 30.0331 212.56 30.3601C212.539 30.7877 212.668 31.21 212.927 31.5617C213.171 31.8692 213.58 32.0277 214.153 32.0372L214.729 32.0531C215.178 32.0531 215.406 32.1683 215.412 32.3986C215.413 32.4519 215.407 32.5052 215.395 32.5572L214.975 34.3675C214.95 34.5041 214.872 34.6272 214.756 34.7131C214.553 34.8086 214.326 34.8487 214.1 34.8288C212.5 34.8288 211.284 34.5075 210.451 33.865C209.619 33.2224 209.202 32.3241 209.201 31.1701C209.205 30.7328 209.257 30.2972 209.358 29.8702L212.209 17.198H210.076C209.941 17.2026 209.808 17.1647 209.698 17.0902C209.649 17.0546 209.61 17.0083 209.584 16.9552C209.558 16.9022 209.546 16.8441 209.55 16.7858C209.548 16.7361 209.554 16.6864 209.568 16.6384L209.936 15.0263C209.98 14.8489 210.084 14.6898 210.232 14.5729C210.365 14.4701 210.532 14.4141 210.704 14.4144H212.84L213.558 11.2439C213.587 11.0857 213.667 10.9394 213.785 10.8238C213.931 10.711 214.105 10.6346 214.291 10.6019L216.372 10.3055C216.424 10.2928 216.477 10.2875 216.531 10.2896C216.752 10.2896 216.868 10.4212 216.868 10.6843C216.869 10.7613 216.863 10.8383 216.849 10.9142L216.062 14.4191L218.491 14.4254Z" fill="#3D3B53"/>
<path d="M37.0114 9.77926C37.0704 4.47513 32.9361 0.131636 27.7737 0.0809088L13.859 0.00164795H13.8354C12.4399 0.00164795 11.3343 1.1113 11.3191 2.47301C11.3039 3.83471 12.4298 4.97606 13.8371 4.97606L15.4079 5.01886C16.8135 5.03313 17.936 6.15546 17.9259 7.52984C17.9158 8.90422 16.7579 10.0028 15.3523 9.9901L5.53311 9.89023H5.42187C4.01455 9.87596 2.86342 10.9793 2.84826 12.3505C2.83626 12.8793 3.00452 13.3979 3.3284 13.8303C3.65228 14.2627 4.1148 14.5863 4.64827 14.7537C4.69377 14.7664 4.73928 14.779 4.78479 14.7886C4.97479 14.8347 5.17002 14.8592 5.36625 14.8615L18.2579 15.02C19.6636 15.0343 20.786 16.1582 20.7776 17.531C20.7692 18.9038 19.6079 20.0055 18.2023 19.9912L12.4416 19.9421C11.036 19.9278 9.88314 21.028 9.86629 22.4008C9.84943 23.7736 10.9803 24.8959 12.386 24.9102L14.8854 24.9609C16.2911 24.9752 17.4135 26.0991 17.4034 27.4703C17.3933 28.8415 16.2354 29.9432 14.8298 29.9305L7.87751 29.864C6.47019 29.8497 5.31738 30.953 5.30221 32.3242C5.28704 33.6954 6.41457 34.8209 7.8202 34.8352L23.2552 34.9937V34.9842C23.4018 34.9842 23.5467 34.9969 23.695 34.9985C30.1889 35.0635 35.5114 29.707 35.5856 23.0333C35.6153 21.0315 35.1496 19.0506 34.2255 17.2472C34.1538 17.1065 34.1278 16.949 34.1509 16.7944C34.174 16.6399 34.2451 16.4952 34.3552 16.3785C36.0589 14.5526 37.0024 12.2085 37.0114 9.77926Z" fill="#6C63FF"/>
<path d="M4.90637 19.877L3.52771 19.8627L2.57377 19.8421C1.16645 19.8279 0.0153201 20.928 0.000151492 22.3024C-0.0150172 23.6768 1.11084 24.7959 2.51646 24.8102L2.77096 24.8245L4.85075 24.8451C6.25638 24.8594 7.4092 23.7592 7.42437 22.3864C7.43954 21.0136 6.312 19.8945 4.90637 19.877Z" fill="#6C63FF"/>
</g>
<defs>
<clipPath id="clip0">
<rect width="219" height="35" fill="white"/>
</clipPath>
</defs>
</svg>
