<svg width="634" height="424" viewBox="0 0 634 424" fill="none" xmlns="http://www.w3.org/2000/svg">
<path opacity="0.1" d="M617.308 394.039C610.627 399.586 602.561 403.538 593.852 406.463C592.584 406.897 591.299 407.303 589.995 407.68C586.63 408.683 583.186 409.553 579.712 410.313C578 410.696 576.275 411.049 574.55 411.377C571.616 411.943 568.67 412.447 565.743 412.91C554.877 414.619 543.938 415.883 532.945 416.844C529.556 417.144 526.165 417.414 522.772 417.653L521.417 417.75L518.988 417.915L517.494 418.012C515.222 418.164 512.951 418.298 510.685 418.425C501.605 418.936 492.513 419.307 483.421 419.642C476.739 419.873 470.125 420.067 463.481 420.25L449.967 420.645L446.474 420.748L444.944 420.791C440.943 420.913 436.939 421.028 432.93 421.138L431.801 421.168L428.278 421.271L421.597 421.454L419.605 421.509L417.783 421.557C375.37 422.701 332.927 423.534 290.539 423.175C287.146 423.151 283.755 423.114 280.366 423.065C248.892 422.658 217.455 421.557 186.073 419.417C175.043 418.663 163.94 417.75 152.898 416.492C149.497 416.106 146.106 415.687 142.725 415.233C115.6 411.584 89.1431 405.43 65.4436 393.948C47.5932 385.282 31.1153 372.955 24.2035 356.554C17.2249 340.001 20.9177 321.41 28.8863 305.185C36.8549 288.96 48.8443 274.42 59.1817 259.174C62.7348 253.926 66.0935 248.459 69.1364 242.839C69.3186 242.499 69.5069 242.152 69.6831 241.812C71.242 238.881 72.7118 235.913 74.0925 232.909C75.4044 230.046 76.6192 227.156 77.7367 224.237C78.0728 223.365 78.3947 222.495 78.7024 221.628C78.7389 221.531 78.7753 221.433 78.8057 221.336C78.8361 221.239 78.8846 221.117 78.9211 221.008C80.8859 215.486 82.4171 209.819 83.5006 204.059L83.6464 203.256C83.7132 202.873 83.78 202.496 83.8407 202.113C83.9015 201.73 83.9561 201.401 84.0108 201.043C84.8548 195.643 85.1701 190.175 84.9522 184.714C84.9522 184.514 84.9522 184.313 84.9522 184.106C84.8175 181.307 84.5132 178.519 84.0412 175.756V175.756C84.0047 175.519 83.9683 175.288 83.9197 175.057C83.2121 171.095 82.1406 167.207 80.7189 163.442C80.6581 163.278 80.5913 163.107 80.5245 162.937C80.5245 162.864 80.4699 162.785 80.4395 162.712C79.984 161.551 79.4981 160.401 78.9636 159.252C78.8786 159.057 78.7814 158.856 78.6903 158.644C78.5142 158.273 78.338 157.902 78.1497 157.537C77.2954 155.789 76.3438 154.064 75.2951 152.362C74.0804 150.337 72.7017 148.354 71.2865 146.408L71.0861 146.134L70.9221 145.903C69.0635 143.367 67.12 140.874 65.225 138.356C63.7369 136.392 62.2793 134.416 60.9127 132.403L60.6698 132.038C59.0133 129.609 57.5355 127.062 56.2481 124.418C55.993 123.877 55.744 123.335 55.5132 122.788C55.1002 121.827 54.7176 120.86 54.3774 119.887C49.7129 106.691 51.128 92.2782 53.3692 78.5344C56.6915 58.1134 62.8745 36.1051 82.0126 23.3586C98.7212 12.2237 121.333 10.9223 142.749 13.6285C146.181 14.0542 149.576 14.5833 152.922 15.1914L154.745 15.538C181.833 20.7376 207.452 29.9447 232.755 39.8025C238.664 42.1073 244.562 44.4486 250.453 46.7778C255.057 48.5981 259.663 50.4083 264.271 52.2084C269.595 54.2841 274.96 56.3113 280.366 58.2897C283.743 59.5303 287.134 60.7466 290.539 61.9385C296.002 63.8399 301.5 65.6461 307.035 67.357C310.955 68.5732 314.895 69.7185 318.855 70.7929C337.683 75.9255 356.997 79.4831 376.767 80.1703C391.826 80.701 406.891 79.3031 421.597 76.0107C425.028 75.2323 428.43 74.3383 431.77 73.3288C436.434 71.9227 441.016 70.2599 445.497 68.3482C456.8 63.4832 466.961 57.0613 475.002 48.888L475.069 48.8211C486.98 36.7254 504.441 30.5771 522.735 29.5494C526.123 29.3578 529.519 29.3395 532.909 29.4947C545.627 30.0215 558.132 32.9515 569.764 38.1301C598.699 51.2658 617.411 79.0757 616.002 106.849C613.956 147.278 575.029 178.311 551.804 213.68C550.164 216.173 548.603 218.745 547.151 221.372C546.617 222.333 546.107 223.3 545.609 224.273C539.887 235.463 536.45 247.546 538.32 259.156C538.646 261.202 539.142 263.218 539.802 265.182C540.088 266.04 540.41 266.897 540.768 267.749C543.434 274.11 547.649 279.504 552.848 284.302C555.206 286.459 557.686 288.477 560.277 290.347C581.947 306.122 613.336 316.071 627.202 337.623C638.803 355.496 634.515 379.73 617.308 394.039Z" fill="#6C63FF"/>
<path opacity="0.1" d="M532.957 317.913V224.206H545.657C546.155 223.233 546.665 222.266 547.2 221.305H532.957V122.788H582.761C582.652 121.821 582.53 120.842 582.409 119.887H532.957V29.4272C529.567 29.2721 526.171 29.2904 522.783 29.4819V119.869H431.818V73.2796C428.478 74.2891 425.077 75.183 421.645 75.9614V119.869H291.796L291.487 119.315L318.903 70.7437C314.943 69.6693 311.003 68.524 307.084 67.3077L290.588 96.5285V61.865C287.182 60.6811 283.791 59.4649 280.414 58.2162V99.7394L250.502 46.7468C244.61 44.4177 238.713 42.0764 232.803 39.7715L277.748 119.346L277.432 119.899H152.947V15.13C149.6 14.5219 146.205 13.9928 142.773 13.5671V119.869H54.3772C54.7174 120.842 55.1 121.808 55.513 122.769H142.773V221.287H78.8419C78.8115 221.384 78.7751 221.481 78.7387 221.579C78.4309 222.446 78.109 223.316 77.7729 224.187H142.761V317.913H51.2554C51.5388 318.878 51.8324 319.845 52.136 320.814H142.773V416.704C146.174 417.604 149.566 418.544 152.947 419.525V320.814H280.42V423.077C283.809 423.126 287.201 423.162 290.594 423.186V320.814H421.645V421.441L428.326 421.259L431.849 421.155V320.814H522.759V417.665C526.152 417.421 529.543 417.152 532.933 416.856V320.814H572.715C572.606 319.847 572.502 318.88 572.399 317.913H532.957ZM280.414 317.913H152.947V224.206H280.42L280.414 317.913ZM280.414 221.305H152.947V122.788H278.598L280.42 125.421L280.414 221.305ZM421.645 317.913H290.588V224.206H421.645V317.913ZM421.645 221.305H290.588V122.788H421.645V221.305ZM522.759 317.913H431.818V224.206H522.759V317.913ZM522.759 221.305H431.818V122.788H522.759V221.305Z" fill="#6C63FF"/>
<path opacity="0.1" d="M482.412 58.5448C482.448 59.4752 482.114 60.382 481.483 61.0661C480.852 61.7502 479.976 62.1557 479.047 62.1936H472.257C473.013 62.4175 473.675 62.884 474.14 63.5214C474.605 64.1587 474.848 64.9315 474.832 65.7208C474.868 66.6512 474.534 67.558 473.903 68.242C473.272 68.9261 472.396 69.3316 471.467 69.3696H447.877C447.439 69.3674 447.007 69.2756 446.606 69.0999C446.205 68.9242 445.844 68.6683 445.545 68.3479C456.848 63.4829 467.009 57.061 475.051 48.8877L475.117 48.8208H475.858C476.306 48.8241 476.749 48.9203 477.157 49.1035C477.566 49.2867 477.932 49.5528 478.233 49.885C478.862 50.5842 479.211 51.492 479.211 52.4331C479.211 53.3742 478.862 54.282 478.233 54.9812H479.029C479.946 55.0145 480.814 55.4061 481.446 56.0722C482.079 56.7383 482.425 57.6259 482.412 58.5448Z" fill="#6C63FF"/>
<path opacity="0.1" d="M223.413 89.4621H222.63C223.252 88.7671 223.594 87.8655 223.589 86.9322V86.9322C223.626 86.0018 223.292 85.0951 222.661 84.411C222.03 83.7269 221.154 83.3214 220.225 83.2834H196.635C195.705 83.3214 194.829 83.7269 194.198 84.411C193.568 85.0951 193.234 86.0018 193.27 86.9322V86.9322C193.234 87.8626 193.568 88.7694 194.198 89.4535C194.829 90.1375 195.705 90.5431 196.635 90.581H197.424C196.8 91.2751 196.456 92.1768 196.458 93.1109C196.443 93.8999 196.687 94.6723 197.152 95.3094C197.617 95.9465 198.278 96.4133 199.034 96.638H192.243C191.35 96.735 190.524 97.159 189.924 97.8285C189.324 98.4981 188.992 99.3659 188.992 100.266C188.992 101.165 189.324 102.033 189.924 102.703C190.524 103.372 191.35 103.796 192.243 103.893H215.833C216.763 103.855 217.639 103.45 218.27 102.765C218.9 102.081 219.234 101.175 219.198 100.244C219.221 99.4547 218.984 98.6797 218.523 98.0388C218.062 97.398 217.402 96.927 216.647 96.6988H223.438C224.337 96.6085 225.17 96.187 225.776 95.5161C226.382 94.8453 226.718 93.9729 226.718 93.0683C226.718 92.1637 226.382 91.2913 225.776 90.6204C225.17 89.9496 224.337 89.5281 223.438 89.4377L223.413 89.4621Z" fill="#6C63FF"/>
<path opacity="0.1" d="M515.228 237.329H514.438C515.063 236.636 515.405 235.733 515.398 234.8V234.8C515.434 233.869 515.1 232.963 514.469 232.278C513.839 231.594 512.962 231.189 512.033 231.151H488.443C487.515 231.19 486.639 231.596 486.009 232.28C485.378 232.964 485.044 233.87 485.078 234.8V234.8C485.044 235.73 485.378 236.635 486.009 237.319C486.639 238.003 487.515 238.409 488.443 238.448H489.233C488.61 239.143 488.268 240.045 488.273 240.978C488.256 241.767 488.499 242.539 488.965 243.176C489.43 243.812 490.092 244.277 490.848 244.499H484.058C483.159 244.59 482.326 245.011 481.72 245.682C481.113 246.353 480.778 247.225 480.778 248.13C480.778 249.034 481.113 249.907 481.72 250.578C482.326 251.248 483.159 251.67 484.058 251.76H507.648C508.577 251.721 509.452 251.315 510.082 250.631C510.713 249.947 511.047 249.041 511.013 248.112C511.029 247.323 510.786 246.551 510.32 245.915C509.855 245.279 509.193 244.813 508.438 244.59H515.228C516.127 244.5 516.96 244.079 517.567 243.408C518.173 242.737 518.508 241.865 518.508 240.96C518.508 240.055 518.173 239.183 517.567 238.512C516.96 237.841 516.127 237.42 515.228 237.329V237.329Z" fill="#6C63FF"/>
<path opacity="0.1" d="M98.6106 250.5C125.138 246.672 142.535 215.028 137.468 179.821C132.401 144.613 106.789 119.175 80.2611 123.002C53.7336 126.83 36.3364 158.474 41.4035 193.681C46.4706 228.889 72.0831 254.327 98.6106 250.5Z" fill="black"/>
<path d="M99.8665 249.979C126.394 246.152 143.791 214.508 138.724 179.3C133.657 144.093 108.045 118.654 81.517 122.482C54.9894 126.309 37.5923 157.953 42.6594 193.161C47.7265 228.368 73.339 253.807 99.8665 249.979Z" fill="#3A3768"/>
<path d="M135.412 194.712C135.065 200.674 133.951 206.567 132.096 212.244C129.994 218.859 126.59 224.986 122.086 230.263C116.62 236.521 109.672 240.662 101.788 241.817C100.486 242.003 99.1737 242.105 97.8586 242.122C76.5401 242.413 56.6307 220.229 52.3366 190.388C47.7996 158.728 62.5282 130.359 85.2801 127.106C92.0522 126.126 98.7636 127.476 104.977 130.7C113.923 135.321 121.837 143.823 127.377 154.806C131.092 162.262 133.576 170.271 134.732 178.523C135.514 183.881 135.742 189.306 135.412 194.712V194.712Z" fill="#6C63FF"/>
<path d="M103.179 186.946L100.24 213.758C100.24 213.758 109.642 212.877 112.387 208.17L103.72 186.496L103.179 186.946Z" fill="#6C63FF"/>
<path opacity="0.2" d="M103.179 186.946L100.24 213.758C100.24 213.758 109.642 212.877 112.387 208.17L103.72 186.496L103.179 186.946Z" fill="black"/>
<path opacity="0.2" d="M61.8117 186.052L76.6011 185.054C76.6011 185.054 78.1377 196.305 82.8084 202.636L72.307 214.068C72.307 214.068 61.417 196.694 61.8117 186.052Z" fill="black"/>
<path opacity="0.3" d="M99.264 184.657L64.3782 222.115L64.8224 222.529L99.7082 185.072L99.264 184.657Z" fill="white"/>
<path opacity="0.3" d="M51.9236 187.098L51.875 186.49L100.391 182.95L100.44 183.552L51.9236 187.098Z" fill="white"/>
<path opacity="0.2" d="M127.365 154.782L123.168 159.878C112.788 139.986 104.127 138.867 104.127 138.867L104.965 130.669C113.924 135.297 121.838 143.799 127.365 154.782Z" fill="black"/>
<path opacity="0.2" d="M81.4536 161.1L100.61 181.168L99.2677 181.734L76.9895 172.965C76.9895 172.965 78.7752 165.831 81.4536 161.1Z" fill="black"/>
<path opacity="0.3" d="M53.2697 162.984L53.0476 163.55L99.2663 181.732L99.4884 181.166L53.2697 162.984Z" fill="white"/>
<path opacity="0.2" d="M104.765 182.835L120.386 180.622C120.386 180.622 121.485 187.092 120.902 188.983C120.884 189.042 120.861 189.098 120.836 189.154L104.765 182.835Z" fill="black"/>
<path opacity="0.2" d="M69.1426 148.597C69.1426 148.597 75.6718 139.153 83.8044 136.647L90.9956 153.863C90.9956 153.863 83.9866 156.46 81.5328 161.641L69.1426 148.597Z" fill="black"/>
<path opacity="0.3" d="M102.116 179.587L101.594 179.52C101.479 179.52 101.351 179.484 101.266 179.119L79.8564 128.401L80.4152 128.164L101.132 177.252C101.132 174.521 101.46 168.44 102.596 154.885C103.598 142.917 104.764 130.815 104.777 130.693L105.384 130.754C103.647 148.761 101.327 175.756 101.788 178.797L102.116 179.587Z" fill="white"/>
<path opacity="0.3" d="M62.6651 141.589L62.2295 142.012L99.6772 180.596L100.113 180.173L62.6651 141.589Z" fill="white"/>
<path opacity="0.2" d="M116.353 167.042L122.894 159.623C122.894 159.623 129.108 174.966 128.409 179.527L120.641 180.621C120.641 180.621 117.847 167.455 116.353 167.042Z" fill="black"/>
<path opacity="0.3" d="M127.14 154.595L104.163 180.499L104.617 180.903L127.594 154.999L127.14 154.595Z" fill="white"/>
<path opacity="0.3" d="M120.926 180.895L120.89 180.573C120.89 180.475 120.89 180.384 120.847 180.293C120.805 180.202 120.847 180.044 120.799 179.916C120.178 175.474 118.819 171.168 116.778 167.175C116.711 167.048 116.645 166.92 116.572 166.792C116.544 166.729 116.512 166.668 116.474 166.61C113.207 160.529 108.518 155.986 103.289 153.839C103.094 153.754 102.9 153.681 102.681 153.608C99.974 152.572 97.0485 152.239 94.1781 152.641C93.1103 152.793 92.0604 153.052 91.0441 153.413C90.9651 153.433 90.8879 153.46 90.8133 153.492L90.4671 153.62C86.8098 155.129 83.6845 157.695 81.4902 160.991L81.4234 161.088L81.2473 161.35C81.2094 161.398 81.1749 161.449 81.144 161.502C80.8889 161.885 80.6399 162.274 80.403 162.681C80.1662 163.089 79.9536 163.46 79.741 163.898C78.3702 166.533 77.3688 169.344 76.7649 172.253C76.7163 172.454 76.6738 172.661 76.6374 172.861C75.8888 176.773 75.7291 180.774 76.1636 184.732L76.2001 185.091C76.2001 185.17 76.2001 185.255 76.2304 185.334C76.2729 185.669 76.3155 186.003 76.3641 186.338C77.1596 192.167 79.2563 197.741 82.4984 202.648C82.5349 202.709 82.5774 202.763 82.6199 202.824C82.6624 202.885 82.7718 203.049 82.8568 203.159C83.0633 203.463 83.2759 203.767 83.5006 204.047C87.7522 209.708 93.4432 213.314 99.4075 213.74C99.6687 213.74 99.9359 213.771 100.203 213.777H100.811C101.526 213.77 102.24 213.715 102.948 213.612C106.594 213.04 109.969 211.339 112.599 208.747C112.757 208.601 112.915 208.449 113.067 208.291C115.547 205.719 117.479 202.669 118.746 199.327C118.831 199.121 118.91 198.914 118.989 198.719C120.05 195.803 120.732 192.761 121.018 189.67L121.072 189.032C121.292 186.321 121.243 183.596 120.926 180.895ZM118.552 198.257C118.479 198.47 118.4 198.683 118.321 198.865C117.109 202.144 115.25 205.146 112.855 207.689C112.703 207.847 112.551 208.005 112.393 208.151C109.824 210.731 106.501 212.422 102.906 212.98C102.244 213.078 101.577 213.131 100.908 213.138H100.3C94.0627 213.01 88.0862 209.246 83.695 203.213L83.3184 202.684C83.1969 202.514 83.0815 202.344 82.9722 202.167C79.8223 197.364 77.7864 191.916 77.0139 186.222C76.9654 185.9 76.9228 185.578 76.8864 185.261C76.8864 185.055 76.8378 184.854 76.8196 184.653C76.3934 180.787 76.5428 176.879 77.263 173.056C77.2994 172.849 77.3358 172.649 77.3844 172.448C77.9753 169.557 78.9668 166.763 80.3302 164.147L80.731 163.411C81.0165 162.906 81.3384 162.414 81.6238 161.946C81.7149 161.806 81.806 161.666 81.9032 161.532C81.9233 161.496 81.9456 161.462 81.97 161.429C84.1061 158.184 87.1656 155.657 90.7525 154.174L91.3235 153.961C93.3805 153.249 95.5602 152.961 97.7312 153.115C99.418 153.243 101.077 153.616 102.657 154.222L103.264 154.459C108.354 156.6 112.903 161.1 116.074 167.078C116.177 167.267 116.274 167.461 116.371 167.656C118.311 171.539 119.603 175.713 120.198 180.013L120.252 180.384C120.252 180.457 120.252 180.536 120.252 180.609C120.252 180.682 120.283 180.858 120.295 180.986C120.611 183.575 120.674 186.188 120.483 188.788C120.483 188.855 120.483 188.922 120.483 188.983L120.447 189.427C120.196 192.44 119.559 195.407 118.552 198.257Z" fill="white"/>
<path opacity="0.2" d="M135.412 194.712C135.065 200.674 133.951 206.567 132.096 212.244L125.858 205.926C127.559 203.359 128.604 192.303 128.604 192.303L128.962 192.553C129.278 193.228 132.728 194.11 135.412 194.712Z" fill="black"/>
<path opacity="0.3" d="M105.308 185.041L104.88 185.472L131.904 212.389L132.332 211.958L105.308 185.041Z" fill="white"/>
<path opacity="0.3" d="M135.266 195.424L104.108 182.811L134.683 178.207L134.774 178.809L106.398 183.078L135.491 194.858L135.266 195.424Z" fill="white"/>
<path opacity="0.2" d="M122.087 230.288C116.62 236.545 109.672 240.687 101.789 241.842C100.487 242.028 99.1739 242.129 97.8589 242.146L99.1344 229.375C99.1344 229.375 110.814 229.552 117.58 220.114L122.087 230.288Z" fill="black"/>
<path opacity="0.3" d="M104.228 187.061L103.667 187.296L121.725 230.497L122.285 230.263L104.228 187.061Z" fill="white"/>
<path opacity="0.3" d="M102.505 187.511L97.7739 242.099L98.379 242.151L103.11 187.564L102.505 187.511Z" fill="white"/>
<path opacity="0.3" d="M128.762 179.715C128.762 179.514 128.719 179.314 128.689 179.107C128.634 178.608 128.567 178.11 128.494 177.611C127.628 171.458 125.879 165.463 123.301 159.811V159.756L123.046 159.215C118.594 149.819 112.083 142.485 104.679 138.46C104.534 138.374 104.382 138.295 104.23 138.216L104.102 138.149C99.2743 135.544 93.7473 134.533 88.311 135.261C86.8006 135.479 85.314 135.84 83.8711 136.337L83.3002 136.544C78.4012 138.464 74.122 141.693 70.9282 145.879C70.3208 146.645 69.7398 147.444 69.185 148.275C69.0697 148.445 68.9542 148.615 68.8449 148.792C65.4555 154.172 63.147 160.162 62.0485 166.427C62.006 166.628 61.9695 166.829 61.9392 167.036C60.8742 173.228 60.7289 179.544 61.508 185.778C61.508 185.979 61.5565 186.18 61.5869 186.386C61.6173 186.593 61.6598 186.964 61.7023 187.256C61.7691 187.724 61.842 188.199 61.921 188.661C61.921 188.661 61.921 188.661 61.921 188.703C62.2186 190.528 62.5891 192.297 63.0264 194.037C63.0235 194.055 63.0235 194.073 63.0264 194.091C64.7507 201.218 67.7867 207.959 71.9789 213.971C72.0943 214.141 72.2097 214.306 72.3373 214.476C73.5305 216.121 74.829 217.687 76.2244 219.165C77.0383 220.028 77.8764 220.837 78.7268 221.597C84.2356 226.541 90.3882 229.351 96.6258 229.795C97.3547 229.843 98.0896 229.862 98.8184 229.843H99.0735C99.1929 229.85 99.3125 229.85 99.4318 229.843C100.245 229.813 101.056 229.74 101.861 229.625C107.838 228.761 113.249 225.745 117.653 220.898C117.707 220.843 117.756 220.782 117.805 220.728L118.102 220.399C120.225 217.954 122.035 215.254 123.49 212.36C124.444 210.486 125.272 208.549 125.968 206.564C126.01 206.459 126.046 206.351 126.077 206.242C126.119 206.136 126.155 206.029 126.186 205.92C127.603 201.695 128.508 197.316 128.883 192.875C128.883 192.778 128.883 192.687 128.913 192.589C128.944 192.492 128.913 192.358 128.944 192.243C129.069 190.589 129.134 188.916 129.138 187.226C129.154 184.717 129.028 182.21 128.762 179.715V179.715ZM128.342 192.62C127.991 196.977 127.123 201.276 125.755 205.427C125.686 205.638 125.613 205.841 125.536 206.035C124.831 208.091 123.983 210.094 122.998 212.031C121.609 214.791 119.892 217.372 117.884 219.718C117.744 219.888 117.592 220.059 117.44 220.223C113.067 225.088 107.722 228.129 101.794 228.974C101.029 229.083 100.264 229.156 99.4986 229.193H98.8913C91.9734 229.339 85.0616 226.474 78.9636 220.928C78.1923 220.229 77.4331 219.481 76.686 218.696C75.2827 217.209 73.9762 215.632 72.7746 213.977L72.5984 213.722L72.4162 213.466C67.2597 206.169 63.7309 197.047 62.3036 187.116C62.2611 186.842 62.2246 186.569 62.1882 186.295C62.1882 186.192 62.1882 186.088 62.1457 185.979C62.1032 185.869 62.1457 185.79 62.1153 185.693C61.3428 179.549 61.4758 173.324 62.5101 167.218L62.6194 166.61C63.6942 160.425 65.9636 154.508 69.3004 149.193C69.3612 149.092 69.428 148.988 69.5009 148.883C69.5434 148.81 69.592 148.737 69.6406 148.67C70.1751 147.861 70.7399 147.083 71.323 146.341C74.4696 142.174 78.7079 138.962 83.5675 137.061L83.9744 136.915L84.1445 136.854C85.5384 136.376 86.974 136.03 88.4325 135.82C90.1098 135.581 91.8077 135.52 93.4979 135.638C97.1951 135.93 100.791 136.993 104.054 138.758L104.175 138.818L104.631 139.068C108.821 141.454 112.529 144.604 115.563 148.354C118.392 151.81 120.771 155.61 122.645 159.665C122.676 159.72 122.7 159.781 122.724 159.835L122.925 160.261C125.413 165.792 127.106 171.647 127.954 177.654C128.027 178.152 128.093 178.645 128.154 179.144C128.154 179.265 128.154 179.381 128.197 179.502C128.239 179.624 128.197 179.667 128.197 179.752C128.659 183.789 128.738 187.862 128.434 191.914C128.397 192.17 128.367 192.405 128.342 192.62Z" fill="white"/>
<path d="M102.84 187.541C104.51 187.3 105.596 185.24 105.265 182.939C104.934 180.639 103.311 178.969 101.641 179.21C99.9715 179.451 98.8861 181.511 99.2171 183.812C99.5482 186.112 101.17 187.782 102.84 187.541Z" fill="#6C63FF"/>
<path opacity="0.2" d="M102.84 187.541C104.51 187.3 105.596 185.24 105.265 182.939C104.934 180.639 103.311 178.969 101.641 179.21C99.9715 179.451 98.8861 181.511 99.2171 183.812C99.5482 186.112 101.17 187.782 102.84 187.541Z" fill="black"/>
<path opacity="0.1" d="M407.208 36.123C411.75 36.123 415.432 32.4365 415.432 27.8889C415.432 23.3413 411.75 19.6548 407.208 19.6548C402.666 19.6548 398.984 23.3413 398.984 27.8889C398.984 32.4365 402.666 36.123 407.208 36.123Z" fill="#6C63FF"/>
<path opacity="0.1" d="M28.7831 124.266C33.3249 124.266 37.0068 120.579 37.0068 116.031C37.0068 111.484 33.3249 107.797 28.7831 107.797C24.2412 107.797 20.5593 111.484 20.5593 116.031C20.5593 120.579 24.2412 124.266 28.7831 124.266Z" fill="#6C63FF"/>
<path opacity="0.1" d="M606.873 182.749C611.415 182.749 615.097 179.063 615.097 174.515C615.097 169.968 611.415 166.281 606.873 166.281C602.331 166.281 598.649 169.968 598.649 174.515C598.649 179.063 602.331 182.749 606.873 182.749Z" fill="#6C63FF"/>
<path opacity="0.1" d="M573.602 232.44C578.144 232.44 581.826 228.753 581.826 224.206C581.826 219.658 578.144 215.972 573.602 215.972C569.06 215.972 565.378 219.658 565.378 224.206C565.378 228.753 569.06 232.44 573.602 232.44Z" fill="#6C63FF"/>
<path opacity="0.1" d="M431.412 19.2413C433.505 19.2413 435.201 17.5424 435.201 15.4466C435.201 13.3508 433.505 11.6519 431.412 11.6519C429.318 11.6519 427.622 13.3508 427.622 15.4466C427.622 17.5424 429.318 19.2413 431.412 19.2413Z" fill="#6C63FF"/>
<path opacity="0.1" d="M3.78996 100.707C5.8831 100.707 7.57992 99.0077 7.57992 96.9119C7.57992 94.8162 5.8831 93.1172 3.78996 93.1172C1.69682 93.1172 0 94.8162 0 96.9119C0 99.0077 1.69682 100.707 3.78996 100.707Z" fill="#6C63FF"/>
<path opacity="0.1" d="M602.439 274.857C604.533 274.857 606.229 273.158 606.229 271.063C606.229 268.967 604.533 267.268 602.439 267.268C600.346 267.268 598.649 268.967 598.649 271.063C598.649 273.158 600.346 274.857 602.439 274.857Z" fill="#6C63FF"/>
<path opacity="0.1" d="M452.05 5.36372C453.529 5.36372 454.729 4.16301 454.729 2.68186C454.729 1.20071 453.529 0 452.05 0C450.571 0 449.372 1.20071 449.372 2.68186C449.372 4.16301 450.571 5.36372 452.05 5.36372Z" fill="#6C63FF"/>
<path opacity="0.1" d="M20.5593 156.558C22.0386 156.558 23.2378 155.357 23.2378 153.876C23.2378 152.395 22.0386 151.194 20.5593 151.194C19.0801 151.194 17.8809 152.395 17.8809 153.876C17.8809 155.357 19.0801 156.558 20.5593 156.558Z" fill="#6C63FF"/>
<path d="M587.268 389.691C587.268 389.691 582.725 370.127 579.7 346.343C576.675 322.559 553.225 283.037 553.225 283.037C553.122 282.836 553.012 282.629 552.903 282.429C549.267 275.519 544.893 269.025 539.857 263.06C529.532 250.855 520.166 245.369 519.698 245.102C518.957 243.97 518.162 242.724 517.324 241.392C514.177 236.411 510.436 230.148 506.865 223.385C506.865 223.227 506.81 223.075 506.78 222.917C505.188 213.284 505.128 203.153 509.914 194.833C512.276 190.729 515.684 187.347 518.283 183.394C522.535 176.948 524.466 169.255 526.027 161.666C527.126 156.357 528.074 150.945 527.795 145.538C527.795 145.453 527.795 145.374 527.795 145.295C527.795 144.918 527.746 144.541 527.71 144.164C526.817 134.361 521.684 125.555 516.68 117.12C514.044 112.681 511.274 108.102 507.029 105.231C498.198 99.2655 487.374 102.999 477.936 99.5817C467.908 95.9329 458.743 92.5335 447.829 91.4145C443.96 91.0192 439.708 90.9219 436.574 93.2389C433.282 95.6714 432.189 100.111 430.003 103.62C425.83 110.309 417.959 113.35 411.314 117.558C406.267 120.726 401.426 125.792 400.381 131.369C400.381 131.369 400.381 131.338 400.381 131.32C400.271 131.923 400.206 132.532 400.187 133.145C400.187 133.181 400.187 133.224 400.187 133.26V133.443C400.167 134.568 400.318 135.69 400.637 136.769C401.013 136.964 401.396 137.134 401.784 137.304C401.542 137.699 401.299 138.095 401.068 138.52L400.558 139.427C396.5 146.756 394.043 154.865 393.348 163.216C392.654 171.567 393.738 179.971 396.528 187.872C399.319 195.772 403.753 202.99 409.537 209.047C415.321 215.104 422.324 219.863 430.082 223.008V223.008C430.44 223.884 430.81 224.79 431.175 225.727C437.444 241.521 440.739 258.342 440.893 275.338V275.338C440.893 275.496 440.893 275.654 440.893 275.812C440.893 276.42 440.893 277.029 440.893 277.667C435.426 284.6 429.76 293.199 429.96 299.146C430.288 309.108 417.023 332.283 413.446 338.34L412.729 339.557C409.158 336.966 404.912 334.637 402.853 336.273L401.128 335.166C392.407 329.559 376.834 319.172 370.961 312.963C362.64 304.139 346.375 296.081 346.375 296.081C346.375 296.081 333.517 280.732 334.276 274.979C334.652 272.115 329.49 249.249 323.094 232.471C327.765 232.963 332.563 233.553 334.027 233.736L334.385 234.052L334.889 234.131C352.57 249.687 356.439 242.754 356.439 242.754C357.884 241.775 358.376 238.826 358.516 237.695C358.516 237.585 358.516 237.5 358.516 237.427H358.607C358.607 237.336 358.607 237.263 358.607 237.202C358.644 237.135 358.677 237.066 358.704 236.995L358.747 236.916L358.777 236.855C358.777 236.807 358.819 236.752 358.844 236.697C358.946 236.504 359.025 236.3 359.081 236.089H359.032C359.265 234.817 359.389 233.527 359.402 232.234C359.407 231.234 359.069 230.263 358.446 229.482C357.823 228.701 356.952 228.157 355.977 227.94C355.977 227.91 355.977 227.879 355.947 227.843C353.651 221.007 336.954 231.145 335.108 232.294L334.658 232.343C331.312 231.674 326.155 230.452 321.788 229.394C315.867 214.969 309.149 206.893 304.843 224.644L300.883 223.963C300.39 223.874 299.885 223.887 299.398 224.002C298.911 224.118 298.453 224.332 298.053 224.632C297.495 225.043 297.033 225.57 296.698 226.177L279.516 223.452L275.465 223.592L278.896 225.252L279.151 225.374L296.334 228.177C296.438 228.99 296.807 229.745 297.384 230.327C297.96 230.908 298.712 231.283 299.522 231.394L303.379 231.954C296.492 272.206 311.882 285.342 311.882 285.342C311.882 285.342 330.413 303.537 330.413 307.843C330.413 311.491 366.588 354.833 377.581 367.914C379.549 370.261 380.715 371.636 380.715 371.636C385.033 376.604 405.799 393.577 415.462 401.398C416.41 409.303 417.284 417.209 417.789 421.545L419.611 421.496L428.253 421.259L432.906 421.119C436.914 421.01 440.919 420.894 444.92 420.773L446.45 420.73L449.942 420.621C454.449 420.491 458.954 420.357 463.456 420.219C470.101 420.019 476.745 419.824 483.396 419.611C492.507 419.289 501.581 418.918 510.661 418.395C512.926 418.267 515.198 418.133 517.469 417.981L518.963 417.878L521.393 417.714C536.249 416.662 551.044 415.147 565.731 412.812C568.658 412.344 571.604 411.833 574.537 411.255C576.262 410.927 577.987 410.568 579.7 410.179C583.174 409.407 586.618 408.525 589.983 407.509C588.549 397.232 587.268 389.691 587.268 389.691Z" fill="url(#paint0_linear)"/>
<path d="M336.76 236.308L334.501 236.229C334.501 236.229 319.177 234.325 314.269 234.21C313.775 234.139 313.271 234.178 312.793 234.325L313.88 229.935L315.211 230.263C319.881 231.418 335.363 235.213 337.853 235.298C340.799 235.396 336.76 236.308 336.76 236.308Z" fill="#6C63FF"/>
<path d="M334.98 234.848C334.98 234.848 353.566 223.209 355.995 230.354C358.425 237.5 352.09 238.552 352.09 238.552L334.98 234.848Z" fill="#6C63FF"/>
<path opacity="0.2" d="M334.98 234.848C334.98 234.848 353.566 223.209 355.995 230.354C358.425 237.5 352.09 238.552 352.09 238.552L334.98 234.848Z" fill="black"/>
<path d="M356.433 245.083C356.433 245.083 352.515 252.028 334.476 236.229L334.725 235.907L335.472 234.94C335.472 234.94 358.82 224.194 359.427 234.69C359.418 236.056 359.272 237.417 358.99 238.753C358.924 239.043 358.798 239.317 358.619 239.555L358.534 239.634C358.534 239.634 358.534 239.799 358.485 240.078C358.37 241.197 357.878 244.104 356.433 245.083Z" fill="#6C63FF"/>
<path opacity="0.1" d="M356.433 245.083C356.433 245.083 352.515 252.028 334.476 236.229L334.725 235.907L335.144 235.475L358.619 239.555L358.534 239.634C358.534 239.634 358.534 239.799 358.485 240.078C358.37 241.197 357.878 244.104 356.433 245.083Z" fill="black"/>
<path opacity="0.1" d="M358.631 239.829L334.616 235.961L333.401 234.927L335.6 234.672L359.111 238.485C359.049 238.816 358.893 239.122 358.661 239.367C358.661 239.367 358.668 239.549 358.631 239.829Z" fill="black"/>
<path opacity="0.1" d="M358.394 240.328L334.379 236.478L333.164 235.45L335.357 235.189L358.892 239.002C358.832 239.335 358.673 239.642 358.437 239.884C358.437 239.884 358.431 240.054 358.394 240.328Z" fill="black"/>
<path d="M358.51 240.078L334.476 236.229L333.262 235.201L335.454 234.94L358.971 238.753C358.904 239.083 358.746 239.388 358.516 239.634C358.516 239.634 358.546 239.799 358.51 240.078Z" fill="#4C4C56"/>
<path opacity="0.1" d="M314.269 234.21C313.775 234.139 313.271 234.178 312.793 234.325L313.88 229.935L315.211 230.263C315.061 231.612 314.745 232.938 314.269 234.21V234.21Z" fill="black"/>
<path d="M314.433 228.81L300.943 226.523C300.451 226.435 299.947 226.448 299.46 226.562C298.973 226.676 298.515 226.888 298.113 227.186C297.559 227.545 297.107 228.042 296.801 228.628C296.496 229.214 296.347 229.87 296.37 230.531C296.448 231.368 296.808 232.155 297.392 232.759C297.977 233.364 298.749 233.751 299.583 233.857L313.109 235.779C313.109 235.779 315.551 229.813 314.433 228.81Z" fill="#D1D9EC"/>
<path opacity="0.1" d="M275.762 226.28L279.819 226.134L297.305 228.876C297.434 228.896 297.557 228.942 297.667 229.01C297.777 229.078 297.873 229.168 297.948 229.275C298.022 229.381 298.075 229.501 298.103 229.628C298.13 229.755 298.132 229.886 298.107 230.014V230.014C298.058 230.259 297.917 230.476 297.712 230.619C297.507 230.762 297.254 230.819 297.008 230.78L279.206 227.916L275.762 226.28Z" fill="black"/>
<path d="M275.513 226.158L279.564 226.018L297.056 228.755C297.183 228.775 297.304 228.821 297.413 228.889C297.522 228.957 297.616 229.046 297.69 229.151C297.764 229.255 297.816 229.374 297.844 229.499C297.872 229.624 297.875 229.754 297.852 229.88V229.88C297.805 230.125 297.665 230.342 297.461 230.486C297.257 230.63 297.005 230.69 296.759 230.652L278.951 227.782L275.513 226.158Z" fill="#DFE6F5"/>
<path d="M407.232 340.122L380.757 372.31C380.757 372.31 379.591 370.954 377.623 368.631C366.63 355.721 330.455 312.963 330.455 309.338C330.455 305.081 311.925 287.105 311.925 287.105C311.925 287.105 295.283 273.118 304.357 229.527C313.431 185.936 334.992 271.196 334.239 276.876C333.486 282.556 346.338 297.705 346.338 297.705C346.338 297.705 362.603 305.659 370.924 314.368C376.779 320.498 392.37 330.751 401.092 336.26C404.772 338.62 407.232 340.122 407.232 340.122Z" fill="#FDC2CC"/>
<path opacity="0.1" d="M407.232 340.122L380.757 372.31C380.757 372.31 379.591 370.954 377.623 368.631C378.048 359.618 397.059 339.733 400.424 336.71C400.622 336.533 400.847 336.389 401.092 336.284C404.773 338.62 407.232 340.122 407.232 340.122Z" fill="black"/>
<path d="M418.578 345.425C418.578 345.425 406.473 334.065 402.695 337.477C398.918 340.889 375.085 365.877 380.757 372.317C386.43 378.757 420.467 405.63 420.467 405.63L418.578 345.425Z" fill="#5F5D7E"/>
<path opacity="0.1" d="M418.578 345.425C418.578 345.425 406.473 334.065 402.695 337.477C398.918 340.889 375.085 365.877 380.757 372.317C386.43 378.757 420.467 405.63 420.467 405.63L418.578 345.425Z" fill="black"/>
<path d="M524.855 254.917C524.855 254.917 513.042 266.331 498.246 278.713L497.687 279.175L496.825 279.893C473.223 299.438 442.806 320.528 439.672 302.479C439.321 300.123 439.307 297.729 439.629 295.369C439.666 295.023 439.714 294.664 439.763 294.299C439.812 293.934 439.86 293.594 439.897 293.247C440.486 288.699 440.812 284.12 440.874 279.534C440.874 278.761 440.874 277.995 440.874 277.235C440.719 260.446 437.423 243.835 431.157 228.262C430.792 227.338 430.422 226.438 430.063 225.58C425.204 213.977 420.449 207.203 420.449 207.203C420.449 207.203 427.476 202.946 437.218 197.472C440.795 195.478 444.731 193.331 448.825 191.178C471.297 179.38 498.319 167.583 494.578 181.448C492.81 188.01 494.45 196.718 497.706 205.834C497.888 206.339 498.07 206.832 498.258 207.33C500.369 212.839 502.803 218.218 505.547 223.44L505.729 223.792C509.634 231.285 513.843 238.284 517.33 243.727C518.168 245.04 518.963 246.269 519.704 247.376C522.76 252.058 524.855 254.917 524.855 254.917Z" fill="#FDC2CC"/>
<path opacity="0.1" d="M498.276 207.33C498.1 207.592 497.912 207.853 497.724 208.109C492.051 215.832 485.485 220.429 477.681 223.02C472.299 224.814 466.311 225.659 459.599 225.927C457.929 225.988 456.222 226.018 454.461 226.018C450.402 226.025 446.345 225.792 442.314 225.319C440.194 224.984 437.977 226.413 435.833 227.459C434.236 228.232 432.675 228.797 431.217 228.262C430.853 227.338 430.482 226.438 430.124 225.58C425.265 213.977 420.509 207.202 420.509 207.202C420.509 207.202 427.536 202.946 437.279 197.472C440.856 195.478 444.792 193.331 448.885 191.178C471.358 179.38 498.38 167.583 494.638 181.448C492.871 188.01 494.511 196.718 497.766 205.834C497.906 206.339 498.088 206.832 498.276 207.33Z" fill="black"/>
<path d="M508.972 171.499C508.972 172.387 508.972 173.263 508.912 174.139C508.33 187.015 503.482 199.33 495.132 209.14C486.782 218.95 475.406 225.695 462.8 228.311C455.905 229.732 448.81 229.89 441.858 228.779C439.811 228.459 437.783 228.025 435.785 227.478C433.85 226.952 431.944 226.325 430.076 225.599V225.599C422.344 222.589 415.347 217.954 409.558 212.005C403.769 206.057 399.322 198.933 396.518 191.117C393.713 183.3 392.617 174.972 393.302 166.695C393.988 158.417 396.439 150.384 400.491 143.136L401.001 142.242C407.422 131.238 417.284 122.658 429.062 117.826C440.84 112.994 453.88 112.18 466.166 115.509C478.453 118.838 489.302 126.126 497.039 136.246C504.776 146.366 508.97 158.755 508.972 171.499V171.499Z" fill="#FDC2CC"/>
<path opacity="0.1" d="M524.855 254.917C524.855 254.917 432.948 343.904 439.757 294.299C440.529 288.644 440.906 282.942 440.887 277.235C444.076 273.287 447.463 269.504 451.036 265.899L463.948 256.552C477.262 246.823 493.497 241.939 509.962 242.711C512.446 242.775 514.915 243.115 517.324 243.727C521.654 250.52 524.855 254.917 524.855 254.917Z" fill="black"/>
<path d="M589.995 407.692C586.63 408.695 583.186 409.565 579.712 410.325C577.999 410.708 576.274 411.061 574.549 411.389C571.616 411.955 568.67 412.459 565.743 412.922C551.081 415.226 536.285 416.722 521.405 417.787L518.976 417.951L517.481 418.048C515.21 418.2 512.938 418.334 510.673 418.462C501.593 418.972 492.501 419.343 483.408 419.678C476.727 419.909 470.113 420.104 463.468 420.286L449.955 420.681L446.462 420.785L444.932 420.827C440.931 420.949 436.927 421.064 432.918 421.174L428.266 421.308L419.623 421.545L417.801 421.593C417.315 417.3 416.422 409.498 415.474 401.708L415.256 399.883C414.211 391.29 413.13 383.038 412.504 379.912C410.992 372.341 412.504 340.907 412.504 340.907L412.668 340.645L413.385 339.429C416.962 333.451 430.227 310.573 429.899 300.739C429.705 294.871 435.366 286.381 440.832 279.54C441.549 278.652 442.259 277.789 442.958 276.968C447.313 271.841 451.042 268.192 451.042 268.192L463.948 258.839C477.269 249.119 493.503 244.241 509.968 245.01C514.827 245.26 518.702 245.941 519.686 247.406C520.105 247.644 529.519 253.056 539.845 265.133C544.874 271.013 549.248 277.425 552.891 284.253C553 284.448 553.109 284.648 553.213 284.861C553.213 284.861 576.663 323.867 579.688 347.347C582.712 370.827 587.255 390.135 587.255 390.135C587.255 390.135 588.549 397.548 589.995 407.692Z" fill="#5F5D7E"/>
<path opacity="0.1" d="M519.941 389.727C518.077 392.768 519.516 407.004 521.429 417.762L519 417.926L517.506 418.024C515.234 418.176 512.963 418.31 510.697 418.437C501.617 418.948 492.525 419.319 483.432 419.653C476.751 419.885 470.137 420.079 463.493 420.262L449.979 420.657C449.979 419.27 449.554 418.072 448.454 417.373C447.687 416.819 447.007 416.153 446.438 415.397C446.262 415.184 446.08 414.953 445.897 414.715C441.688 409.121 436.356 397.688 436.356 397.688C436.356 397.688 429.547 399.202 428.788 343.564C428.545 325.43 433.234 312.16 439.666 302.509C452.991 282.526 473.794 278.05 473.794 278.05C481.501 276.708 489.424 277.354 496.813 279.929C499.711 280.947 502.502 282.249 505.146 283.815C508.69 285.95 511.995 288.46 515.003 291.301L515.975 292.232C537.184 312.908 542.195 345.194 529.094 371.787C524.897 380.283 521.113 387.818 519.941 389.727Z" fill="black"/>
<path d="M516.917 386.699C514.864 390.043 516.82 407.028 519.006 417.926L517.512 418.024C515.24 418.176 512.969 418.309 510.703 418.437C501.623 418.948 492.531 419.319 483.439 419.653C476.758 419.884 470.143 420.079 463.499 420.261L449.985 420.657L446.493 420.76C447.027 418.796 447.228 416.771 446.444 415.396C446.299 415.144 446.116 414.914 445.903 414.715C445.764 414.572 445.607 414.448 445.436 414.344C441.275 411.693 433.331 394.647 433.331 394.647C433.331 394.647 426.529 396.167 425.769 340.523C425.49 319.689 431.721 305.252 439.629 295.388C452.858 278.865 470.775 275.009 470.775 275.009C473.121 274.62 475.492 274.4 477.869 274.353H477.942C484.957 274.197 491.911 275.697 498.24 278.731C503.682 281.39 508.65 284.928 512.945 289.203C513.649 289.89 514.341 290.59 515.003 291.301C534.439 312.032 538.739 343.053 526.07 368.759C521.873 377.254 518.089 384.789 516.917 386.699Z" fill="#5F5D7E"/>
<path opacity="0.1" d="M470.131 349.311C470.131 349.311 432.809 375.832 435.991 379.48C439.174 383.129 470.131 349.311 470.131 349.311Z" fill="black"/>
<path opacity="0.1" d="M522.504 358.865C522.504 358.865 510.843 348.466 511.687 352.497C512.532 356.529 522.504 358.865 522.504 358.865Z" fill="black"/>
<path opacity="0.1" d="M510.703 418.437C501.623 418.948 492.531 419.319 483.439 419.653C467.872 417.829 451.686 415.147 451.686 415.147C453.089 414.326 502.753 413.335 510.703 418.437Z" fill="black"/>
<path opacity="0.1" d="M579.712 410.325C577.999 410.708 576.274 411.061 574.549 411.389C573.875 400.51 573.608 391.138 573.608 391.138C575.974 397.423 578.012 403.828 579.712 410.325V410.325Z" fill="black"/>
<path opacity="0.1" d="M432.948 421.15L428.296 421.283C424.591 411.152 421.408 399.135 420.109 394.033C419.708 392.458 419.501 391.54 419.501 391.54L420.078 392.756C421.991 396.751 428.332 410.082 432.948 421.15Z" fill="black"/>
<path opacity="0.1" d="M505.146 192.218C503.292 197.072 500.792 201.652 497.712 205.834C497.894 206.339 498.076 206.832 498.264 207.33C500.375 212.839 502.809 218.218 505.553 223.44L505.735 223.792C506.051 226.225 506.488 228.657 506.992 231.029C497.76 231.516 488.518 231.729 479.266 231.668C475.245 231.668 471.164 231.552 467.331 230.348C465.748 229.847 464.231 229.157 462.812 228.293C461.672 227.6 460.595 226.809 459.593 225.927C454.599 221.408 451.445 215.201 450.738 208.498C450.185 203.274 450.975 197.862 449.463 192.832C449.288 192.273 449.086 191.723 448.855 191.184C447.618 188.32 445.665 185.822 443.185 183.933C440.704 182.043 437.779 180.825 434.691 180.396C433.798 180.201 432.864 180.328 432.055 180.755C431.365 181.33 430.867 182.102 430.628 182.968L424.366 199.321C419.908 200.44 416.762 194.608 417.133 190.023C417.503 185.437 419.562 180.743 418.037 176.401C417.57 175.057 416.774 173.834 416.434 172.46C415.08 167.042 420.898 162.231 420.947 156.649C420.983 152.057 417.06 148.348 412.893 146.438C409.073 144.687 404.852 143.932 401.025 142.224C407.453 131.23 417.315 122.661 429.09 117.838C440.865 113.014 453.898 112.205 466.178 115.536C478.458 118.866 489.302 126.15 497.036 136.265C504.77 146.379 508.965 158.761 508.972 171.499C508.972 172.387 508.972 173.263 508.912 174.138C508.635 180.328 507.363 186.433 505.146 192.218V192.218Z" fill="black"/>
<path d="M447.805 95.7197C443.936 95.3305 439.684 95.2332 436.55 97.5441C433.258 99.9766 432.165 104.331 429.978 107.791C425.806 114.408 417.934 117.43 411.29 121.547C404.645 125.664 398.353 133.016 400.576 140.521C404.67 142.588 409.316 143.312 413.482 145.222C417.649 147.131 421.573 150.841 421.536 155.432C421.488 161.015 415.669 165.825 417.023 171.244C417.364 172.618 418.159 173.84 418.627 175.184C420.139 179.526 418.092 184.221 417.722 188.806C417.351 193.392 420.498 199.224 424.956 198.105L431.26 181.752C431.499 180.886 431.997 180.113 432.687 179.538C433.496 179.112 434.43 178.985 435.323 179.18C438.698 179.653 441.871 181.071 444.476 183.271C447.081 185.472 449.012 188.364 450.046 191.616C451.558 196.645 450.769 202.058 451.321 207.281C452.336 216.914 458.695 226.231 467.927 229.132C471.759 230.348 475.822 230.427 479.861 230.451C489.106 230.52 498.348 230.307 507.588 229.813C505.31 219.085 504.381 207.233 509.902 197.77C512.264 193.72 515.672 190.381 518.271 186.477C522.523 180.116 524.454 172.521 526.015 165.035C527.23 159.361 528.22 153.559 527.685 147.788C526.793 138.113 521.66 129.416 516.656 121.097C514.02 116.712 511.25 112.188 507.005 109.354C498.173 103.467 487.35 107.159 477.912 103.777C467.884 100.196 458.719 96.8265 447.805 95.7197Z" fill="#865A61"/>
<path opacity="0.1" d="M419.015 176.62C419.339 174.684 419.204 172.698 418.621 170.824C418.195 169.608 417.509 168.483 417.126 167.254C416.758 168.519 416.723 169.858 417.023 171.14C417.363 172.515 418.159 173.737 418.621 175.081C418.795 175.582 418.928 176.097 419.015 176.62V176.62Z" fill="black"/>
<path opacity="0.1" d="M421.25 153.201C421.425 152.504 421.519 151.79 421.53 151.072C421.566 146.487 417.649 142.771 413.482 140.862C409.316 138.952 404.669 138.228 400.576 136.161C400.475 135.823 400.392 135.48 400.327 135.133C399.985 136.889 400.071 138.702 400.576 140.418C404.669 142.485 409.316 143.209 413.482 145.119C416.987 146.724 420.297 149.607 421.25 153.201Z" fill="black"/>
<path opacity="0.1" d="M479.855 226.091C475.84 226.091 471.759 225.976 467.926 224.772C458.694 221.871 452.335 212.554 451.321 202.921C450.768 197.698 451.558 192.291 450.045 187.256C449.009 184.001 447.075 181.106 444.465 178.906C441.856 176.705 438.678 175.288 435.298 174.82C434.405 174.625 433.471 174.752 432.662 175.178C431.97 175.752 431.472 176.525 431.235 177.392L424.973 193.745C421.39 194.645 418.657 191.057 417.91 187.232C417.843 187.724 417.776 188.217 417.739 188.703C417.363 193.289 420.515 199.121 424.973 198.002L431.278 181.649C431.514 180.782 432.013 180.009 432.705 179.435C433.514 179.009 434.447 178.882 435.341 179.077C438.716 179.55 441.889 180.968 444.494 183.168C447.099 185.369 449.029 188.261 450.063 191.513C451.576 196.548 450.786 201.955 451.339 207.178C452.353 216.811 458.712 226.128 467.944 229.029C471.777 230.245 475.84 230.324 479.873 230.348C489.125 230.417 498.369 230.214 507.605 229.74C507.314 228.347 507.04 226.937 506.797 225.52C497.821 225.962 488.84 226.152 479.855 226.091Z" fill="black"/>
<path opacity="0.1" d="M526.015 160.675C524.448 168.161 522.51 175.756 518.271 182.117C515.671 186.022 512.264 189.36 509.901 193.41C506.524 199.194 505.565 205.871 505.844 212.64C506.075 207.355 507.235 202.234 509.901 197.667C512.264 193.617 515.671 190.279 518.271 186.374C522.522 180.013 524.448 172.418 526.015 164.932C527.12 159.647 528.08 154.253 527.776 148.871C527.489 152.844 526.9 156.79 526.015 160.675V160.675Z" fill="black"/>
<defs>
<linearGradient id="paint0_linear" x1="432.754" y1="421.569" x2="432.754" y2="91.226" gradientUnits="userSpaceOnUse">
<stop stop-color="#808080" stop-opacity="0.25"/>
<stop offset="0.54" stop-color="#808080" stop-opacity="0.12"/>
<stop offset="1" stop-color="#808080" stop-opacity="0.1"/>
</linearGradient>
</defs>
</svg>
