<svg width="700" height="560" viewBox="0 0 700 560" fill="none" xmlns="http://www.w3.org/2000/svg">
<path opacity="0.18" d="M533.803 31.2849C518.077 25.5855 503.737 16.5879 488.086 10.7517C466.843 2.84842 443.894 0.963798 421.157 0.994195C347.843 0.994195 273.05 21.3755 215.752 66.9863C192.924 85.1182 172.412 107.445 145.089 117.552C123.465 125.577 98.0464 125.774 80.5521 140.775C60.9854 157.494 58.5624 186.66 60.3149 212.345C62.0673 238.031 66.258 265.16 55.2555 288.445C48.7942 302.123 37.7155 312.929 28.6331 325.027C16.3242 341.449 7.6877 360.312 3.30569 380.344C-1.07632 400.376 -1.10204 421.113 3.23027 441.156C7.56259 461.198 16.1523 480.082 28.4204 496.535C40.6886 512.987 56.3503 526.625 74.3499 536.531C110.329 556.289 152.983 559.876 194.082 559.192C231.6 558.568 270.84 554.176 301.974 533.278C322.028 519.797 337.785 500.039 359.561 489.552C385.818 476.937 416.448 479.703 445.6 479.521C480.132 479.278 515.517 474.171 545.644 457.331C575.771 440.491 599.894 410.352 602.637 376.034C604.725 349.695 594.591 322.231 603.445 297.351C606.813 287.882 612.741 279.538 619.095 271.756C642.472 243.016 673.422 219.215 688.189 185.17C696.189 166.75 698.856 146.46 699.801 126.413C700.959 101.168 697.545 72.0779 676.775 57.5784C657.939 44.4317 634.746 50.5111 613.518 47.4714C587.429 43.6869 558.658 40.2521 533.803 31.2849Z" fill="#6C63FF"/>
<path d="M256.269 291.802C256.269 291.802 188.92 275.123 143.797 312.97C98.6741 350.817 150.16 334.799 166.632 339.933C183.104 345.068 207.934 354.691 207.934 354.691C207.934 354.691 276.608 321.932 256.269 291.802Z" fill="#3E3E54"/>
<path d="M232.936 399.076C232.936 399.076 274.974 371.276 301.03 379.694L322.887 386.432C322.887 386.432 309.444 471.559 234.613 479.145C234.613 479.145 218.647 480.826 236.305 451.33C253.963 421.834 232.936 399.076 232.936 399.076Z" fill="#3E3E54"/>
<path d="M351.016 120.878C354.038 122.445 357.288 123.552 360.654 124.162C365.617 124.798 370.549 123.259 375.36 121.943C380.963 120.416 386.642 119.167 392.374 118.2C395.531 117.682 399.219 117.401 401.48 119.679C403.741 121.958 403.286 125.893 401.313 128.423C399.34 130.952 396.29 132.402 393.345 133.778L376.074 141.811C373.118 143.297 370.03 144.515 366.846 145.45C353.688 148.912 340.028 142.492 328.57 135.346C324.153 132.565 319.372 128.896 319.19 123.777C319.247 121.746 319.679 119.741 320.465 117.86C321.08 115.525 322.328 113.394 324.077 111.69C329.298 107.297 345.75 118.466 351.016 120.878Z" fill="#6C63FF"/>
<path d="M350.956 120.858C353.978 122.427 357.228 123.535 360.593 124.145C365.556 124.782 370.489 123.242 375.3 121.924C380.921 120.392 386.62 119.147 392.374 118.193C395.515 117.66 399.219 117.379 401.48 119.674C403.741 121.969 403.286 125.877 401.313 128.409C399.34 130.941 396.29 132.391 393.345 133.768L376.074 141.808C373.118 143.294 370.03 144.513 366.846 145.45C353.688 148.914 340.028 142.489 328.57 135.338C324.153 132.569 319.372 128.883 319.19 123.76C319.236 121.726 319.668 119.718 320.465 117.838C321.055 115.531 322.259 113.416 323.956 111.709C329.237 107.267 345.629 118.46 350.956 120.858Z" fill="url(#paint0_linear)"/>
<path d="M385.739 185.019C380.786 192.516 374.422 199.128 368.104 205.619C361.786 212.111 355.468 218.498 347.064 221.542C342.924 223.041 338.016 223.551 334.244 221.272C330.149 218.813 328.462 213.55 329.229 208.903C330.255 204.271 332.612 200.022 336.023 196.654C338.638 193.498 341.544 190.582 344.702 187.943C348.168 185.364 351.849 185.499 356.373 185.184C366.147 184.492 375.958 184.437 385.739 185.019V185.019Z" fill="#3E3E54"/>
<path d="M385.739 185.019C380.786 192.516 374.422 199.128 368.104 205.619C361.786 212.111 355.468 218.498 347.064 221.542C342.924 223.041 338.016 223.551 334.244 221.272C330.149 218.813 328.462 213.55 329.229 208.903C330.255 204.271 332.612 200.022 336.023 196.654C338.638 193.498 341.544 190.582 344.702 187.943C348.168 185.364 351.849 185.499 356.373 185.184C366.147 184.492 375.958 184.437 385.739 185.019V185.019Z" fill="url(#paint1_linear)"/>
<path d="M644.542 115.88C643.936 119.569 643.132 123.223 642.133 126.826C636.851 145.707 629.37 163.901 619.843 181.033C598.62 220.006 559.741 271.099 489.242 318.422C378.552 393.008 281.402 405.434 245.558 407.312C236.074 407.846 230.875 407.648 230.875 407.648L198.416 357.272C198.416 357.272 235.007 302.729 301.055 245.529C331.515 218.986 364.568 195.583 399.715 175.675C420.748 163.809 442.525 153.316 464.908 144.259C495.628 131.646 527.678 122.566 560.443 117.193C613.516 108.919 644.542 115.88 644.542 115.88Z" fill="#6C63FF"/>
<path d="M384.841 198.101C383.313 200.909 388.065 209.865 390.662 211.763C393.259 213.66 396.437 214.798 398.301 217.44C398.676 217.9 398.942 218.436 399.083 219.011C399.223 219.586 399.232 220.185 399.111 220.764C398.622 222.464 396.666 223.223 394.971 223.8L349.38 237.735C348.118 238 346.948 238.592 345.989 239.45C344.155 241.393 345.072 244.794 347.165 246.418C349.433 247.865 352.119 248.527 354.804 248.3C369.548 248.3 385.743 242.228 398.087 250.183C401.598 252.675 404.643 255.757 407.086 259.29C415.792 270.766 422.458 283.637 426.795 297.346C428.124 301.566 429.224 306.166 427.696 310.325C420.482 307.395 414.281 302.442 409.851 296.071C404.321 288.056 401.479 277.764 393.427 272.269C387.545 268.246 379.937 267.715 372.817 268.307C365.698 268.899 358.685 270.675 351.55 270.766C335.661 270.964 320.994 263.176 306.999 255.587C304.081 254.069 300.765 251.807 300.704 248.498C300.697 247.588 300.918 246.691 301.346 245.887V245.887C331.869 219.492 364.992 196.221 400.211 176.424C421.288 164.625 443.11 154.19 465.54 145.184C471.591 153.73 385.498 196.932 384.841 198.101Z" fill="url(#paint2_linear)"/>
<path d="M644.542 117.077C644.542 117.077 640.787 143.761 619.912 182.156C613.199 180.046 606.601 177.583 600.147 174.776C573.662 163.401 562.746 126.21 560.739 118.495C613.603 110.139 644.542 117.077 644.542 117.077Z" fill="url(#paint3_linear)"/>
<path opacity="0.31" d="M517.606 215.43C531.218 215.43 542.254 204.119 542.254 190.166C542.254 176.213 531.218 164.902 517.606 164.902C503.993 164.902 492.958 176.213 492.958 190.166C492.958 204.119 503.993 215.43 517.606 215.43Z" fill="#3E3E54"/>
<path opacity="0.31" d="M451.056 253.635C464.669 253.635 475.704 242.324 475.704 228.371C475.704 214.418 464.669 203.107 451.056 203.107C437.444 203.107 426.408 214.418 426.408 228.371C426.408 242.324 437.444 253.635 451.056 253.635Z" fill="#3E3E54"/>
<path opacity="0.31" d="M377.729 302.93C391.682 302.93 402.993 291.619 402.993 277.666C402.993 263.713 391.682 252.402 377.729 252.402C363.776 252.402 352.465 263.713 352.465 277.666C352.465 291.619 363.776 302.93 377.729 302.93Z" fill="#3E3E54"/>
<path d="M204.796 341.135L246.479 407.951L223.968 416.311L189.789 358.679L204.796 341.135Z" fill="#3E3E54"/>
<path d="M328.022 259.413C348.008 264.28 368.86 259.03 389.029 254.974C391.101 254.376 393.293 254.345 395.382 254.882C397.768 255.724 399.364 257.943 400.762 260.071C407.731 270.731 413.535 282.12 418.073 294.037C420.809 301.216 423.377 309.023 429.457 313.676C435.536 318.33 446.388 317.289 448.592 309.926C438.211 280.521 425.429 252.05 412.662 223.609C411.507 221.038 410.231 218.313 407.86 216.798C405.784 215.694 403.474 215.111 401.127 215.099L329.147 208.838C312.975 207.43 288.658 205.271 294.084 227.926C297.823 243.723 312.823 255.708 328.022 259.413Z" fill="#3E3E54"/>
<path d="M346.303 197.503C346.303 202.465 346.303 207.597 344.099 212.053C341.288 217.891 335.225 221.563 328.903 223.054C326.902 223.508 324.87 223.811 322.824 223.96C318.461 224.154 314.091 224.057 309.74 223.668C301.398 223.115 291.93 221.963 286.946 215.172C283.451 210.393 283.147 204.033 283.01 198.087C282.645 181.831 282.569 165.576 282.448 149.32C282.448 140.025 278.725 127.488 280.032 118.592C280.473 114.919 281.888 111.436 284.127 108.509C286.366 105.583 289.346 103.323 292.751 101.968C305.075 96.6365 322.976 100.554 331.714 110.71C338.72 118.822 341.425 129.808 343.066 140.455C346.06 159.246 346.288 178.42 346.303 197.503Z" fill="#6C63FF"/>
<path d="M319.013 167.133C319.807 179.292 320.234 191.451 320.295 203.61C320.198 206.961 320.362 210.315 320.784 213.641C321.196 216.179 322.83 218.52 323.12 220.921C323.245 221.933 323.215 222.958 323.028 223.961C318.645 224.153 314.253 224.057 309.882 223.672C301.5 223.125 291.988 221.985 286.98 215.267C283.468 210.541 283.163 204.248 283.025 198.366C282.659 182.286 282.583 166.206 282.461 150.125C282.461 140.93 278.72 128.528 280.033 119.728C280.476 116.095 281.898 112.648 284.148 109.753C286.397 106.859 289.391 104.623 292.812 103.283C293.794 103.603 294.744 104.01 295.652 104.498C301.011 107.325 305.058 112.098 308.752 116.901C310.681 119.29 312.321 121.897 313.638 124.667C315.036 128.299 315.9 132.113 316.203 135.99C317.15 143.97 317.913 151.98 318.539 160.005C318.875 164.291 317.73 166.996 322.372 167.817C326.319 168.503 330.308 168.924 334.312 169.078C338.388 169.261 343.213 168.789 345.366 165.339C346.083 164.007 346.399 162.497 346.277 160.991C346.155 159.484 345.6 158.044 344.679 156.843C342.784 154.471 340.213 152.723 337.304 151.828C334.464 150.794 331.472 150.216 328.601 149.259C325.685 148.372 322.994 146.874 320.708 144.867C318.405 142.839 316.955 140.023 316.646 136.978" fill="url(#paint4_linear)"/>
<path d="M300.789 100.47C300.632 101.932 300.692 103.411 300.967 104.854C301.843 108.431 305.166 110.775 308.459 112.252C310.492 113.165 313.207 113.774 314.676 112.024C315.818 110.669 315.536 108.629 315.18 106.863L313.222 97.2586C312.863 95.1091 312.291 93.0027 311.516 90.9721C310.655 88.9172 304.973 80.5452 302.095 82.6763C300.893 83.5591 301.398 89.5869 301.323 91.0938L300.789 100.47Z" fill="url(#paint5_linear)"/>
<path d="M300.676 82.6764C301.536 86.5039 303.406 90.0705 306.116 93.0523C308.866 96.0422 312.747 97.9246 316.949 98.3064C318.481 98.4729 320.03 98.1908 321.383 97.4992C323.044 96.2847 324.258 94.6176 324.857 92.7295C328.427 84.6429 332.043 75.7492 329.338 67.3545C328.659 64.7413 326.909 62.4809 324.464 61.0585C321.847 60.0147 318.919 59.864 316.194 60.6329C311.478 61.6309 304.403 63.9203 301.352 67.6774C298.302 71.4345 299.639 78.5524 300.676 82.6764Z" fill="url(#paint6_linear)"/>
<path d="M317.831 44.7066C314.516 43.2183 310.866 42.6312 307.251 43.0045C303.636 43.3778 300.183 44.6984 297.242 46.8327C293.441 49.6827 290.726 53.7841 286.849 56.5134C283.199 59.0919 278.779 60.2681 274.692 62.0775C274.194 62.2886 273.636 62.6053 273.545 63.1331C273.395 63.9473 274.345 64.4751 274.722 65.214C275.295 66.3449 274.375 67.6417 273.515 68.5916L268.598 73.9597C267.995 74.4839 267.586 75.1956 267.436 75.9803C267.271 78.0461 270.197 78.6342 272.263 78.4533L279.081 77.8501C275.073 80.5458 271.604 83.9672 268.854 87.9379C270.363 89.5363 273.153 88.7823 275.008 87.5609C276.864 86.3395 278.629 84.5451 280.831 84.6658C277.527 89.9886 287.875 89.7775 290.967 89.7021C293.595 89.5393 296.161 88.8414 298.509 87.6514C299.636 87.2135 300.662 86.5518 301.526 85.7062C301.96 85.2849 302.283 84.7632 302.467 84.1872C302.651 83.6112 302.691 82.9987 302.582 82.4039C302.409 81.8835 302.192 81.379 301.933 80.896C301.501 79.9465 301.285 78.913 301.301 77.8701C301.317 76.8272 301.563 75.8007 302.024 74.8645C302.174 74.578 302.37 74.2613 302.702 74.2161C302.972 74.2068 303.235 74.2981 303.441 74.4724L305.719 75.9803C305.596 72.9203 306.687 69.9357 308.755 67.6763C310.823 65.417 313.701 64.0658 316.76 63.9172C321.467 63.6608 330.079 65.983 328.948 58.3078C328.043 52.5477 322.975 47.0438 317.831 44.7066Z" fill="#3E3E54"/>
<path d="M325.453 63.8833C326.345 63.4749 327.099 62.8168 327.624 61.9887C328.149 61.1607 328.423 60.1982 328.411 59.218C328.4 58.2378 328.105 57.2818 327.561 56.466C327.017 55.6501 326.248 55.0093 325.347 54.6213C323.171 53.4605 320.712 52.9376 318.252 53.1128C314.119 53.0206 310.019 53.8719 306.265 55.6018C301.132 58.1662 297.418 62.8877 292.678 66.1611C288.658 68.6882 284.245 70.5286 279.619 71.6067C277.492 71.9647 275.476 72.8116 273.732 74.0806C273.46 74.3371 273.188 74.684 273.309 75.031C273.396 75.1891 273.521 75.3236 273.671 75.4232C274.252 75.8198 274.911 76.0859 275.605 76.2031C276.298 76.3203 277.008 76.2858 277.687 76.102C278.472 75.8908 279.197 75.4684 279.921 75.1969C282.187 74.639 284.555 74.639 286.821 75.1969C289.997 75.8067 293.268 75.7192 296.407 74.9405C299.042 73.9376 301.571 72.6743 303.955 71.1693C304.894 70.7123 305.931 70.4947 306.975 70.5357C306.177 72.228 305.779 74.0808 305.812 75.9511L303.532 74.4427C303.416 74.3531 303.282 74.2882 303.139 74.2519C302.996 74.2156 302.848 74.2086 302.702 74.2315C302.385 74.2315 302.174 74.5935 302.023 74.8801C301.566 75.8179 301.322 76.8444 301.306 77.887C301.29 78.9297 301.504 79.963 301.932 80.914C302.193 81.3945 302.406 81.8998 302.566 82.4225C302.687 83.015 302.657 83.6285 302.477 84.206C302.298 84.7835 301.975 85.3064 301.54 85.7261C300.663 86.5605 299.639 87.2254 298.52 87.6871C296.166 88.8649 293.599 89.5575 290.972 89.7235C287.953 89.7235 277.551 90.0101 280.842 84.6852C278.638 84.6852 276.766 86.4501 275.015 87.5815C273.264 88.7129 270.486 89.5425 268.856 87.9586C271.604 83.9829 275.076 80.5594 279.091 77.8669L272.267 78.4703C270.184 78.6513 267.27 78.063 267.436 75.9964C267.586 75.2149 267.989 74.5045 268.584 73.975L273.52 68.6049C274.381 67.6545 275.302 66.3572 274.728 65.2259C274.351 64.4867 273.4 63.9437 273.551 63.1442C273.641 62.6011 274.2 62.2994 274.698 62.0732C278.774 60.2781 283.212 59.0562 286.866 56.5371C290.761 53.8067 293.478 49.6735 297.267 46.8526C300.207 44.7093 303.662 43.382 307.282 43.0058C310.901 42.6295 314.556 43.2178 317.874 44.7106C323.007 47.1091 328.095 52.5547 328.94 58.2869C329.499 62.0128 327.853 63.4006 325.453 63.8833Z" fill="url(#paint7_linear)"/>
<path d="M412.242 111.027C416.639 110.073 421.767 111.027 424.548 114.403C424.9 114.78 425.117 115.252 425.169 115.753C425.184 115.867 425.175 115.983 425.141 116.093C425.107 116.204 425.05 116.307 424.973 116.396C424.896 116.485 424.801 116.559 424.693 116.612C424.585 116.666 424.467 116.698 424.346 116.707H421.098C418.891 117.988 416.847 119.504 415.008 121.227C412.33 123.291 409.154 124.697 405.763 125.322C401.257 126.158 395.663 123.267 399.159 118.644C401.894 115.019 407.736 112.01 412.242 111.027Z" fill="url(#paint8_linear)"/>
<path d="M403.906 149.892C404.618 150.226 405.241 150.716 405.723 151.326C406.205 151.935 406.535 152.645 406.684 153.4C406.708 153.652 406.66 153.905 406.546 154.132C406.132 154.819 405.103 154.655 404.29 154.52C398.995 153.595 393.96 157.61 388.573 157.506C386.108 157.444 383.764 156.454 382.035 154.744C380.5 153.147 378.965 150.131 379.825 147.892C380.73 145.324 383.8 145.279 386.194 145.205C392.451 144.979 398.629 146.614 403.906 149.892V149.892Z" fill="url(#paint9_linear)"/>
<path d="M438.732 92.4575L459.543 76.8147C459.543 76.8147 464.654 75.1121 466.368 77.2403C468.081 79.3686 466.153 144.22 466.153 144.22L440.385 156.276L438.732 92.4575Z" fill="#6C63FF"/>
<path d="M438.732 92.4545L459.602 76.8146C459.602 76.8146 464.715 75.1123 466.43 77.2401C468.145 79.368 465.91 144.116 465.91 144.116L440.432 156.276L438.732 92.4545Z" fill="url(#paint10_linear)"/>
<path d="M445.047 93.1067L467.077 77.5862C467.077 77.5862 463.145 74.7197 460.089 77.1428C457.034 79.5659 438.732 93.4234 438.732 93.4234L445.047 93.1067Z" fill="url(#paint11_linear)"/>
<path d="M437.898 322.936C438.051 323.365 438.273 323.757 438.554 324.093C438.906 324.425 439.322 324.658 439.768 324.774C440.912 325.136 442.112 325.209 443.283 324.99C444.455 324.772 445.57 324.265 446.552 323.506C447.367 322.917 448.005 322.061 448.381 321.05C448.734 319.473 448.641 317.81 448.115 316.296L446.957 311.732C446.948 311.667 446.924 311.607 446.887 311.557C446.789 311.557 446.664 311.557 446.566 311.557C443.202 313.839 439.238 311.557 436.027 313.142C433.319 314.632 436.907 320.622 437.898 322.936Z" fill="url(#paint12_linear)"/>
<path d="M442.424 322.96C441.213 323.038 440.011 323.212 438.825 323.479C438.236 323.631 437.693 323.939 437.249 324.374C436.805 324.809 436.473 325.357 436.287 325.965C436.185 327.163 436.487 328.36 437.138 329.347C438.004 331.031 438.87 332.714 439.796 334.366C440.294 335.473 441.088 336.402 442.08 337.04C443.086 337.463 444.191 337.551 445.246 337.292C448.419 336.651 451.504 335.594 454.428 334.146C460.401 331.492 466.329 328.655 472.212 325.635C473.182 325.131 474.257 324.486 474.451 323.369C474.501 322.979 474.46 322.582 474.333 322.213C474.206 321.843 473.995 321.511 473.72 321.245C473.159 320.724 472.511 320.319 471.808 320.05C467.616 318.357 463.208 317.334 458.729 317.013C457.146 316.84 454.488 316.054 453.01 316.809C451.532 317.564 450.113 319.42 448.53 320.427C446.688 321.717 444.606 322.581 442.424 322.96V322.96Z" fill="#3E3E54"/>
<path d="M380.775 157.165C378.092 158.794 375.103 159.847 371.995 160.259L355.281 163.648C351.612 164.576 347.834 164.993 344.052 164.886C340.618 164.509 337.251 163.671 334.039 162.395C321.069 157.753 300.504 152.291 290.553 142.171C283.021 134.435 284.869 119.116 294.605 115.279C296.457 114.558 298.447 114.262 300.427 114.412C308.684 114.938 314.291 122.567 320.638 127.936C334.255 139.603 353.263 141.63 371.163 142.96H371.533H372.734C377.355 143.301 383.055 144.508 384.318 148.949C385.104 152.09 383.348 155.354 380.775 157.165Z" fill="#6C63FF"/>
<path d="M394.917 180.923L440.412 156.418L444.894 92.7994C444.894 92.7994 437.987 89.9927 437.419 96.4361C436.851 102.879 432.016 151.302 432.016 151.302L392.722 171.734C392.722 171.734 386.874 177.543 394.917 180.923Z" fill="#6C63FF"/>
<path d="M223.063 413.27C211.269 431.36 193.591 444.862 172.992 451.511L180.823 434.776C170.996 446.891 161.093 459.067 149.454 469.484C137.815 479.901 124.226 488.543 109.087 492.429C107.552 490.211 109.194 487.243 110.822 485.086C121.597 470.798 133.559 457.438 146.583 445.147C116.595 462.539 86.4851 479.993 54.2253 492.719C74.9664 464.049 99.795 438.546 127.927 417.017L108.15 422.096C131.41 395.173 159.443 372.742 190.85 355.923C203.732 373.499 214.004 393.553 223.063 413.27Z" fill="#6C63FF"/>
<path d="M223.063 413.27C211.269 431.36 193.591 444.862 172.992 451.511L180.823 434.776C170.996 446.891 161.093 459.067 149.454 469.484C137.815 479.901 124.226 488.543 109.087 492.429C107.552 490.211 109.194 487.243 110.822 485.086C121.597 470.798 133.559 457.438 146.583 445.147C116.595 462.539 86.4851 479.993 54.2253 492.719C74.9664 464.049 99.795 438.546 127.927 417.017L108.15 422.096C131.41 395.173 159.443 372.742 190.85 355.923C203.732 373.499 214.004 393.553 223.063 413.27Z" fill="url(#paint13_linear)"/>
<path d="M160.847 397.588C160.123 398.592 159.399 399.935 160.031 401C160.516 401.608 161.196 402.028 161.955 402.189L167.884 404.149C160.248 410.884 153.21 418.27 146.85 426.226C145.788 427.554 144.756 429.576 145.972 430.765C146.549 431.239 147.274 431.496 148.02 431.49C156.258 432.231 163.942 427.662 170.963 423.277C169.688 427.928 167.476 432.267 164.465 436.029C172.411 434.485 179.601 430.363 186.022 425.562C192.443 420.761 198.495 415.265 205.116 410.618L202.929 416.33C206.981 413.656 210.475 410.216 213.215 406.203C213.875 405.484 214.292 404.574 214.405 403.604C214.519 402.633 214.323 401.652 213.846 400.799C210.544 391.828 205.817 383.451 199.85 375.99C198.825 374.549 197.514 373.335 196 372.424C191.165 369.877 181.08 378.167 177.199 381.023C170.916 385.651 165.397 391.241 160.847 397.588Z" fill="#6C63FF"/>
<path d="M160.847 397.588C160.123 398.592 159.399 399.935 160.031 401C160.516 401.608 161.196 402.028 161.955 402.189L167.884 404.149C160.248 410.884 153.21 418.27 146.85 426.226C145.788 427.554 144.756 429.576 145.972 430.765C146.549 431.239 147.274 431.496 148.02 431.49C156.258 432.231 163.942 427.662 170.963 423.277C169.688 427.928 167.476 432.267 164.465 436.029C172.411 434.485 179.601 430.363 186.022 425.562C192.443 420.761 198.495 415.265 205.116 410.618L202.929 416.33C206.981 413.656 210.475 410.216 213.215 406.203C213.875 405.484 214.292 404.574 214.405 403.604C214.519 402.633 214.323 401.652 213.846 400.799C210.544 391.828 205.817 383.451 199.85 375.99C198.825 374.549 197.514 373.335 196 372.424C191.165 369.877 181.08 378.167 177.199 381.023C170.916 385.651 165.397 391.241 160.847 397.588Z" fill="url(#paint14_linear)"/>
<defs>
<linearGradient id="paint0_linear" x1="23101" y1="2582.77" x2="21604.2" y2="6983.82" gradientUnits="userSpaceOnUse">
<stop offset="0.99" stop-color="#3F3D56"/>
</linearGradient>
<linearGradient id="paint1_linear" x1="14094" y1="5116.02" x2="14714.2" y2="6085.87" gradientUnits="userSpaceOnUse">
<stop offset="0.99" stop-color="#3F3D56"/>
</linearGradient>
<linearGradient id="paint2_linear" x1="38212.1" y1="16981.3" x2="57238" y2="34091.5" gradientUnits="userSpaceOnUse">
<stop stop-opacity="0"/>
<stop offset="0.99"/>
</linearGradient>
<linearGradient id="paint3_linear" x1="35049.8" y1="6371.3" x2="37610.7" y2="9003.31" gradientUnits="userSpaceOnUse">
<stop stop-opacity="0"/>
<stop offset="0.99"/>
</linearGradient>
<linearGradient id="paint4_linear" x1="19432.6" y1="13262.9" x2="2925.41" y2="14251.1" gradientUnits="userSpaceOnUse">
<stop offset="0.99" stop-color="#3F3D56"/>
</linearGradient>
<linearGradient id="paint5_linear" x1="300.715" y1="97.7305" x2="315.492" y2="97.7305" gradientUnits="userSpaceOnUse">
<stop stop-color="#E5C5D5"/>
</linearGradient>
<linearGradient id="paint6_linear" x1="6964.26" y1="2388.7" x2="7567.21" y2="2388.7" gradientUnits="userSpaceOnUse">
<stop stop-color="#E5C5D5"/>
<stop offset="0.42" stop-color="#EAD4D1"/>
<stop offset="1" stop-color="#F0E9CB"/>
</linearGradient>
<linearGradient id="paint7_linear" x1="13618.6" y1="1753.16" x2="13519.3" y2="3164.56" gradientUnits="userSpaceOnUse">
<stop stop-opacity="0"/>
<stop offset="0.99"/>
</linearGradient>
<linearGradient id="paint8_linear" x1="8002.36" y1="1388.42" x2="8475.2" y2="1388.42" gradientUnits="userSpaceOnUse">
<stop stop-color="#E5C5D5"/>
<stop offset="0.42" stop-color="#EAD4D1"/>
<stop offset="1" stop-color="#F0E9CB"/>
</linearGradient>
<linearGradient id="paint9_linear" x1="-31188.9" y1="-21482.8" x2="-30779.5" y2="-21256.7" gradientUnits="userSpaceOnUse">
<stop stop-color="#E5C5D5"/>
</linearGradient>
<linearGradient id="paint10_linear" x1="9427.8" y1="4644.59" x2="9100.35" y2="10815.2" gradientUnits="userSpaceOnUse">
<stop stop-color="#6366AE"/>
</linearGradient>
<linearGradient id="paint11_linear" x1="9350.14" y1="1152.79" x2="9441.3" y2="1323.91" gradientUnits="userSpaceOnUse">
<stop stop-opacity="0"/>
<stop offset="0.99"/>
</linearGradient>
<linearGradient id="paint12_linear" x1="4567.41" y1="3274.29" x2="4699.32" y2="3274.29" gradientUnits="userSpaceOnUse">
<stop stop-color="#E5C5D5"/>
<stop offset="0.42" stop-color="#EAD4D1"/>
<stop offset="1" stop-color="#F0E9CB"/>
</linearGradient>
<linearGradient id="paint13_linear" x1="284.543" y1="419.541" x2="48.8841" y2="427.725" gradientUnits="userSpaceOnUse">
<stop offset="0.02" stop-color="white" stop-opacity="0"/>
<stop offset="0.58" stop-color="white" stop-opacity="0.39"/>
<stop offset="0.68" stop-color="white" stop-opacity="0.68"/>
<stop offset="1" stop-color="white"/>
</linearGradient>
<linearGradient id="paint14_linear" x1="15661.2" y1="15876.5" x2="6508.87" y2="19502.1" gradientUnits="userSpaceOnUse">
<stop offset="0.02" stop-color="white" stop-opacity="0"/>
<stop offset="0.58" stop-color="white" stop-opacity="0.39"/>
<stop offset="0.68" stop-color="white" stop-opacity="0.68"/>
<stop offset="1" stop-color="white"/>
</linearGradient>
</defs>
</svg>
