<svg width="80" height="80" viewBox="0 0 80 80" fill="none" xmlns="http://www.w3.org/2000/svg">
<path fill-rule="evenodd" clip-rule="evenodd" d="M13.3085 39.9271C13.3085 32.8675 16.1128 26.097 21.1044 21.1051C26.0961 16.1133 32.8662 13.3088 39.9254 13.3088C46.9847 13.3088 53.7548 16.1133 58.7464 21.1051C63.7381 26.097 66.5424 32.8675 66.5424 39.9271C66.5424 46.9866 63.7381 53.7571 58.7464 58.749C53.7548 63.7408 46.9847 66.5453 39.9254 66.5453C32.8662 66.5453 26.0961 63.7408 21.1044 58.749C16.1128 53.7571 13.3085 46.9866 13.3085 39.9271V39.9271ZM39.9254 6.6543C21.5498 6.6543 6.6543 21.5505 6.6543 39.9271C6.6543 58.3036 21.5498 73.1998 39.9254 73.1998C58.3011 73.1998 73.1966 58.3036 73.1966 39.9271C73.1966 21.5505 58.3011 6.6543 39.9254 6.6543ZM33.1614 49.0571C32.9399 48.2045 32.3892 47.4745 31.6303 47.0273C30.8713 46.5801 29.966 46.4521 29.1128 46.6715C28.2596 46.8908 27.5283 47.4396 27.0791 48.1974C26.63 48.9553 26.4997 49.8603 26.7168 50.7141C28.1774 56.5634 34.2128 59.8907 39.9254 59.8907C45.8643 59.8907 51.4106 56.5235 53.1341 50.7074C53.3308 49.8605 53.1882 48.9701 52.7367 48.227C52.2853 47.4839 51.5609 46.947 50.7186 46.7313C49.8763 46.5156 48.983 46.6382 48.23 47.0729C47.477 47.5076 46.924 48.2198 46.6895 49.0571C45.8244 51.9518 42.7202 53.2362 39.9254 53.2362C37.1307 53.2362 34.0298 51.9552 33.1614 49.0571ZM34.9348 33.2725C34.9348 34.5962 34.409 35.8656 33.473 36.8016C32.5371 37.7376 31.2677 38.2634 29.9441 38.2634C28.6205 38.2634 27.3511 37.7376 26.4152 36.8016C25.4792 35.8656 24.9534 34.5962 24.9534 33.2725C24.9534 31.9488 25.4792 30.6794 26.4152 29.7434C27.3511 28.8074 28.6205 28.2816 29.9441 28.2816C31.2677 28.2816 32.5371 28.8074 33.473 29.7434C34.409 30.6794 34.9348 31.9488 34.9348 33.2725ZM49.9068 38.2634C51.2304 38.2634 52.4998 37.7376 53.4357 36.8016C54.3717 35.8656 54.8975 34.5962 54.8975 33.2725C54.8975 31.9488 54.3717 30.6794 53.4357 29.7434C52.4998 28.8074 51.2304 28.2816 49.9068 28.2816C48.5832 28.2816 47.3138 28.8074 46.3779 29.7434C45.4419 30.6794 44.9161 31.9488 44.9161 33.2725C44.9161 34.5962 45.4419 35.8656 46.3779 36.8016C47.3138 37.7376 48.5832 38.2634 49.9068 38.2634Z" fill="#6C63FF"/>
</svg>
