<svg width="134" height="122" viewBox="0 0 134 122" fill="none" xmlns="http://www.w3.org/2000/svg">
<path d="M123.683 72C126.339 65.3414 127.423 58.1655 126.851 51.0248C126.279 43.8842 124.066 36.9693 120.383 30.8127L45.1647 41.1672L117.248 26.2317C112.862 20.5554 107.222 15.9585 100.763 12.797C94.3037 9.63547 87.1994 7.99413 80 8.00002C54.0426 8.00002 33 28.9205 33 54.7272C33.0005 56.8601 33.1467 58.9904 33.4374 61.1036L123.683 72Z" fill="#F2F2F2"/>
<path d="M36 72C42.7663 89.5497 59.7716 102 79.683 102C98.367 102 114.492 91.0372 122 75.1856L36 72Z" fill="#F2F2F2"/>
<path d="M121 88.3329C121 106.927 93.9125 122 60.5 122C42.5498 122 26.4257 117.651 15.3468 110.741C8.11801 106.233 3.03601 100.635 0.997335 94.4488C0.339377 92.4784 0.00253116 90.4127 0 88.3329C0 69.7402 50.1362 -14.1288 60.5 54.6676C70.8638 123.464 121 69.7402 121 88.3329Z" fill="#C5C5C5"/>
<path opacity="0.1" d="M91 100.5C91 107.403 69.4745 113 42.9199 113C32.6923 113 23.2108 112.17 15.4185 110.754C8.15491 106.222 3.04848 100.593 1 94.3731C9.24361 90.569 24.9277 88 42.9199 88C69.4745 88 91 93.597 91 100.5Z" fill="black"/>
<path d="M55.8457 29.8804C52.1075 23.33 44.7117 23.0247 44.7117 23.0247C44.7117 23.0247 37.505 22.069 32.8819 32.0454C28.5728 41.3442 22.6257 50.3224 31.9244 52.4992L33.6041 47.0778L34.6442 52.9028C35.9682 53.0015 37.2964 53.0251 38.6228 52.9733C48.581 52.6399 58.0647 53.0708 57.7593 49.365C57.3534 44.4387 59.4426 36.1832 55.8457 29.8804Z" fill="#2F2E41"/>
<path d="M31.5032 86.3533C31.3652 87.0499 31.2632 87.7581 31.0288 88.4276C30.7961 89.0922 30.4368 89.7069 30.224 90.3784C29.5458 92.5189 30.486 94.9055 31.9877 96.5576C33.2899 97.9847 34.9709 98.9985 36.8277 99.4769C38.1824 99.823 39.591 99.8728 40.9871 99.9209C44.8529 100.054 48.8182 100.173 52.4813 98.9112C53.6386 98.5027 54.7565 97.9869 55.8207 97.3702C56.1567 97.2076 56.4528 96.9709 56.6872 96.6772C56.9666 96.2732 57.0023 95.7492 56.9999 95.2555C56.9917 93.5909 56.6594 91.9348 56.7383 90.272C56.782 89.3511 56.9517 88.4308 56.8682 87.5127C56.6787 85.4304 55.0509 83.5668 53.0381 83.1277C51.9989 82.9011 50.9211 83.0246 49.8632 83.1279C47.117 83.3959 44.3592 83.5212 41.6004 83.5032C38.7817 83.4849 35.9803 83.0479 33.1756 83.0022C32.3462 82.9887 32.363 83.2485 32.0989 84.0638C31.8557 84.8143 31.6567 85.5788 31.5032 86.3533V86.3533Z" fill="#3F3D56"/>
<path d="M39.4329 44.5901C39.2949 45.3439 39.1457 46.1253 38.7114 46.7448C38.2116 47.4575 37.3968 47.8647 36.8592 48.5468C36.05 49.5735 36.0035 51.0182 36.0002 52.3473C35.9971 53.5716 36.021 54.8775 36.6756 55.8938C37.1005 56.5534 37.747 57.0158 38.3788 57.4599C40.8339 59.1854 43.4869 60.9419 46.4469 60.9988C47.6734 61.0224 48.9884 60.6921 49.7954 59.7286C50.1438 59.276 50.4178 58.7663 50.6061 58.2201C51.363 56.2743 51.8218 54.2164 51.9657 52.122C52.0331 51.1366 52.0267 50.1225 51.7069 49.1926C51.3473 48.1469 50.6202 47.2866 50.1397 46.2952C49.5716 45.1164 49.3638 43.7842 49.5444 42.4783C49.5683 42.3864 49.5609 42.2886 49.5235 42.2017C49.484 42.1552 49.4347 42.1189 49.3794 42.0955C49.3242 42.0722 49.2645 42.0625 49.2051 42.0672L43.3358 41.6265C42.7892 41.5982 42.2449 41.5333 41.7062 41.4321C41.3898 41.365 40.5541 40.8964 40.2524 41.021C39.694 41.2516 39.5474 43.965 39.4329 44.5901Z" fill="#A0616A"/>
<path opacity="0.1" d="M39.4329 45.4106C39.2949 46.1267 39.1457 46.869 38.7114 47.4575C38.2116 48.1346 37.3968 48.5215 36.8592 49.1695C36.05 50.1448 36.0035 51.5173 36.0002 52.7799C35.9971 53.943 36.021 55.1836 36.6756 56.1491C37.1005 56.7757 37.747 57.215 38.3788 57.6369C40.8339 59.2761 43.4869 60.9448 46.4469 60.9989C47.6734 61.0213 48.9884 60.7075 49.7954 59.7922C50.1438 59.3622 50.4178 58.8779 50.6061 58.3591C51.363 56.5106 51.8218 54.5556 51.9657 52.5659C52.0331 51.6298 52.0267 50.6663 51.7069 49.7829C51.3473 48.7896 50.6202 47.9723 50.1397 47.0304C49.5716 45.9105 49.3638 44.645 49.5444 43.4044C49.5683 43.3171 49.5609 43.2242 49.5235 43.1417C49.484 43.0975 49.4347 43.0629 49.3794 43.0408C49.3242 43.0186 49.2645 43.0094 49.2051 43.0138L43.3358 42.5952C42.7892 42.5683 42.2449 42.5066 41.7062 42.4105C41.3898 42.3468 40.5541 41.9015 40.2524 42.0199C39.694 42.2391 39.5474 44.8167 39.4329 45.4106Z" fill="black"/>
<path d="M45 46C49.9706 46 54 41.9706 54 37C54 32.0294 49.9706 28 45 28C40.0294 28 36 32.0294 36 37C36 41.9706 40.0294 46 45 46Z" fill="#A0616A"/>
<path d="M40.1614 56.7834C40.6174 57.2554 41.1006 57.7227 41.6982 57.9994C42.2925 58.2746 42.9621 58.3431 43.618 58.3613C45.1951 58.4053 46.9048 58.1191 48.0019 56.9964C49.4162 55.5491 49.3696 53.2148 50.4781 51.5264C50.5675 51.3733 50.6893 51.2413 50.8353 51.1396C51.0213 51.0393 51.2314 50.9915 51.4429 51.0012C52.8429 50.9883 54.0625 51.8874 55.1632 52.7443C55.6562 53.1281 56.1616 53.5258 56.4726 54.0651C56.6902 54.4856 56.8393 54.9375 56.9142 55.4041C57.4604 58.0443 57.6373 60.7438 57.8128 63.4331C57.9098 64.9186 58.0068 66.4055 57.9996 67.894C57.9759 72.7982 56.8247 77.6203 55.68 82.3917C55.5325 83.0065 55.3306 83.6937 54.766 83.9881C54.5143 84.1002 54.244 84.1655 53.9685 84.1809C50.6897 84.5622 47.4041 84.9439 44.1032 84.9943C42.815 85.0139 41.5274 84.983 40.2403 84.9016C40.0188 84.8987 39.7991 84.8608 39.5896 84.7893C39.3053 84.6541 39.061 84.4487 38.8802 84.1928C37.0947 81.9648 36.9893 78.8847 37.0007 76.0405C37.0286 69.0867 37.2795 62.1385 37.7534 55.1958C37.7926 54.6227 37.8011 53.9268 37.3841 53.476C38.135 54.6662 39.1793 55.7669 40.1614 56.7834Z" fill="#D0CDE1"/>
<path d="M38.5123 46.7714C38.2167 47.2991 36.0367 48.6094 35.6159 49.0468C33.2645 51.4904 28.9729 51.3987 26.8223 54.0159C26.0657 54.9368 25.6726 56.0938 25.3835 57.2441C24.9746 58.871 24.7563 60.6452 25.4413 62.1792C26.1004 63.6553 27.4879 64.6758 28.4299 65.9942C29.4642 67.4419 29.9293 69.1997 30.375 70.9152C30.704 72.1818 31.0358 73.4797 30.9077 74.7811C30.762 76.2607 30.0357 77.6156 29.6069 79.0408C29.1781 80.466 29.1041 82.1634 30.0956 83.2835C30.8239 84.1063 31.9664 84.4325 33.0584 84.6161C34.4523 84.8503 35.8688 84.917 37.2814 84.9785C38.5297 85.0329 39.9057 85.0435 40.8654 84.2545C41.6226 83.6319 41.9517 82.6217 41.9943 81.6505C42.0369 80.6794 41.8319 79.7169 41.7036 78.7531C41.5705 77.754 41.5193 76.7462 41.4766 75.7394C41.2846 71.222 41.2584 66.7018 41.398 62.1786C41.427 61.2374 41.4623 60.2847 41.2587 59.3646C40.991 58.1547 40.3278 57.0734 39.7743 55.9616C38.6758 53.7549 38.1563 51.6114 38.3261 49.1587C38.4937 46.7379 39.5645 44.8936 38.5123 46.7714Z" fill="#6C63FF"/>
<path d="M50.9869 46.8032C51.4315 47.2611 52.9422 47.4121 53.5077 47.707C54.0272 47.9779 54.6021 48.1194 55.1648 48.2819C57.2277 48.8783 59.1899 49.7808 60.9862 50.9595C61.3594 51.1783 61.6894 51.4639 61.9597 51.8021C62.2761 52.2432 62.3909 52.7936 62.4982 53.3261C62.7751 54.7008 63.0534 56.092 62.9912 57.493C62.9251 58.9802 62.4781 60.4205 62.0347 61.8412L60.3778 67.1498C59.141 71.1124 57.8963 75.1139 57.5483 79.2511C57.3558 81.544 57.4414 83.8518 57.8032 86.1241C57.8397 86.3526 57.8702 86.6144 57.7197 86.7898C57.6105 86.8979 57.4669 86.9642 57.3139 86.9769C56.5142 87.1022 55.7403 86.6936 55.0157 86.332C52.8011 85.2275 50.4377 84.4526 48 84.0315C48.9526 82.6519 49.6875 81.1336 50.1791 79.5298C50.4582 78.5115 50.678 77.4778 50.8374 76.4339L51.6082 71.9663C51.8909 70.3281 52.174 68.6856 52.2694 67.0259C52.3277 66.4036 52.2915 65.7761 52.1621 65.1648C52.0145 64.575 51.721 64.0345 51.4581 63.4865C50.1878 60.8384 49.5918 57.8165 50.0916 54.9214C50.3104 53.6544 50.7354 52.3857 50.5582 51.1122C50.3878 49.8878 50.5649 48.9363 50.2514 47.7245C48.9643 42.7493 50.1505 45.9417 50.9869 46.8032Z" fill="#6C63FF"/>
<path d="M27.1647 57.6199C26.5514 58.8535 25.5263 59.9043 25.1773 61.2312C25.0416 61.8513 24.9834 62.485 25.0041 63.1186C24.9958 64.0735 24.9904 65.0478 25.2929 65.9566C25.4877 66.5418 25.8045 67.0814 26.0327 67.655C26.3509 68.4564 26.4926 69.3135 26.4489 70.1711C26.3873 71.3593 25.9709 72.5127 25.9383 73.7019C25.8872 75.5722 26.7795 77.3303 27.6503 79C27.8694 78.4739 28.2045 78.0005 28.6321 77.6131C29.0597 77.2256 29.5694 76.9334 30.1257 76.7569C30.6819 76.5803 31.2713 76.5238 31.8525 76.5911C32.4336 76.6584 32.9926 76.848 33.4903 77.1466C33.72 76.9409 33.7445 76.6033 33.7535 76.3003C33.8179 74.1305 33.88 71.9607 33.9398 69.7908C34.034 66.435 34.1238 63.0343 33.3275 59.7671C32.9679 58.292 32.4084 56.8226 31.3828 55.6785C30.8428 55.076 29.0094 53.4892 28.1229 54.1641C27.7243 54.4676 27.8174 55.2937 27.7543 55.7121C27.6589 56.3734 27.4601 57.0167 27.1647 57.6199Z" fill="#6C63FF"/>
<path d="M62.712 54.1192C62.9764 54.9844 62.9922 55.9089 62.9975 56.8175C63.0082 58.6711 62.9848 60.5245 62.9273 62.3776C62.8979 63.3262 62.8574 64.288 62.5837 65.1925C62.4032 65.789 62.1246 66.3484 61.9382 66.943C61.3795 68.7247 61.6848 70.6572 61.7327 72.5325C61.7665 73.1394 61.7172 73.7484 61.5863 74.3406C61.2915 75.5032 60.4992 76.4425 59.9462 77.496C59.4209 78.4965 59.104 79.6179 58.4768 80.5512C57.8495 81.4845 56.7636 82.224 55.7111 81.9375C54.9136 81.7204 54.347 80.9786 53.955 80.2171C53.0998 78.5428 52.8072 76.6141 53.1249 74.7433C53.5184 72.4672 54.7905 70.448 55.2493 68.1855C55.8793 65.0785 54.9218 61.8723 54.9503 58.6957C54.9373 58.1977 55.0015 57.7009 55.1406 57.2247C55.3812 56.4991 55.898 55.9196 56.3755 55.3377C56.9722 54.6104 57.5265 53.8459 58.0353 53.0484C58.3771 52.5126 58.8414 51.1346 59.4474 51.02C60.8005 50.7643 62.3763 53.0206 62.712 54.1192Z" fill="#6C63FF"/>
<path d="M20.0089 85.255C19.2297 85.0619 18.4269 84.9777 17.6239 85.005C16.7803 85.051 15.9563 85.2735 15.2066 85.6578C14.457 86.0422 13.7989 86.5794 13.2761 87.2339C12.7533 87.8884 12.3779 88.6452 12.1747 89.4538C11.9715 90.2625 11.9452 91.1046 12.0976 91.924C12.2635 92.8159 12.6362 93.6569 13.0427 94.4703C13.6752 95.736 14.4338 96.9987 15.6047 97.8097C16.2896 98.2842 17.0824 98.58 17.8657 98.871L24.0327 101.162C24.9399 101.499 25.8473 101.836 26.7635 102.148C31.3664 103.717 36.1653 104.658 41.0268 104.944C42.5076 105.031 44.0108 105.055 45.4554 104.723C45.7982 104.644 46.1639 104.526 46.3624 104.24C46.4799 104.038 46.5492 103.812 46.565 103.58L46.9445 100.96C46.9979 100.591 47.0493 100.203 46.9122 99.856C46.7384 99.4158 46.3027 99.1388 45.8872 98.9035C41.8329 96.6075 37.0989 95.3408 33.6863 92.1894C32.883 91.4476 32.2107 90.2716 31.2346 89.7677C30.1277 89.1962 28.8241 88.8701 27.68 88.3435C25.1788 87.1923 22.7197 85.8694 20.0089 85.255Z" fill="#3F3D56"/>
<path opacity="0.1" d="M25.8104 88.636C28.0287 89.3476 37.3947 94.2776 39 95.9989C38.7848 96.0783 31.4839 91.8897 31.2648 91.8224C29.2735 91.2106 27.271 90.5948 25.38 89.6994C24.9995 89.5193 22.9084 88.6726 23.0031 88.1812C23.11 87.6267 25.4166 88.5097 25.8104 88.636Z" fill="black"/>
<path d="M52.5612 105.996C52.6797 106.004 52.7973 105.972 52.8922 105.906C52.9338 105.857 52.9644 105.8 52.9821 105.74C52.9999 105.679 53.0045 105.616 52.9956 105.554C52.9924 104.485 52.9891 103.416 52.9859 102.347C51.989 101.908 50.874 101.767 49.7795 101.631L44.6727 101C44.7901 101.015 43.8743 103.035 44.0147 103.304C44.2622 103.78 46.1535 104.201 46.6873 104.426C48.543 105.206 50.4712 106.064 52.5612 105.996Z" fill="#A0616A"/>
<path d="M36.2839 102.467C35.2778 102.619 34.1549 102.753 33.5033 103.497C32.677 104.44 33.0288 105.846 33.423 107.014C33.4815 107.251 33.5991 107.47 33.7657 107.654C34.0347 107.906 34.4469 107.943 34.824 107.966C35.7415 108.021 36.718 108.064 37.5197 107.637C37.8993 107.434 38.2131 107.139 38.5668 106.898C39.158 106.524 39.8079 106.242 40.4922 106.062C41.7501 105.686 43.045 105.433 44.3569 105.306C44.8711 105.256 45.3956 105.224 45.8793 105.051C46.3631 104.878 46.811 104.535 46.9515 104.062C47.1372 103.438 46.7551 102.802 46.3887 102.255C45.9323 101.573 45.4487 100.855 44.7681 100.353C43.7752 99.6204 43.2841 100.183 42.2839 100.651C40.391 101.538 38.3684 102.15 36.2839 102.467V102.467Z" fill="#A0616A"/>
<path d="M34.21 103.243L27.8 101.44C27.0204 101.221 26.2275 100.999 25.4146 101C24.6017 101.001 23.7512 101.254 23.2239 101.843C22.7269 102.398 22.5846 103.157 22.4607 103.877L22.1957 105.417C22.0609 106.199 21.926 106.997 22.0472 107.781C22.1685 108.566 22.5893 109.349 23.3206 109.729C24.2077 110.19 25.2948 109.965 26.2848 109.772C28.2845 109.383 30.3184 109.175 32.3592 109.152C33.1265 109.143 33.9312 109.152 34.6092 108.811C35.4151 108.404 35.8972 107.545 35.9801 106.68C36.1063 105.365 35.6456 103.647 34.21 103.243Z" fill="#3F3D56"/>
<path d="M55.6514 101.368C56.4623 101.213 57.178 100.711 57.9551 100.414C59.0489 99.9962 60.2341 99.9962 61.393 100.001C61.8184 100.003 62.2714 100.013 62.6255 100.27C63.136 100.641 63.2668 101.382 63.3536 102.044C63.5282 103.376 63.7027 104.707 63.8773 106.039C63.9758 106.79 64.0737 107.561 63.92 108.301C63.7664 109.042 63.3038 109.755 62.6303 109.946C61.8123 110.178 61.0103 109.608 60.238 109.234C58.3076 108.298 56.0635 108.537 54.0507 107.838C53.6772 107.708 53.2771 107.51 53.1247 107.116C53.0559 106.894 53.0313 106.659 53.0527 106.426C53.0872 105.142 52.8389 103.389 53.1933 102.162C53.512 101.058 54.7462 101.368 55.6514 101.368Z" fill="#3F3D56"/>
<path d="M68.8792 83.3295C70.1677 83.0129 71.5035 82.9235 72.824 83.0654C73.8786 83.1793 74.9652 83.4668 75.7352 84.182C76.6723 85.0525 76.9735 86.3987 76.9986 87.6637C77.0398 90.1833 76.1869 92.6388 74.5855 94.6107C74.1945 95.1094 73.7294 95.5481 73.2059 95.9119C72.6411 96.2581 72.0392 96.5423 71.4109 96.7594L57.4775 102.144C53.812 103.561 50.1335 104.981 46.3101 105.915C46.2056 105.965 46.092 105.993 45.9761 105.999C45.8601 106.005 45.7442 105.988 45.6351 105.949C45.5259 105.91 45.4258 105.85 45.3406 105.773C45.2554 105.696 45.1869 105.603 45.1389 105.499C43.9182 103.791 42.894 101.955 42.0851 100.026C42.0468 99.9801 42.0204 99.9259 42.008 99.8679C41.9956 99.8099 41.9977 99.7498 42.014 99.6928C42.0303 99.6357 42.0604 99.5834 42.1017 99.5401C42.1431 99.4969 42.1945 99.4641 42.2515 99.4444L52.1067 93.8964C52.8126 93.499 53.5264 93.0959 54.1126 92.5422C54.5385 92.1378 54.8873 91.6621 55.1424 91.1375C55.3467 90.7194 55.3658 89.7329 55.6267 89.4239C55.8822 89.1213 56.7561 89.0972 57.1598 88.9782C57.729 88.8073 58.2865 88.6009 58.8287 88.36C61.0333 87.3937 62.9964 85.9898 65.1097 84.8583C66.295 84.1943 67.5617 83.6806 68.8792 83.3295Z" fill="#3F3D56"/>
<path opacity="0.1" d="M63.8361 88.0451C62.141 89.2767 59.9463 90.4088 58.2663 91.6728C57.693 92.1042 48.1351 97.3025 48 97.9929C49.5673 98.2484 59.5511 91.4917 60.9796 90.8175C62.408 90.1433 63.6742 89.1925 64.929 88.2487C65.2488 88.0082 66.6039 87.2852 65.686 87.0165C65.1689 86.8651 64.2178 87.7989 63.8361 88.0451Z" fill="black"/>
<path d="M51.7904 47H37.3663C36.7803 47 36.2183 47.2354 35.8039 47.6545C35.3895 48.0736 35.1567 48.642 35.1567 49.2347V50.053H35V51.883H35.1567V53.1641H35V54.2621H35.1567V67.7653C35.1567 68.358 35.3895 68.9264 35.8039 69.3455C36.2183 69.7646 36.7803 70 37.3663 70H51.7904C52.3764 70 52.9385 69.7646 53.3528 69.3455C53.7672 68.9264 54 68.358 54 67.7653V49.2347C54 48.642 53.7672 48.0736 53.3528 47.6545C52.9385 47.2354 52.3764 47 51.7904 47V47Z" fill="#3F3D56"/>
<path d="M54.6316 28.9032L46.8947 25L36.2105 26.5968L34 36L39.5027 35.7961L41.0399 32.3415V35.7392L43.5789 35.6451L45.0527 30.1452L45.9736 36L55 35.8226L54.6316 28.9032Z" fill="#2F2E41"/>
<path d="M29.4243 82.3442C29.779 82.9022 30.1946 83.448 30.7643 83.749C31.4761 84.1252 32.3548 84.058 33.0677 83.684C33.7744 83.2846 34.3529 82.6734 34.73 81.9276C35.5101 80.4758 35.6717 78.7385 35.5743 77.0732C35.477 75.4079 35.1396 73.7681 34.9902 72.1071C34.8817 70.8996 34.8729 69.685 34.8641 68.4721C34.8623 68.2173 34.8662 67.9427 35.0091 67.737C35.1819 67.4883 35.4983 67.4198 35.7786 67.332C37.3532 66.839 38.3983 65.2837 39.1476 63.7433C39.6479 62.7147 40.083 61.5904 39.9865 60.439C39.89 59.2876 39.1047 58.1277 38.0136 58.0103C37.114 57.9135 36.2835 58.5156 35.6346 59.1792C33.9977 60.8638 32.9457 63.0795 32.6476 65.4701C32.5052 66.6408 32.546 67.8433 32.2438 68.9798C31.5987 71.4064 29.5802 72.8942 28.5743 75.0778C27.4658 77.4838 28.0776 80.2154 29.4243 82.3442Z" fill="#A0616A"/>
<path d="M59.6824 73.2769C59.446 73.8389 59.1017 74.3467 58.67 74.7705C58.2382 75.1943 57.7278 75.5255 57.1687 75.7444C56.4738 76.0296 55.7072 76.0775 54.9835 75.8811C54.6245 75.7794 54.2934 75.5945 54.0157 75.3408C53.7381 75.0872 53.5215 74.7715 53.3826 74.4184C53.2719 74.0627 53.2112 73.6928 53.2023 73.3196C53.0983 71.6856 53.1385 70.0018 53.7195 68.4757C53.9436 67.8871 54.2457 67.3289 54.4226 66.7237C54.6243 66.0334 54.6565 65.3052 54.6873 64.5855L54.8783 60.1271C54.9099 59.8034 54.888 59.4766 54.8135 59.1604C54.623 58.5153 54.0328 58.096 53.4913 57.7113C52.1835 56.7822 50.8911 55.6981 50.2574 54.205C50.0635 53.7482 49.9355 53.2404 50.034 52.7527C50.2127 51.8674 51.0872 51.2942 51.9516 51.1011C52.5172 50.9748 53.102 50.9667 53.6707 51.0774C54.2394 51.1881 54.7803 51.4153 55.2608 51.7452C55.7413 52.0752 56.1515 52.5011 56.4666 52.9972C56.7816 53.4934 56.9951 54.0497 57.0942 54.6324C57.1797 55.1355 57.1785 55.6495 57.2286 56.1576C57.3348 57.2354 57.6697 58.2743 57.8792 59.3362C58.3954 61.9519 58.1279 64.6557 58.6383 67.271C59.065 69.4576 60.6741 70.8844 59.6824 73.2769Z" fill="#A0616A"/>
<path d="M45 57C46.1046 57 47 56.1046 47 55C47 53.8954 46.1046 53 45 53C43.8954 53 43 53.8954 43 55C43 56.1046 43.8954 57 45 57Z" fill="#D0CDE1"/>
<path d="M119.5 31C120.328 31 121 30.3284 121 29.5C121 28.6716 120.328 28 119.5 28C118.672 28 118 28.6716 118 29.5C118 30.3284 118.672 31 119.5 31Z" fill="#3F3D56"/>
<path d="M121.75 25H117.25C116.654 25.0017 116.083 25.2394 115.661 25.6609C115.239 26.0825 115.002 26.6538 115 27.25V31.75C115.002 32.3462 115.239 32.9175 115.661 33.3391C116.083 33.7606 116.654 33.9983 117.25 34H121.75C122.346 33.9982 122.917 33.7606 123.339 33.339C123.761 32.9175 123.998 32.3462 124 31.75V27.25C123.998 26.6538 123.761 26.0825 123.339 25.6609C122.917 25.2394 122.346 25.0018 121.75 25ZM119.5 32.2C118.966 32.2 118.444 32.0416 118 31.745C117.556 31.4483 117.21 31.0266 117.006 30.5332C116.801 30.0399 116.748 29.497 116.852 28.9733C116.956 28.4495 117.213 27.9684 117.591 27.5908C117.968 27.2132 118.45 26.9561 118.973 26.8519C119.497 26.7477 120.04 26.8012 120.533 27.0055C121.027 27.2099 121.448 27.5559 121.745 28C122.042 28.444 122.2 28.966 122.2 29.5C122.2 30.216 121.915 30.9027 121.409 31.409C120.903 31.9153 120.216 32.1998 119.5 32.2ZM122.425 27.25C122.291 27.25 122.161 27.2104 122.05 27.1362C121.939 27.0621 121.852 26.9566 121.801 26.8333C121.75 26.71 121.737 26.5742 121.763 26.4433C121.789 26.3124 121.853 26.1921 121.948 26.0977C122.042 26.0033 122.162 25.939 122.293 25.913C122.424 25.8869 122.56 25.9003 122.683 25.9514C122.807 26.0025 122.912 26.089 122.986 26.2C123.06 26.311 123.1 26.4415 123.1 26.575C123.1 26.6637 123.083 26.7516 123.049 26.8336C123.015 26.9156 122.965 26.9901 122.903 27.0528C122.84 27.1155 122.766 27.1652 122.684 27.1991C122.602 27.2329 122.514 27.2502 122.425 27.25Z" fill="#3F3D56"/>
<path d="M119.5 19C117.423 19 115.393 19.6158 113.667 20.7696C111.94 21.9233 110.594 23.5632 109.799 25.4818C109.005 27.4004 108.797 29.5116 109.202 31.5484C109.607 33.5852 110.607 35.4562 112.075 36.9246C113.544 38.3931 115.415 39.3931 117.452 39.7982C119.488 40.2034 121.6 39.9955 123.518 39.2007C125.437 38.406 127.077 37.0602 128.23 35.3335C129.384 33.6068 130 31.5767 130 29.5C130 28.1211 129.728 26.7557 129.201 25.4818C128.673 24.2079 127.9 23.0504 126.925 22.0754C125.95 21.1004 124.792 20.3269 123.518 19.7993C122.244 19.2716 120.879 19 119.5 19V19ZM124.923 31.6193C124.921 32.44 124.594 33.2264 124.013 33.8067C123.433 34.3871 122.647 34.7141 121.826 34.7166H117.401C116.581 34.7142 115.794 34.3871 115.214 33.8067C114.634 33.2264 114.306 32.44 114.304 31.6193V27.1947C114.306 26.374 114.634 25.5877 115.214 25.0073C115.794 24.427 116.581 24.0999 117.401 24.0975H121.826C122.647 24.0999 123.433 24.427 124.013 25.0073C124.594 25.5877 124.921 26.374 124.923 27.1947L124.923 31.6193Z" fill="#3F3D56"/>
<path d="M77 0C75.0222 0 73.0888 0.615814 71.4443 1.76957C69.7998 2.92332 68.5181 4.5632 67.7612 6.48182C67.0043 8.40045 66.8063 10.5116 67.1922 12.5484C67.578 14.5852 68.5304 16.4562 69.9289 17.9246C71.3275 19.3931 73.1093 20.3931 75.0491 20.7982C76.9889 21.2034 78.9996 20.9954 80.8268 20.2007C82.6541 19.406 84.2159 18.0602 85.3147 16.3335C86.4135 14.6068 87 12.5767 87 10.5C87 9.12112 86.7413 7.75574 86.2388 6.48182C85.7363 5.2079 84.9996 4.05039 84.0711 3.07538C83.1425 2.10036 82.0401 1.32694 80.8268 0.799265C79.6136 0.27159 78.3132 0 77 0V0ZM80.1531 6.35344H78.873C77.9991 6.35344 77.8323 6.78752 77.8323 7.4272V8.78655H79.9138L79.6418 10.9188H77.8322V16.7065H75.5114V10.9188H73.8469V8.78655H75.5114V7.21017C75.5114 5.32157 76.7589 4.2935 78.3654 4.2935C79.1341 4.2935 79.9609 4.35442 80.1531 4.38107L80.1531 6.35344Z" fill="#3F3D56"/>
<path d="M134 65C134 71.0751 129.299 76 123.5 76C117.701 76 113 71.0751 113 65C113 58.9249 117.701 54 123.5 54C129.299 54 134 58.9249 134 65Z" fill="#3F3D56"/>
<path fill-rule="evenodd" clip-rule="evenodd" d="M121.422 61.9578C122.718 61.8033 124.282 61.8033 125.578 61.9578C126.755 62.0984 127.668 62.794 127.842 63.5435C128.053 64.4509 128.053 65.5491 127.842 66.4565C127.667 67.206 126.755 67.9016 125.578 68.0422C124.282 68.1967 122.718 68.1967 121.422 68.0422C120.245 67.9016 119.333 67.206 119.158 66.4565C118.947 65.5491 118.947 64.4509 119.158 63.5435C119.333 62.794 120.245 62.0984 121.422 61.9578ZM125.718 61.1241C124.329 60.9586 122.671 60.9586 121.282 61.1241C119.775 61.3039 118.45 62.2096 118.177 63.3819C117.941 64.3962 117.941 65.6038 118.177 66.6181C118.45 67.7904 119.775 68.6961 121.282 68.8759C122.671 69.0414 124.329 69.0414 125.718 68.8759C127.225 68.6961 128.55 67.7904 128.823 66.6181C129.059 65.6038 129.059 64.3962 128.823 63.3819C128.55 62.2096 127.225 61.3039 125.718 61.1241ZM122.777 62.9654C122.702 62.9231 122.615 62.8988 122.524 62.8951C122.434 62.8914 122.344 62.9085 122.264 62.9444C122.184 62.9804 122.118 63.0339 122.071 63.0993C122.025 63.1647 122 63.2395 122 63.3157V66.6843C122 66.7605 122.025 66.8353 122.071 66.9007C122.118 66.9661 122.184 67.0196 122.264 67.0556C122.344 67.0915 122.434 67.1086 122.524 67.1049C122.615 67.1012 122.702 67.0769 122.777 67.0346L125.778 65.3503C125.846 65.3119 125.902 65.2598 125.941 65.1987C125.98 65.1376 126 65.0693 126 65C126 64.9307 125.98 64.8624 125.941 64.8013C125.902 64.7402 125.846 64.6881 125.778 64.6497L122.777 62.9654ZM124.599 65L123 65.8977V64.1027L124.599 65Z" fill="white"/>
</svg>
