<svg width="570" height="406" viewBox="0 0 570 406" fill="none" xmlns="http://www.w3.org/2000/svg">
<g clip-path="url(#clip0)">
<path opacity="0.1" d="M570 225.489C569.988 244.745 565.791 263.769 557.698 281.248C549.605 298.727 537.809 314.246 523.124 326.733C508.438 339.22 491.213 348.379 472.637 353.577C454.061 358.775 434.576 359.888 415.527 356.84H204.229C196.068 357.958 187.839 358.519 179.602 358.519C99.3282 358.519 31.3431 305.952 8.3481 233.429C2.79805 215.907 -0.0176511 197.637 -0.00016318 179.259C-0.00016318 80.2545 80.4128 0 179.602 0C259.487 0 327.179 52.0448 350.507 124.046C374.57 103.611 405.147 92.4116 436.741 92.4601C510.328 92.4601 570 152.018 570 225.489Z" fill="#6C63FF"/>
<path opacity="0.1" d="M518.801 330.299C504.339 341.57 487.704 349.743 469.935 354.31C452.166 358.877 433.645 359.738 415.527 356.84H204.229C196.068 357.958 187.84 358.519 179.602 358.519C99.3283 358.519 31.3432 305.952 8.34814 233.429C25.5472 196.738 69.7462 170.629 121.567 170.629C172.065 170.629 215.323 195.427 233.413 230.649C242.308 229.034 251.332 228.225 260.373 228.23C312.711 228.23 357.274 254.871 374.099 292.143C388.037 287.926 402.525 285.799 417.09 285.832C459.776 285.832 497.293 303.549 518.801 330.299Z" fill="#6C63FF"/>
<path d="M372.811 157.718H136.99V176.091H372.811V157.718Z" fill="white"/>
<path d="M372.811 197.443H136.99V215.816H372.811V197.443Z" fill="white"/>
<path d="M372.811 237.168H136.99V255.541H372.811V237.168Z" fill="white"/>
<path d="M420.383 165.455L419.129 166.706L423.159 170.728L432.115 161.79L430.861 160.539L423.159 168.181L420.383 165.455ZM431.219 167.153C431.218 168.645 430.747 170.099 429.874 171.309C429.001 172.52 427.768 173.426 426.351 173.9C424.934 174.374 423.403 174.391 421.976 173.95C420.548 173.509 419.295 172.632 418.394 171.442C417.492 170.252 416.988 168.81 416.952 167.318C416.917 165.827 417.351 164.362 418.194 163.13C419.038 161.899 420.247 160.963 421.652 160.454C423.057 159.945 424.587 159.89 426.025 160.296L427.413 158.91C426.352 158.457 425.209 158.229 424.055 158.24C422.284 158.24 420.552 158.764 419.08 159.746C417.607 160.728 416.459 162.124 415.781 163.757C415.103 165.391 414.926 167.188 415.272 168.922C415.617 170.655 416.47 172.248 417.723 173.498C418.975 174.748 420.571 175.599 422.308 175.944C424.045 176.289 425.846 176.112 427.482 175.436C429.118 174.759 430.517 173.614 431.501 172.144C432.485 170.674 433.01 168.946 433.01 167.178L431.219 167.153Z" fill="#3ACC6C"/>
<path d="M420.383 205.18L419.129 206.431L423.159 210.453L432.115 201.515L430.861 200.264L423.159 207.906L420.383 205.18ZM431.219 206.878C431.218 208.37 430.747 209.824 429.874 211.034C429.001 212.245 427.768 213.151 426.351 213.625C424.934 214.099 423.403 214.116 421.976 213.675C420.548 213.234 419.295 212.357 418.394 211.167C417.492 209.977 416.988 208.535 416.952 207.043C416.917 205.552 417.351 204.087 418.194 202.855C419.038 201.624 420.247 200.688 421.652 200.179C423.057 199.67 424.587 199.615 426.025 200.021L427.413 198.635C426.352 198.182 425.209 197.954 424.055 197.965C422.284 197.965 420.552 198.489 419.08 199.471C417.607 200.453 416.459 201.849 415.781 203.483C415.103 205.116 414.926 206.913 415.272 208.647C415.617 210.381 416.47 211.973 417.723 213.223C418.975 214.473 420.571 215.325 422.308 215.669C424.045 216.014 425.846 215.837 427.482 215.161C429.118 214.484 430.517 213.339 431.501 211.869C432.485 210.399 433.01 208.671 433.01 206.903L431.219 206.878Z" fill="#3ACC6C"/>
<path opacity="0.1" d="M285.249 406C425.381 406 538.98 400.331 538.98 393.338C538.98 386.344 425.381 380.675 285.249 380.675C145.117 380.675 31.5173 386.344 31.5173 393.338C31.5173 400.331 145.117 406 285.249 406Z" fill="#6C63FF"/>
<path opacity="0.1" d="M451.925 123.878C451.497 123.265 451.261 122.539 451.249 121.792C451.249 117.268 460.493 113.599 471.896 113.599C483.299 113.599 492.542 117.268 492.542 121.792C492.52 122.641 492.219 123.459 491.687 124.121C504.383 125.531 512.94 128.183 512.94 131.227C512.94 135.75 494.005 139.42 470.652 139.42C447.299 139.42 428.363 135.75 428.363 131.227C428.363 128.019 437.965 125.218 451.925 123.878Z" fill="#6C63FF"/>
<path opacity="0.1" d="M377.761 36.9691C377.413 36.4681 377.221 35.8755 377.209 35.2659C377.209 31.5715 384.751 28.5822 394.05 28.5822C403.348 28.5822 410.896 31.5615 410.896 35.2659C410.879 35.9566 410.636 36.6228 410.204 37.1628C420.557 38.3198 427.537 40.4798 427.537 42.9626C427.537 46.6521 412.115 49.6464 393.04 49.6464C373.965 49.6464 358.537 46.667 358.537 42.9626C358.537 40.3308 366.373 38.0615 377.761 36.9691Z" fill="#6C63FF"/>
<path opacity="0.1" d="M152.05 69.0521C151.497 68.549 151.109 67.8915 150.935 67.1651C149.94 62.7457 158.169 57.1594 169.298 54.6865C180.428 52.2136 190.254 53.7828 191.239 58.2022C191.402 59.0348 191.289 59.8979 190.915 60.6602C203.612 59.2847 212.542 60.0146 213.204 62.9841C214.199 67.3985 196.507 75.0903 173.711 80.1552C150.915 85.2202 131.637 85.7565 130.652 81.3371C129.95 78.1938 138.731 73.397 152.05 69.0521Z" fill="#6C63FF"/>
<path opacity="0.1" d="M101.781 64.8611C100.622 64.1907 99.0546 64.8313 98.2586 65.9088C97.4626 66.9864 97.2387 68.3916 97.0397 69.6976C96.5969 72.6323 96.2735 76.004 98.2586 78.2186C95.0148 68.4016 85.6865 60.8787 75.373 59.7812" stroke="#6C63FF" stroke-width="3" stroke-miterlimit="10"/>
<path opacity="0.1" d="M202.791 111.166C202.045 110.734 201.04 111.166 200.527 111.841C200.073 112.577 199.804 113.412 199.741 114.274C199.458 116.166 199.244 118.331 200.527 119.736C199.435 116.585 197.477 113.803 194.878 111.707C192.279 109.612 189.143 108.287 185.826 107.883" stroke="#6C63FF" stroke-width="3" stroke-miterlimit="10"/>
<path opacity="0.1" d="M367.219 81.7293C366.473 81.3023 365.468 81.7293 364.955 82.4047C364.5 83.1423 364.231 83.9788 364.169 84.8428C363.886 86.7297 363.672 88.8948 364.955 90.305C363.862 87.1541 361.904 84.3728 359.305 82.2774C356.706 80.182 353.57 78.8566 350.254 78.452" stroke="#6C63FF" stroke-width="3" stroke-miterlimit="10"/>
<path d="M101.741 380.889C101.745 382.184 101.612 383.475 101.343 384.742C101.293 384.98 101.239 385.239 101.184 385.442C99.771 391.098 95.786 395.235 91.0298 395.498C90.8705 395.498 90.7113 395.498 90.5322 395.498C85.5024 395.498 81.2487 391.168 79.8457 385.204C79.8059 385.045 79.771 384.886 79.7362 384.707C79.4679 383.441 79.3345 382.149 79.3382 380.854C79.3382 372.775 84.3482 366.23 90.5322 366.23C96.7163 366.23 101.741 372.825 101.741 380.889Z" fill="#3F3D56"/>
<path opacity="0.1" d="M101.741 380.889C101.745 382.184 101.612 383.475 101.343 384.742C101.294 384.98 101.239 385.239 101.184 385.442C101.015 385.442 100.851 385.442 100.687 385.442C99.4545 385.376 98.23 385.21 97.0249 384.946C95.9572 385.275 94.8662 385.524 93.7612 385.691C92.914 385.818 92.0602 385.897 91.204 385.929H90.3383C89.3134 385.929 88.2896 385.861 87.2737 385.725C85.6309 385.506 84.0174 385.107 82.4627 384.534C81.6116 384.816 80.7444 385.049 79.8657 385.229C79.8259 385.07 79.7911 384.911 79.7562 384.732C79.4879 383.465 79.3545 382.174 79.3582 380.879C79.3582 372.8 84.3682 366.255 90.5523 366.255C96.7363 366.255 101.741 372.825 101.741 380.889Z" fill="black"/>
<path d="M125.622 353.647C125.627 350.092 124.791 346.586 123.184 343.413L110.02 347.5L121.577 340.717C119.638 337.923 117.096 335.598 114.137 333.916C111.179 332.233 107.879 331.235 104.483 330.994C103.942 330.175 103.349 329.392 102.707 328.65L83.8011 334.525L99.3085 325.423C96.3421 323.15 92.8602 321.643 89.171 321.034C85.4817 320.424 81.6989 320.732 78.1572 321.929C74.6155 323.127 71.4241 325.177 68.8654 327.899C66.3068 330.621 64.4597 333.93 63.4876 337.534L79.6816 356.14L62.1145 343.458C57.6645 346.608 54.4964 351.249 53.1877 356.535C51.8789 361.822 52.5165 367.401 54.9843 372.258C57.4521 377.114 61.5859 380.924 66.6323 382.993C71.6788 385.062 77.3021 385.253 82.4777 383.53C87.1592 385.248 92.2753 385.389 97.0448 383.933C100.37 384.663 103.817 384.64 107.132 383.866C110.447 383.091 113.546 381.585 116.2 379.457C118.855 377.33 120.998 374.635 122.472 371.572C123.946 368.508 124.713 365.154 124.716 361.756C124.716 361.26 124.716 360.763 124.667 360.267C125.311 358.119 125.633 355.889 125.622 353.647V353.647Z" fill="#6C63FF"/>
<path opacity="0.1" d="M125.229 357.858C118.277 356.543 111.148 356.452 104.164 357.59C96.2587 358.896 88.1791 361.766 80.4478 359.671C75.9105 358.439 71.9901 355.589 67.5572 354.005C63.2803 352.516 58.6731 352.241 54.2488 353.21C52.5629 357.236 52.0738 361.661 52.84 365.957C53.6062 370.252 55.5953 374.237 58.5697 377.434C61.544 380.632 65.3778 382.907 69.613 383.988C73.8481 385.069 78.3056 384.91 82.4528 383.531C87.1343 385.248 92.2504 385.39 97.0199 383.933C100.345 384.663 103.792 384.64 107.107 383.866C110.422 383.091 113.521 381.585 116.176 379.457C118.83 377.33 120.973 374.635 122.447 371.572C123.921 368.509 124.688 365.154 124.692 361.756C124.692 361.26 124.692 360.763 124.642 360.267C124.882 359.475 125.078 358.671 125.229 357.858V357.858Z" fill="black"/>
<path d="M504.403 355.986L524.692 344.069C521.949 339.384 518.443 335.189 514.318 331.655L476.045 343.572L506.035 325.974C498.608 321.914 490.25 319.854 481.784 319.997C473.317 320.141 465.034 322.483 457.75 326.793C450.466 331.102 444.432 337.231 440.242 344.575C436.053 351.92 433.851 360.227 433.856 368.678C433.856 395.552 455.687 396.486 482.612 396.486C509.537 396.486 531.368 395.552 531.368 368.678C531.376 361.877 529.951 355.15 527.184 348.935L504.403 355.986Z" fill="#6C63FF"/>
<path opacity="0.1" d="M509.542 382.11C507.473 379.871 504.9 378.138 502.353 376.474C498.667 374.036 494.856 371.543 490.517 370.714C486.701 369.984 482.766 370.6 478.891 370.377C472.143 369.967 465.791 367.061 461.075 362.228C458.303 359.368 456.124 355.857 452.791 353.672C449.199 351.318 444.642 350.812 440.383 351.398C439.146 351.578 437.92 351.828 436.711 352.148C434.799 357.443 433.824 363.03 433.831 368.658C433.831 395.532 455.662 396.466 482.587 396.466C495.652 396.466 507.517 396.248 516.274 392.95L514.811 390.219C513.289 387.369 511.736 384.489 509.542 382.11Z" fill="black"/>
<path d="M332.905 393.775C332.683 392.987 332.201 392.298 331.537 391.818C331.458 391.764 331.373 391.714 331.288 391.664C330.597 391.342 329.851 391.152 329.089 391.103C326.234 390.736 323.234 390.184 321.07 388.317C320.443 387.776 319.91 387.145 319.333 386.565C318.108 385.397 316.788 384.333 315.388 383.382C315.251 383.254 315.089 383.155 314.914 383.09C314.738 383.025 314.55 382.996 314.363 383.004C313.823 382.579 313.378 382.046 313.055 381.44C312.745 380.669 312.599 379.842 312.627 379.012C312.338 370.57 310.542 361.89 312.537 353.687C312.75 352.762 312.692 351.794 312.368 350.901C312.771 350.718 313.174 350.529 313.572 350.325C316.947 348.556 319.949 346.154 322.413 343.249C323.563 342.014 324.475 340.578 325.104 339.014C325.856 336.908 325.746 334.604 325.477 332.389C324.923 328.486 324.14 324.618 323.134 320.805L320.851 311.37C320.353 309.294 319.801 307.164 318.696 305.352H318.801C318.726 304.304 318.647 303.256 318.492 302.218C318.167 300.329 317.718 298.463 317.149 296.632C316.95 295.937 316.796 294.968 316.567 294.035C316.98 289.799 318.632 285.688 318.91 281.467C319 281.586 319.084 281.705 319.179 281.824C319.866 282.679 320.811 283.314 321.507 284.143C322.811 285.722 323.104 287.858 323.378 289.869C323.462 290.918 323.723 291.945 324.149 292.908C324.388 293.305 324.599 293.718 324.781 294.144C325.07 295.003 324.856 295.937 324.681 296.831C324.438 298.102 324.343 299.582 325.264 300.51C325.758 300.986 326.404 301.273 327.089 301.32C327.751 301.366 328.414 301.251 329.021 300.983C329.628 300.716 330.161 300.305 330.572 299.785C331.512 298.569 331.647 296.935 331.607 295.41C331.615 294.261 331.426 293.12 331.05 292.034C330.531 290.893 329.892 289.811 329.144 288.806C327.811 286.75 326.831 284.501 325.731 282.316C324.86 280.531 323.847 278.819 322.701 277.196C322.08 276.332 321.403 275.503 320.846 274.604C320.662 274.307 319.751 272.087 318.9 269.867C319.338 269.778 319.791 269.599 319.895 269.192C319.937 268.953 319.912 268.707 319.821 268.482C317.952 262.07 317.611 255.31 318.826 248.743C319.154 246.966 319.597 245.193 319.592 243.39C319.587 241.588 319.094 239.691 317.766 238.425C316.95 237.645 315.885 237.154 315.04 236.409C313.413 234.969 312.761 232.759 312.343 230.644C312.215 229.651 311.907 228.69 311.433 227.808C311.302 227.611 311.156 227.425 310.995 227.252C312.168 224.088 312.764 220.74 312.756 217.366C312.755 214.833 312.421 212.312 311.761 209.867C312.03 210.533 312.259 211.213 312.502 211.908C310.423 201.073 302.278 192.989 292.552 192.989H292.283C281.254 192.989 272.259 203.382 271.831 216.397C269.647 217.788 267.913 219.779 266.837 222.13C265.761 224.481 265.389 227.093 265.766 229.651C263.259 232.153 261.851 235.547 261.851 239.085C261.877 242.696 263.339 246.148 265.915 248.682C268.491 251.217 271.97 252.627 275.587 252.602C277.901 252.602 280.178 252.021 282.209 250.913C282.327 252.032 282.528 253.141 282.811 254.23C283.269 255.958 283.975 257.627 284.303 259.38C284.632 261.133 284.612 263.059 283.657 264.579C282.885 265.754 282.305 267.045 281.94 268.402C281.614 270.036 281.512 271.707 281.637 273.368C281.681 274.887 281.721 276.402 281.766 277.921C281.935 283.88 282.099 289.839 280.89 295.688C280.343 298.34 278.96 300.858 279.273 303.549C279.43 304.526 279.714 305.477 280.119 306.38C280.617 307.681 281.264 309.081 282.527 309.711C283.144 309.986 283.812 310.13 284.487 310.134C285.318 310.173 286.151 310.136 286.975 310.024C287.472 309.955 288.144 309.622 287.97 309.145C287.891 308.983 287.767 308.846 287.612 308.753C286.964 308.243 286.44 307.593 286.079 306.853C285.717 306.113 285.527 305.301 285.522 304.478C285.522 302.124 287.089 299.855 286.607 297.526C286.303 296.096 285.229 294.71 285.681 293.32C286.676 290.177 286.826 286.805 287.672 283.617C287.955 282.579 288.239 281.536 288.527 280.499C289.025 278.641 289.522 276.779 289.955 274.902C290.98 270.421 291.488 265.838 291.468 261.242C292.274 262.722 292.824 264.327 293.094 265.989C293.244 267.196 293.164 268.472 293.731 269.549C294.298 270.627 295.423 271.416 296.094 272.454C295.819 273.084 295.505 273.696 295.154 274.287C294.449 275.189 293.806 276.138 293.229 277.127C292.731 278.12 292.383 279.143 291.96 280.151C290.542 283.538 288.109 286.606 287.756 290.256C287.468 293.191 288.582 296.061 289.711 298.787C290.375 300.416 291.063 302.038 291.776 303.653C291.821 303.758 291.871 303.872 291.925 303.976C292.01 304.805 292.119 305.63 292.229 306.459H294.055C294.801 307.452 295.632 308.445 296.079 309.602C296.374 310.5 296.542 311.434 296.577 312.378C296.94 316.847 296.871 321.43 298.567 325.587C299.065 326.823 299.562 328.069 299.612 329.326C299.665 330.373 299.832 331.412 300.109 332.424C300.361 333.519 300.495 334.638 300.507 335.761C300.565 337.691 300.515 339.622 300.358 341.546C296.378 344.029 293.065 347.614 289.482 350.718C284.546 354.986 278.943 358.42 272.895 360.882C272.895 360.788 272.895 360.689 272.895 360.594C271.194 360.515 269.572 361.091 268.03 361.88C267.487 362.149 266.96 362.437 266.438 362.72C266.15 362.854 265.889 363.039 265.667 363.266C264.97 364.075 265.477 365.302 266.01 366.245C267.781 369.34 269.552 372.432 271.323 375.521C271.731 376.236 272.144 376.956 272.482 377.706C273.06 378.982 273.428 380.338 274.074 381.579C274.84 382.904 275.762 384.132 276.821 385.239C277.975 386.563 279.136 387.872 280.303 389.166C280.668 389.64 281.12 390.038 281.637 390.338C281.899 390.484 282.196 390.554 282.495 390.54C282.795 390.527 283.085 390.432 283.333 390.264C283.523 390.099 283.675 389.894 283.776 389.663C284.045 389.105 284.168 388.489 284.134 387.87C284.111 387.367 283.987 386.872 283.771 386.416C283.555 385.961 283.251 385.552 282.875 385.214C282.378 384.802 281.781 384.464 281.577 383.873C281.488 383.55 281.468 383.212 281.517 382.88C281.766 379.955 282.015 377.001 282.89 374.2C283.547 372.105 284.567 369.95 284.079 367.809C283.754 367.71 283.422 367.639 283.084 367.596C283.425 367.199 283.787 366.821 284.169 366.464C285.93 364.815 288.074 363.618 290.194 362.441L299.547 357.237C299.978 359.628 300.414 362.013 300.856 364.393C301.01 365.217 301.159 366.042 301.308 366.876L303.408 378.287C303.594 379.207 303.728 380.137 303.811 381.073C303.871 381.996 303.811 382.92 303.811 383.838C303.827 384.869 303.765 385.9 303.627 386.922C303.517 387.496 303.369 388.061 303.184 388.615H303.114C302.921 388.76 302.781 388.964 302.716 389.196C302.122 390.563 301.73 392.008 301.552 393.487C301.412 394.659 301.656 395.846 302.249 396.868C302.36 397.094 302.532 397.285 302.746 397.419C302.998 397.522 303.271 397.561 303.542 397.534L315.836 397.275C317.348 397.203 318.865 397.258 320.368 397.439C321.562 397.618 322.736 397.936 323.94 398.03C326.741 398.199 329.413 396.938 331.9 395.711C332.306 395.57 332.655 395.302 332.895 394.946C333.048 394.571 333.051 394.152 332.905 393.775V393.775Z" fill="url(#paint0_linear)"/>
<path d="M267.204 230.842C267.112 230.201 267.065 229.554 267.065 228.906C267.064 226.678 267.62 224.486 268.681 222.526C269.743 220.567 271.277 218.903 273.144 217.683C273.562 204.773 282.363 194.439 293.159 194.439C304.224 194.439 313.194 205.279 313.194 218.647C313.194 232.014 304.239 242.849 293.159 242.849C292.116 242.849 291.075 242.752 290.05 242.561C289.679 244.625 288.829 246.573 287.567 248.25C286.305 249.926 284.666 251.284 282.783 252.213C280.9 253.143 278.825 253.619 276.724 253.603C274.624 253.587 272.556 253.079 270.687 252.121C268.819 251.162 267.202 249.78 265.966 248.084C264.73 246.389 263.909 244.427 263.571 242.358C263.232 240.289 263.384 238.169 264.015 236.169C264.646 234.169 265.738 232.344 267.204 230.842V230.842Z" fill="#3F3D56"/>
<path opacity="0.1" d="M294.214 197.597C283.418 197.597 274.617 207.916 274.199 220.837C272.331 222.056 270.796 223.722 269.735 225.682C268.673 227.642 268.118 229.836 268.119 232.064C268.121 232.712 268.167 233.359 268.259 234C265.8 236.504 264.424 239.87 264.428 243.376C264.43 243.932 264.465 244.487 264.532 245.039C263.607 242.641 263.392 240.028 263.912 237.511C264.432 234.994 265.667 232.679 267.468 230.842C267.376 230.201 267.329 229.554 267.328 228.906C267.328 226.678 267.884 224.486 268.945 222.526C270.007 220.567 271.54 218.903 273.408 217.683C273.826 204.773 282.627 194.439 293.423 194.439C302.945 194.439 310.915 202.469 312.95 213.229C310.09 204.092 302.781 197.597 294.214 197.597Z" fill="black"/>
<path d="M305.493 223.687C305.395 224.478 305.483 225.28 305.751 226.031C306.214 227.098 307.348 228.052 307.015 229.164C306.801 229.884 306.02 230.281 305.333 230.52C301.97 231.657 298.298 230.981 294.751 231.135C293.568 231.239 292.381 231.28 291.194 231.259C289.997 231.233 288.839 230.83 287.885 230.107C289.734 229.208 291.479 228.111 293.09 226.835C293.477 226.548 293.828 226.215 294.134 225.842C294.89 224.849 295.005 223.523 295.05 222.277C295.094 221.03 295.085 219.794 295.05 218.572C297.594 218.543 300.133 218.531 302.667 218.538C303.483 218.538 305.97 218.339 306.254 219.218C306.398 219.655 305.851 220.936 305.756 221.428C305.627 222.177 305.542 222.932 305.493 223.687Z" fill="#A0616A"/>
<path opacity="0.1" d="M305.493 223.687C305.395 224.478 305.483 225.28 305.751 226.031C306.214 227.098 307.348 228.052 307.015 229.164C306.801 229.884 306.02 230.281 305.333 230.52C301.97 231.657 298.298 230.981 294.751 231.135C293.568 231.239 292.381 231.28 291.194 231.259C289.997 231.233 288.839 230.83 287.885 230.107C289.734 229.208 291.479 228.111 293.09 226.835C293.477 226.548 293.828 226.215 294.134 225.842C294.89 224.849 295.005 223.523 295.05 222.277C295.094 221.03 295.085 219.794 295.05 218.572C297.594 218.543 300.133 218.531 302.667 218.538C303.483 218.538 305.97 218.339 306.254 219.218C306.398 219.655 305.851 220.936 305.756 221.428C305.627 222.177 305.542 222.932 305.493 223.687Z" fill="black"/>
<path d="M318.134 269.639C318.505 272.461 318.163 275.33 317.139 277.986C311.675 277.415 306.185 277.127 300.692 277.122C301.639 275.854 302.244 274.365 302.448 272.797C302.585 271.327 302.585 269.848 302.448 268.378L313.115 268.343C313.896 268.308 314.68 268.367 315.448 268.517C316.522 268.76 317.09 269.445 318.134 269.639Z" fill="#A0616A"/>
<path d="M321.124 275.498C321.672 276.397 322.333 277.216 322.94 278.075C324.07 279.688 325.068 281.388 325.925 283.16C327 285.325 327.96 287.56 329.264 289.616C329.999 290.616 330.626 291.691 331.134 292.823C331.499 293.903 331.682 295.036 331.677 296.175C331.716 297.69 331.582 299.313 330.682 300.52C330.279 301.037 329.756 301.446 329.157 301.712C328.558 301.978 327.902 302.092 327.249 302.044C326.58 302.007 325.946 301.733 325.463 301.27C324.562 300.351 324.652 298.876 324.891 297.615C325.06 296.731 325.274 295.803 324.99 294.949C324.815 294.525 324.608 294.115 324.373 293.722C323.957 292.764 323.701 291.744 323.617 290.703C323.348 288.717 323.065 286.586 321.786 285.022C321.104 284.178 320.179 283.562 319.507 282.713C319.154 282.266 318.876 281.765 318.512 281.343C317.98 280.737 317.239 280.275 316.93 279.53C316.786 279.045 316.692 278.546 316.652 278.041C316.448 277.237 316.155 276.459 315.776 275.722C314.557 272.936 314.229 269.852 313.92 266.828C315.229 266.776 316.521 266.522 317.751 266.073C317.338 266.148 320.751 274.863 321.124 275.498Z" fill="#A0616A"/>
<path opacity="0.1" d="M321.124 275.498C321.672 276.397 322.333 277.216 322.94 278.075C324.07 279.688 325.068 281.388 325.925 283.16C327 285.325 327.96 287.56 329.264 289.616C329.999 290.616 330.626 291.691 331.134 292.823C331.499 293.903 331.682 295.036 331.677 296.175C331.716 297.69 331.582 299.313 330.682 300.52C330.279 301.037 329.756 301.446 329.157 301.712C328.558 301.978 327.902 302.092 327.249 302.044C326.58 302.007 325.946 301.733 325.463 301.27C324.562 300.351 324.652 298.876 324.891 297.615C325.06 296.731 325.274 295.803 324.99 294.949C324.815 294.525 324.608 294.115 324.373 293.722C323.957 292.764 323.701 291.744 323.617 290.703C323.348 288.717 323.065 286.586 321.786 285.022C321.104 284.178 320.179 283.562 319.507 282.713C319.154 282.266 318.876 281.765 318.512 281.343C317.98 280.737 317.239 280.275 316.93 279.53C316.786 279.045 316.692 278.546 316.652 278.041C316.448 277.237 316.155 276.459 315.776 275.722C314.557 272.936 314.229 269.852 313.92 266.828C315.229 266.776 316.521 266.522 317.751 266.073C317.338 266.148 320.751 274.863 321.124 275.498Z" fill="black"/>
<path d="M300.279 222.589C305.227 222.589 309.239 218.585 309.239 213.646C309.239 208.707 305.227 204.703 300.279 204.703C295.33 204.703 291.318 208.707 291.318 213.646C291.318 218.585 295.33 222.589 300.279 222.589Z" fill="#A0616A"/>
<path d="M318.149 304.84C319.836 306.826 320.498 309.488 321.104 312.03L323.343 321.376C324.331 325.163 325.096 329.005 325.637 332.881C325.901 335.081 326.01 337.35 325.274 339.461C324.66 341.012 323.766 342.437 322.637 343.666C320.233 346.544 317.293 348.93 313.98 350.693C312.224 351.602 310.368 352.297 308.567 353.106C305.876 354.313 303.303 355.763 300.731 357.213L291.07 362.675C288.995 363.847 286.9 365.034 285.174 366.672C283.569 368.195 282.334 370.063 281.562 372.134C281.43 372.679 281.133 373.17 280.711 373.54C280.164 373.917 279.418 373.793 278.781 373.599C276.435 372.822 274.41 371.296 273.016 369.258C271.623 367.22 270.939 364.781 271.07 362.317C278.172 359.837 284.728 356.011 290.378 351.05C294.692 347.262 298.582 342.743 303.846 340.439C306.144 339.446 308.91 338.666 309.985 336.397C310.397 335.343 310.588 334.215 310.547 333.085C310.642 329.971 310.736 326.823 310.139 323.764C309.642 321.182 308.647 318.714 307.915 316.187C306.423 311.127 305.925 305.838 305.428 300.585C308.867 300.178 312.328 299.974 315.791 299.974C316.095 299.936 316.402 300.018 316.647 300.202C316.801 300.398 316.893 300.635 316.91 300.883C317.189 302.248 317.254 303.802 318.149 304.84Z" fill="#A0616A"/>
<path opacity="0.1" d="M318.149 304.84C319.836 306.826 320.498 309.488 321.104 312.03L323.343 321.376C324.331 325.163 325.096 329.005 325.637 332.881C325.901 335.081 326.01 337.35 325.274 339.461C324.66 341.012 323.766 342.437 322.637 343.666C320.233 346.544 317.293 348.93 313.98 350.693C312.224 351.602 310.368 352.297 308.567 353.106C305.876 354.313 303.303 355.763 300.731 357.213L291.07 362.675C288.995 363.847 286.9 365.034 285.174 366.672C283.569 368.195 282.334 370.063 281.562 372.134C281.43 372.679 281.133 373.17 280.711 373.54C280.164 373.917 279.418 373.793 278.781 373.599C276.435 372.822 274.41 371.296 273.016 369.258C271.623 367.22 270.939 364.781 271.07 362.317C278.172 359.837 284.728 356.011 290.378 351.05C294.692 347.262 298.582 342.743 303.846 340.439C306.144 339.446 308.91 338.666 309.985 336.397C310.397 335.343 310.588 334.215 310.547 333.085C310.642 329.971 310.736 326.823 310.139 323.764C309.642 321.182 308.647 318.714 307.915 316.187C306.423 311.127 305.925 305.838 305.428 300.585C308.867 300.178 312.328 299.974 315.791 299.974C316.095 299.936 316.402 300.018 316.647 300.202C316.801 300.398 316.893 300.635 316.91 300.883C317.189 302.248 317.254 303.802 318.149 304.84Z" fill="black"/>
<path d="M267.433 366.449C269.164 369.517 270.897 372.588 272.632 375.66C273.035 376.37 273.438 377.085 273.771 377.83C274.333 379.096 274.692 380.442 275.328 381.673C276.077 382.987 276.979 384.207 278.015 385.308L281.408 389.211C281.765 389.679 282.209 390.074 282.716 390.373C282.972 390.518 283.264 390.588 283.558 390.575C283.852 390.562 284.136 390.466 284.378 390.299C284.562 390.13 284.71 389.926 284.811 389.698C285.076 389.144 285.195 388.533 285.159 387.92C285.113 386.913 284.669 385.965 283.925 385.283C283.458 384.876 282.856 384.538 282.657 383.953C282.57 383.629 282.55 383.291 282.597 382.959C282.841 380.055 283.095 377.125 283.945 374.344C284.587 372.263 285.582 370.123 285.105 367.998C284.199 367.725 283.02 367.536 282.478 368.311C281.423 369.8 281.358 369.254 279.731 369.026C278.105 368.797 276.577 368.698 275.388 367.427C273.806 365.749 273.94 363.147 274.174 360.857C272.507 360.778 270.92 361.379 269.413 362.134C268.881 362.402 268.363 362.685 267.851 362.968C267.568 363.101 267.311 363.284 267.095 363.509C266.413 364.313 266.91 365.53 267.433 366.449Z" fill="#3F3D56"/>
<path d="M317.482 297.377C318.043 299.195 318.482 301.048 318.796 302.924C318.95 303.956 319.025 304.999 319.104 306.037C315.567 306.876 311.895 306.916 308.259 306.956L293.099 307.12C292.766 305.081 292.628 303.016 292.687 300.952C292.9 297.561 294.179 294.249 293.965 290.857C298.125 290.118 302.33 289.66 306.552 289.487C307.32 289.409 308.096 289.483 308.836 289.705C309.522 289.953 310.094 290.445 310.756 290.758C312.249 291.463 314.468 291.115 315.731 292.247C316.88 293.305 317.074 295.927 317.482 297.377Z" fill="#3F3D56"/>
<path opacity="0.1" d="M317.482 297.377C318.043 299.195 318.482 301.048 318.796 302.924C318.95 303.956 319.025 304.999 319.104 306.037C315.567 306.876 311.895 306.916 308.259 306.956L293.099 307.12C292.766 305.081 292.628 303.016 292.687 300.952C292.9 297.561 294.179 294.249 293.965 290.857C298.125 290.118 302.33 289.66 306.552 289.487C307.32 289.409 308.096 289.483 308.836 289.705C309.522 289.953 310.094 290.445 310.756 290.758C312.249 291.463 314.468 291.115 315.731 292.247C316.88 293.305 317.074 295.927 317.482 297.377Z" fill="black"/>
<path d="M316.622 302.382C317.766 307.765 316.557 313.331 316.274 318.828C316.075 322.761 316.353 326.704 316.468 330.641C316.533 331.773 316.482 332.908 316.313 334.028C316.1 335.021 315.799 335.993 315.413 336.933L314.05 340.558C312.771 343.964 311.468 347.614 312.771 351.164C313.119 352.079 313.188 353.076 312.97 354.03C311.02 362.168 312.776 370.809 313.055 379.171C313.031 379.994 313.174 380.813 313.478 381.579C314.174 383.069 315.891 383.764 316.791 385.119C317.886 386.763 317.492 389.092 316.204 390.582C314.915 392.071 312.91 392.811 310.94 392.975C308.478 393.179 306.01 392.583 303.592 392.191L303.323 391.932C303.02 390.259 303.94 388.71 304.229 386.996C304.365 385.981 304.426 384.957 304.413 383.933C304.413 383.019 304.463 382.1 304.413 381.187C304.331 380.258 304.2 379.335 304.02 378.421L301.96 367.04L301.517 364.587L299.672 354.367C299.323 352.436 300.169 350.276 300.398 348.329C300.861 344.292 301.323 340.235 301.189 336.178C301.174 335.064 301.042 333.954 300.796 332.866C300.533 331.859 300.378 330.827 300.333 329.787C300.303 328.536 299.801 327.305 299.308 326.073C297.672 321.947 297.736 317.383 297.383 312.959C297.346 312.022 297.178 311.094 296.886 310.203C296.388 308.852 295.353 307.77 294.547 306.573C293.741 305.376 293.129 303.882 293.587 302.511C294.313 300.321 297.293 299.621 299.099 298.981C302.196 297.853 305.571 297.74 308.736 298.658C311.517 299.548 314.169 300.8 316.622 302.382V302.382Z" fill="#A0616A"/>
<path d="M302.881 396.913C302.992 397.138 303.165 397.327 303.378 397.459C303.627 397.559 303.897 397.599 304.164 397.573L316.194 397.315C317.675 397.243 319.16 397.298 320.632 397.479C321.801 397.653 322.945 397.976 324.114 398.065C326.851 398.234 329.453 396.982 331.911 395.761C332.301 395.614 332.635 395.348 332.866 395.001C333.013 394.624 333.013 394.206 332.866 393.829C332.649 393.05 332.176 392.366 331.522 391.888C331.444 391.832 331.363 391.78 331.279 391.734C330.604 391.414 329.875 391.225 329.129 391.178C326.333 390.81 323.393 390.264 321.274 388.407C320.662 387.875 320.144 387.25 319.577 386.669C318.382 385.509 317.09 384.453 315.716 383.511C315.585 383.384 315.429 383.285 315.258 383.221C315.087 383.156 314.904 383.126 314.721 383.133C314.513 383.191 314.323 383.3 314.169 383.451C313.592 383.858 313.139 384.416 312.861 385.065C312.739 385.393 312.737 385.754 312.856 386.084C312.974 386.413 313.205 386.691 313.508 386.867C314.005 387.061 314.503 386.962 314.91 387.23C314.045 387.856 312.707 388.168 311.731 388.819C310.768 389.557 309.686 390.128 308.532 390.507C307.358 390.81 305.96 390.602 305.194 389.663C304.781 389.166 304.259 388.387 303.702 388.72C303.51 388.861 303.372 389.062 303.308 389.291C302.726 390.651 302.342 392.087 302.169 393.556C302.039 394.722 302.288 395.899 302.881 396.913Z" fill="#3F3D56"/>
<path d="M306.119 271.203C306.815 271.189 307.509 271.266 308.184 271.431C308.828 271.641 309.446 271.924 310.025 272.276L316.617 275.92C317.101 276.161 317.551 276.465 317.955 276.824C318.905 277.733 319.179 279.138 319.234 280.454C319.458 285.569 317.144 290.475 316.851 295.589C316.723 297.871 316.999 300.157 317.667 302.342C317.831 302.884 317.995 303.544 317.597 303.951C317.452 304.082 317.283 304.183 317.099 304.249C315.015 305.059 312.741 305.242 310.512 305.406C305.04 305.823 299.537 306.241 294.094 305.511C293.823 305.494 293.558 305.42 293.318 305.292C293.008 305.047 292.777 304.715 292.657 304.339C291.97 302.733 291.307 301.124 290.667 299.512C289.557 296.801 288.468 293.951 288.746 291.036C289.094 287.421 291.473 284.367 292.861 281.005C293.279 280.012 293.607 278.959 294.109 278.001C294.671 277.019 295.3 276.077 295.99 275.18C296.522 274.421 297.035 272.698 297.687 272.201C298.483 271.551 300.731 271.565 301.741 271.446C303.194 271.272 304.656 271.191 306.119 271.203Z" fill="#3F3D56"/>
<path opacity="0.1" d="M267.433 366.449C269.164 369.517 270.897 372.588 272.632 375.66C273.035 376.37 273.438 377.085 273.771 377.83C274.333 379.096 274.692 380.442 275.328 381.673C276.077 382.987 276.979 384.207 278.015 385.308L281.408 389.211C281.765 389.679 282.209 390.074 282.716 390.373C282.972 390.518 283.264 390.588 283.558 390.575C283.852 390.562 284.136 390.466 284.378 390.299C284.562 390.13 284.71 389.926 284.811 389.698C285.075 389.144 285.195 388.533 285.159 387.92C283.923 387.318 282.808 386.497 281.866 385.497C281.126 384.608 280.483 383.645 279.945 382.622C279.481 381.804 279.015 380.977 278.547 380.139C276.146 375.922 273.741 371.704 271.333 367.487C270.339 365.84 269.686 364.012 269.413 362.109C268.881 362.377 268.363 362.66 267.851 362.943C267.568 363.076 267.311 363.259 267.095 363.484C266.413 364.314 266.91 365.53 267.433 366.449Z" fill="black"/>
<path opacity="0.1" d="M302.881 396.913C302.992 397.138 303.164 397.327 303.378 397.459C303.627 397.559 303.897 397.599 304.164 397.573L316.194 397.315C317.675 397.243 319.16 397.298 320.632 397.479C321.801 397.653 322.945 397.976 324.114 398.065C326.851 398.234 329.453 396.982 331.91 395.761C332.301 395.614 332.635 395.348 332.866 395.001C333.013 394.624 333.013 394.206 332.866 393.829C332.649 393.05 332.176 392.366 331.522 391.888C331.348 391.997 331.184 392.116 331.025 392.23C329.399 393.438 327.533 394.285 325.552 394.713C323.606 395.062 321.628 395.205 319.652 395.14C315.109 395.14 310.532 395.17 306.045 394.356C305.139 394.192 303.303 393.362 302.164 393.576C302.04 394.736 302.291 395.906 302.881 396.913V396.913Z" fill="black"/>
<path d="M289.503 227.828C293.86 228.568 298.267 228.985 302.687 229.074C303.776 229.074 305.095 228.965 305.577 227.992C305.801 227.535 305.786 226.969 306.105 226.567C306.697 225.817 307.891 226.189 308.741 226.621C309.935 227.227 311.184 227.883 311.896 229.015C312.365 229.89 312.667 230.845 312.786 231.83C313.204 233.931 313.836 236.126 315.433 237.556C316.259 238.296 317.299 238.777 318.095 239.542C319.383 240.793 319.886 242.67 319.886 244.463C319.886 246.256 319.458 248.018 319.134 249.786C317.954 256.307 318.295 263.012 320.129 269.381C320.216 269.607 320.24 269.852 320.199 270.091C320.075 270.547 319.517 270.711 319.045 270.786C311.746 271.988 303.91 270.85 297.194 273.944C296.632 272.564 295.249 271.784 294.562 270.468C294.01 269.4 294.065 268.129 293.94 266.933C293.537 263.7 291.453 260.944 290.299 257.9C289.269 255.233 288.91 252.299 287.473 249.826C286.975 248.952 286.323 248.152 285.821 247.269C285.36 246.396 284.966 245.489 284.642 244.557C283.963 242.963 283.505 241.284 283.279 239.567C282.99 236.091 284.607 232.769 286.517 229.869C287.259 228.757 288.179 227.605 289.503 227.828Z" fill="#6C63FF"/>
<path opacity="0.1" d="M310.642 240.188C311.478 240.371 311.965 241.211 312.353 241.97C312.615 242.447 312.835 242.945 313.01 243.46C313.24 244.329 313.333 245.229 313.284 246.126C313.302 246.696 313.242 247.266 313.105 247.82C312.958 248.378 312.601 248.858 312.11 249.16" stroke="black" stroke-miterlimit="10"/>
<path d="M299.246 211.941C304.605 210.573 308.401 207.324 307.724 204.683C307.048 202.042 302.155 201.009 296.797 202.377C291.438 203.744 287.642 206.993 288.319 209.634C288.995 212.275 293.888 213.308 299.246 211.941Z" fill="#3F3D56"/>
<path opacity="0.1" d="M298.707 210.126C303.473 208.909 307 206.208 307.249 203.77C307.466 204.048 307.625 204.367 307.716 204.708C308.393 207.35 304.597 210.597 299.259 211.968C293.921 213.338 289.005 212.301 288.314 209.659C288.237 209.366 288.215 209.061 288.249 208.76C289.727 210.687 294.04 211.317 298.707 210.126Z" fill="black"/>
<path d="M290.035 300.52L288.781 301.771L292.811 305.794L301.766 296.856L300.512 295.604L292.811 303.246L290.035 300.52ZM300.871 302.218C300.87 303.71 300.399 305.164 299.526 306.374C298.652 307.585 297.42 308.491 296.003 308.965C294.586 309.439 293.055 309.457 291.627 309.016C290.199 308.575 288.947 307.697 288.045 306.507C287.144 305.317 286.64 303.875 286.604 302.384C286.568 300.892 287.003 299.427 287.846 298.196C288.689 296.964 289.899 296.028 291.304 295.519C292.709 295.011 294.238 294.955 295.677 295.361L297.065 293.975C296.004 293.522 294.86 293.294 293.706 293.305C291.935 293.305 290.204 293.829 288.731 294.811C287.259 295.794 286.111 297.19 285.433 298.823C284.755 300.456 284.578 302.253 284.923 303.987C285.269 305.721 286.122 307.313 287.374 308.563C288.627 309.814 290.222 310.665 291.959 311.01C293.697 311.355 295.497 311.178 297.133 310.501C298.77 309.824 300.168 308.679 301.152 307.209C302.136 305.739 302.662 304.011 302.662 302.243L300.871 302.218Z" fill="#3ACC6C"/>
<path d="M293.458 242.819C293.214 240.316 292.36 237.911 290.97 235.813C290.423 234.899 289.644 234.146 288.711 233.628C288.243 233.379 287.714 233.269 287.185 233.31C286.656 233.352 286.15 233.543 285.726 233.861C285.195 234.416 284.823 235.101 284.647 235.848C283.397 239.054 282.857 242.493 283.065 245.928C283.065 249.056 283.109 252.224 283.9 255.253C284.353 256.971 285.045 258.625 285.393 260.368C285.741 262.111 285.697 264.023 284.761 265.532C284.003 266.701 283.437 267.984 283.085 269.331C282.764 270.949 282.662 272.602 282.781 274.247L282.91 278.771C283.075 284.67 283.239 290.629 282.055 296.409C281.517 299.05 280.164 301.543 280.473 304.219C280.624 305.187 280.902 306.13 281.299 307.025C281.796 308.316 282.418 309.711 283.657 310.337C284.258 310.61 284.911 310.752 285.572 310.754C286.393 310.797 287.216 310.762 288.03 310.65C288.527 310.58 289.174 310.248 289.025 309.771C288.947 309.612 288.826 309.478 288.677 309.384C288.041 308.874 287.527 308.228 287.173 307.494C286.819 306.761 286.634 305.957 286.632 305.143C286.632 302.799 288.164 300.55 287.692 298.256C287.398 296.836 286.348 295.46 286.786 294.08C287.781 290.961 287.91 287.624 288.776 284.446L289.612 281.348C290.109 279.501 290.607 277.658 291.01 275.791C292.14 270.628 292.592 265.34 292.353 260.06C292.318 259.236 292.776 258.297 292.851 257.478C292.93 256.485 292.851 255.531 292.851 254.563C292.841 250.561 293.856 246.802 293.458 242.819Z" fill="#A0616A"/>
</g>
<defs>
<linearGradient id="paint0_linear" x1="297.438" y1="398.055" x2="297.438" y2="192.974" gradientUnits="userSpaceOnUse">
<stop stop-color="#808080" stop-opacity="0.25"/>
<stop offset="0.54" stop-color="#808080" stop-opacity="0.12"/>
<stop offset="1" stop-color="#808080" stop-opacity="0.1"/>
</linearGradient>
<clipPath id="clip0">
<rect width="570" height="406" fill="white"/>
</clipPath>
</defs>
</svg>
